<svg xmlns="http://www.w3.org/2000/svg" width="1080.454345703125" height="1130.0113525390625" viewBox="-520.031494140625 -546.8092651367188 1080.454345703125 1130.0113525390625"><title>Neo4j Graph Visualization</title><desc>Created using Neo4j (http://www.neo4j.com/)</desc><g class="layer relationships"><g class="relationship" transform="translate(-66.13349234413525 417.1791600709221) rotate(372.50041472322323)"><path class="b-outline" fill="#A5ABB6" stroke="none" d="M 25 0.5 L 47.04561185633061 0.5 L 47.04561185633061 -0.5 L 25 -0.5 Z M 89.49873685633061 0.5 L 111.54434871266122 0.5 L 111.54434871266122 3.5 L 118.54434871266122 0 L 111.54434871266122 -3.5 L 111.54434871266122 -0.5 L 89.49873685633061 -0.5 Z"/><text text-anchor="middle" pointer-events="none" font-size="8px" fill="#000000" x="68.27217435633061" y="3" font-family="Helvetica Neue, Helvetica, Arial, sans-serif">TYPE_OF</text></g><g class="relationship" transform="translate(26.246383040045696 309.7215326499231) rotate(430.97674829728146)"><path class="b-outline" fill="#A5ABB6" stroke="none" d="M 25 0.5 L 48.53836321195449 0.5 L 48.53836321195449 -0.5 L 25 -0.5 Z M 90.99148821195449 0.5 L 114.52985142390898 0.5 L 114.52985142390898 3.5 L 121.52985142390898 0 L 114.52985142390898 -3.5 L 114.52985142390898 -0.5 L 90.99148821195449 -0.5 Z"/><text text-anchor="middle" pointer-events="none" font-size="8px" fill="#000000" x="69.76492571195449" y="3" font-family="Helvetica Neue, Helvetica, Arial, sans-serif">TYPE_OF</text></g><g class="relationship" transform="translate(170.14408010599766 554.2019985357014) rotate(227.78113670378002)"><path class="b-outline" fill="#A5ABB6" stroke="none" d="M 25 0.5 L 46.80700113342749 0.5 L 46.80700113342749 -0.5 L 25 -0.5 Z M 89.26012613342749 0.5 L 111.06712726685498 0.5 L 111.06712726685498 3.5 L 118.06712726685498 0 L 111.06712726685498 -3.5 L 111.06712726685498 -0.5 L 89.26012613342749 -0.5 Z"/><text text-anchor="middle" pointer-events="none" font-size="8px" fill="#000000" x="68.03356363342749" y="3" transform="rotate(180 68.03356363342749 0)" font-family="Helvetica Neue, Helvetica, Arial, sans-serif">TYPE_OF</text></g><g class="relationship" transform="translate(146.41047065540738 321.24781474826335) rotate(479.68716446379005)"><path class="b-outline" fill="#A5ABB6" stroke="none" d="M 25 0.5 L 48.368195213077755 0.5 L 48.368195213077755 -0.5 L 25 -0.5 Z M 90.82132021307775 0.5 L 114.18951542615551 0.5 L 114.18951542615551 3.5 L 121.18951542615551 0 L 114.18951542615551 -3.5 L 114.18951542615551 -0.5 L 90.82132021307775 -0.5 Z"/><text text-anchor="middle" pointer-events="none" font-size="8px" fill="#000000" x="69.59475771307775" y="3" transform="rotate(180 69.59475771307775 0)" font-family="Helvetica Neue, Helvetica, Arial, sans-serif">TYPE_OF</text></g><g class="relationship" transform="translate(218.04441699645167 417.6011618475384) rotate(527.9878891100982)"><path class="b-outline" fill="#A5ABB6" stroke="none" d="M 25 0.5 L 48.90385614205289 0.5 L 48.90385614205289 -0.5 L 25 -0.5 Z M 91.35698114205289 0.5 L 115.26083728410578 0.5 L 115.26083728410578 3.5 L 122.26083728410578 0 L 115.26083728410578 -3.5 L 115.26083728410578 -0.5 L 91.35698114205289 -0.5 Z"/><text text-anchor="middle" pointer-events="none" font-size="8px" fill="#000000" x="70.13041864205289" y="3" transform="rotate(180 70.13041864205289 0)" font-family="Helvetica Neue, Helvetica, Arial, sans-serif">TYPE_OF</text></g><g class="relationship" transform="translate(427.507392380966 157.0108099043586) rotate(254.16462208412975)"><path class="b-outline" fill="#A5ABB6" stroke="none" d="M 25 0.5 L 48.22637603198855 0.5 L 48.22637603198855 -0.5 L 25 -0.5 Z M 90.67950103198855 0.5 L 113.9058770639771 0.5 L 113.9058770639771 3.5 L 120.9058770639771 0 L 113.9058770639771 -3.5 L 113.9058770639771 -0.5 L 90.67950103198855 -0.5 Z"/><text text-anchor="middle" pointer-events="none" font-size="8px" fill="#000000" x="69.45293853198855" y="3" transform="rotate(180 69.45293853198855 0)" font-family="Helvetica Neue, Helvetica, Arial, sans-serif">TYPE_OF</text></g><g class="relationship" transform="translate(531.4228111471969 32.62453492645255) rotate(186.34511255207582)"><path class="b-outline" fill="#A5ABB6" stroke="none" d="M 25 0.5 L 47.58106962683661 0.5 L 47.58106962683661 -0.5 L 25 -0.5 Z M 90.03419462683661 0.5 L 112.61526425367322 0.5 L 112.61526425367322 3.5 L 119.61526425367322 0 L 112.61526425367322 -3.5 L 112.61526425367322 -0.5 L 90.03419462683661 -0.5 Z"/><text text-anchor="middle" pointer-events="none" font-size="8px" fill="#000000" x="68.80763212683661" y="3" transform="rotate(180 68.80763212683661 0)" font-family="Helvetica Neue, Helvetica, Arial, sans-serif">TYPE_OF</text></g><g class="relationship" transform="translate(265.40658989739563 94.8924948372488) rotate(327.3851399116845)"><path class="b-outline" fill="#A5ABB6" stroke="none" d="M 25 0.5 L 47.86336992565586 0.5 L 47.86336992565586 -0.5 L 25 -0.5 Z M 90.31649492565586 0.5 L 113.17986485131172 0.5 L 113.17986485131172 3.5 L 120.17986485131172 0 L 113.17986485131172 -3.5 L 113.17986485131172 -0.5 L 90.31649492565586 -0.5 Z"/><text text-anchor="middle" pointer-events="none" font-size="8px" fill="#000000" x="69.08993242565586" y="3" font-family="Helvetica Neue, Helvetica, Arial, sans-serif">TYPE_OF</text></g><g class="relationship" transform="translate(475.81697876180965 -100.1032752196586) rotate(487.04679959221187)"><path class="b-outline" fill="#A5ABB6" stroke="none" d="M 25 0.5 L 48.4090050899174 0.5 L 48.4090050899174 -0.5 L 25 -0.5 Z M 90.8621300899174 0.5 L 114.2711351798348 0.5 L 114.2711351798348 3.5 L 121.2711351798348 0 L 114.2711351798348 -3.5 L 114.2711351798348 -0.5 L 90.8621300899174 -0.5 Z"/><text text-anchor="middle" pointer-events="none" font-size="8px" fill="#000000" x="69.6355675899174" y="3" transform="rotate(180 69.6355675899174 0)" font-family="Helvetica Neue, Helvetica, Arial, sans-serif">TYPE_OF</text></g><g class="relationship" transform="translate(360.36418531514363 -127.91149699111237) rotate(439.29404833101864)"><path class="b-outline" fill="#A5ABB6" stroke="none" d="M 25 0.5 L 48.83061181455692 0.5 L 48.83061181455692 -0.5 L 25 -0.5 Z M 91.28373681455692 0.5 L 115.11434862911383 0.5 L 115.11434862911383 3.5 L 122.11434862911383 0 L 115.11434862911383 -3.5 L 115.11434862911383 -0.5 L 91.28373681455692 -0.5 Z"/><text text-anchor="middle" pointer-events="none" font-size="8px" fill="#000000" x="70.05717431455692" y="3" font-family="Helvetica Neue, Helvetica, Arial, sans-serif">TYPE_OF</text></g><g class="relationship" transform="translate(252.1717669074713 -38.13313106298431) rotate(382.007607978458)"><path class="b-outline" fill="#A5ABB6" stroke="none" d="M 25 0.5 L 48.35976706096328 0.5 L 48.35976706096328 -0.5 L 25 -0.5 Z M 90.81289206096328 0.5 L 114.17265912192656 0.5 L 114.17265912192656 3.5 L 121.17265912192656 0 L 114.17265912192656 -3.5 L 114.17265912192656 -0.5 L 90.81289206096328 -0.5 Z"/><text text-anchor="middle" pointer-events="none" font-size="8px" fill="#000000" x="69.58632956096328" y="3" font-family="Helvetica Neue, Helvetica, Arial, sans-serif">TYPE_OF</text></g><g class="relationship" transform="translate(94.1025547337363 -469.0941084730213) rotate(498.09437216293304)"><path class="b-outline" fill="#A5ABB6" stroke="none" d="M 25 0.5 L 49.39872016925675 0.5 L 49.39872016925675 -0.5 L 25 -0.5 Z M 91.85184516925675 0.5 L 116.2505653385135 0.5 L 116.2505653385135 3.5 L 123.2505653385135 0 L 116.2505653385135 -3.5 L 116.2505653385135 -0.5 L 91.85184516925675 -0.5 Z"/><text text-anchor="middle" pointer-events="none" font-size="8px" fill="#000000" x="70.62528266925675" y="3" transform="rotate(180 70.62528266925675 0)" font-family="Helvetica Neue, Helvetica, Arial, sans-serif">TYPE_OF</text></g><g class="relationship" transform="translate(132.41509801776147 -367.6873100805666) rotate(180.92091144790686)"><path class="b-outline" fill="#A5ABB6" stroke="none" d="M 25 0.5 L 49.60675161165004 0.5 L 49.60675161165004 -0.5 L 25 -0.5 Z M 92.05987661165004 0.5 L 116.66662822330008 0.5 L 116.66662822330008 3.5 L 123.66662822330008 0 L 116.66662822330008 -3.5 L 116.66662822330008 -0.5 L 92.05987661165004 -0.5 Z"/><text text-anchor="middle" pointer-events="none" font-size="8px" fill="#000000" x="70.83331411165004" y="3" transform="rotate(180 70.83331411165004 0)" font-family="Helvetica Neue, Helvetica, Arial, sans-serif">TYPE_OF</text></g><g class="relationship" transform="translate(-137.42552424055447 -284.4826439964298) rotate(324.767915737747)"><path class="b-outline" fill="#A5ABB6" stroke="none" d="M 25 0.5 L 49.45924512640313 0.5 L 49.45924512640313 -0.5 L 25 -0.5 Z M 91.91237012640313 0.5 L 116.37161525280627 0.5 L 116.37161525280627 3.5 L 123.37161525280627 0 L 116.37161525280627 -3.5 L 116.37161525280627 -0.5 L 91.91237012640313 -0.5 Z"/><text text-anchor="middle" pointer-events="none" font-size="8px" fill="#000000" x="70.68580762640313" y="3" font-family="Helvetica Neue, Helvetica, Arial, sans-serif">TYPE_OF</text></g><g class="relationship" transform="translate(-18.15267280687393 -517.8092559830204) rotate(449.2552656928004)"><path class="b-outline" fill="#A5ABB6" stroke="none" d="M 25 0.5 L 49.14594750818328 0.5 L 49.14594750818328 -0.5 L 25 -0.5 Z M 91.59907250818328 0.5 L 115.74502001636657 0.5 L 115.74502001636657 3.5 L 122.74502001636657 0 L 115.74502001636657 -3.5 L 115.74502001636657 -0.5 L 91.59907250818328 -0.5 Z"/><text text-anchor="middle" pointer-events="none" font-size="8px" fill="#000000" x="70.37251000818328" y="3" font-family="Helvetica Neue, Helvetica, Arial, sans-serif">TYPE_OF</text></g><g class="relationship" transform="translate(72.09258353098978 -252.98368978211252) rotate(232.97223780633442)"><path class="b-outline" fill="#A5ABB6" stroke="none" d="M 25 0.5 L 48.60839983800585 0.5 L 48.60839983800585 -0.5 L 25 -0.5 Z M 91.06152483800585 0.5 L 114.6699246760117 0.5 L 114.6699246760117 3.5 L 121.6699246760117 0 L 114.6699246760117 -3.5 L 114.6699246760117 -0.5 L 91.06152483800585 -0.5 Z"/><text text-anchor="middle" pointer-events="none" font-size="8px" fill="#000000" x="69.83496233800585" y="3" transform="rotate(180 69.83496233800585 0)" font-family="Helvetica Neue, Helvetica, Arial, sans-serif">TYPE_OF</text></g><g class="relationship" transform="translate(-125.25664465748312 -471.4305170450022) rotate(402.9118852890048)"><path class="b-outline" fill="#A5ABB6" stroke="none" d="M 25 0.5 L 49.70275738080542 0.5 L 49.70275738080542 -0.5 L 25 -0.5 Z M 92.15588238080542 0.5 L 116.85863976161085 0.5 L 116.85863976161085 3.5 L 123.85863976161085 0 L 116.85863976161085 -3.5 L 116.85863976161085 -0.5 L 92.15588238080542 -0.5 Z"/><text text-anchor="middle" pointer-events="none" font-size="8px" fill="#000000" x="70.92931988080542" y="3" font-family="Helvetica Neue, Helvetica, Arial, sans-serif">TYPE_OF</text></g><g class="relationship" transform="translate(-165.6413603922523 -380.19111850410707) rotate(363.87278938370264)"><path class="b-outline" fill="#A5ABB6" stroke="none" d="M 25 0.5 L 50.14893460384329 0.5 L 50.14893460384329 -0.5 L 25 -0.5 Z M 92.60205960384329 0.5 L 117.75099420768657 0.5 L 117.75099420768657 3.5 L 124.75099420768657 0 L 117.75099420768657 -3.5 L 117.75099420768657 -0.5 L 92.60205960384329 -0.5 Z"/><text text-anchor="middle" pointer-events="none" font-size="8px" fill="#000000" x="71.37549710384329" y="3" font-family="Helvetica Neue, Helvetica, Arial, sans-serif">TYPE_OF</text></g><g class="relationship" transform="translate(-49.43939338495023 -225.3237156197273) rotate(282.9203835571021)"><path class="b-outline" fill="#A5ABB6" stroke="none" d="M 25 0.5 L 49.529986880773805 0.5 L 49.529986880773805 -0.5 L 25 -0.5 Z M 91.9831118807738 0.5 L 116.51309876154761 0.5 L 116.51309876154761 3.5 L 123.51309876154761 0 L 116.51309876154761 -3.5 L 116.51309876154761 -0.5 L 91.9831118807738 -0.5 Z"/><text text-anchor="middle" pointer-events="none" font-size="8px" fill="#000000" x="70.7565493807738" y="3" font-family="Helvetica Neue, Helvetica, Arial, sans-serif">TYPE_OF</text></g><g class="relationship" transform="translate(-489.4209644375377 -166.0660663590539) rotate(448.6448900654118)"><path class="b-outline" fill="#A5ABB6" stroke="none" d="M 25 0.5 L 46.85604691478402 0.5 L 46.85604691478402 -0.5 L 25 -0.5 Z M 89.30917191478402 0.5 L 111.16521882956803 0.5 L 111.16521882956803 3.5 L 118.16521882956803 0 L 111.16521882956803 -3.5 L 111.16521882956803 -0.5 L 89.30917191478402 -0.5 Z"/><text text-anchor="middle" pointer-events="none" font-size="8px" fill="#000000" x="68.08260941478402" y="3" font-family="Helvetica Neue, Helvetica, Arial, sans-serif">TYPE_OF</text></g><g class="relationship" transform="translate(-344.550385214109 -46.12817911312528) rotate(530.6928006850911)"><path class="b-outline" fill="#A5ABB6" stroke="none" d="M 25 0.5 L 46.959594722011445 0.5 L 46.959594722011445 -0.5 L 25 -0.5 Z M 89.41271972201145 0.5 L 111.37231444402289 0.5 L 111.37231444402289 3.5 L 118.37231444402289 0 L 111.37231444402289 -3.5 L 111.37231444402289 -0.5 L 89.41271972201145 -0.5 Z"/><text text-anchor="middle" pointer-events="none" font-size="8px" fill="#000000" x="68.18615722201145" y="3" transform="rotate(180 68.18615722201145 0)" font-family="Helvetica Neue, Helvetica, Arial, sans-serif">TYPE_OF</text></g><g class="relationship" transform="translate(-491.0315140993331 209.30568136041433) rotate(390.4819777511054)"><path class="b-outline" fill="#A5ABB6" stroke="none" d="M 25 0.5 L 46.172660494589636 0.5 L 46.172660494589636 -0.5 L 25 -0.5 Z M 88.62578549458964 0.5 L 109.79844598917927 0.5 L 109.79844598917927 3.5 L 116.79844598917927 0 L 109.79844598917927 -3.5 L 109.79844598917927 -0.5 L 88.62578549458964 -0.5 Z"/><text text-anchor="middle" pointer-events="none" font-size="8px" fill="#000000" x="67.39922299458964" y="3" font-family="Helvetica Neue, Helvetica, Arial, sans-serif">TYPE_OF</text></g><g class="relationship" transform="translate(-280.98270035149255 164.69410244366793) rotate(487.00888594630845)"><path class="b-outline" fill="#A5ABB6" stroke="none" d="M 25 0.5 L 48.2447224498588 0.5 L 48.2447224498588 -0.5 L 25 -0.5 Z M 90.6978474498588 0.5 L 113.9425698997176 0.5 L 113.9425698997176 3.5 L 120.9425698997176 0 L 113.9425698997176 -3.5 L 113.9425698997176 -0.5 L 90.6978474498588 -0.5 Z"/><text text-anchor="middle" pointer-events="none" font-size="8px" fill="#000000" x="69.4712849498588" y="3" transform="rotate(180 69.4712849498588 0)" font-family="Helvetica Neue, Helvetica, Arial, sans-serif">TYPE_OF</text></g><g class="relationship" transform="translate(-341.7212247105955 423.1219942638384) rotate(259.18298702946356)"><path class="b-outline" fill="#A5ABB6" stroke="none" d="M 25 0.5 L 47.500089875983875 0.5 L 47.500089875983875 -0.5 L 25 -0.5 Z M 89.95321487598387 0.5 L 112.45330475196775 0.5 L 112.45330475196775 3.5 L 119.45330475196775 0 L 112.45330475196775 -3.5 L 112.45330475196775 -0.5 L 89.95321487598387 -0.5 Z"/><text text-anchor="middle" pointer-events="none" font-size="8px" fill="#000000" x="68.72665237598387" y="3" transform="rotate(180 68.72665237598387 0)" font-family="Helvetica Neue, Helvetica, Arial, sans-serif">TYPE_OF</text></g><g class="relationship" transform="translate(-229.69019927498704 315.48247354588744) rotate(193.82747887224883)"><path class="b-outline" fill="#A5ABB6" stroke="none" d="M 25 0.5 L 46.920283438305745 0.5 L 46.920283438305745 -0.5 L 25 -0.5 Z M 89.37340843830574 0.5 L 111.29369187661149 0.5 L 111.29369187661149 3.5 L 118.29369187661149 0 L 111.29369187661149 -3.5 L 111.29369187661149 -0.5 L 89.37340843830574 -0.5 Z"/><text text-anchor="middle" pointer-events="none" font-size="8px" fill="#000000" x="68.14684593830574" y="3" transform="rotate(180 68.14684593830574 0)" font-family="Helvetica Neue, Helvetica, Arial, sans-serif">TYPE_OF</text></g></g><g class="layer nodes"><g class="node" aria-label="graph-node2433" transform="translate(-66.13349234413525,417.1791600709221)" style="touch-action: none; -webkit-tap-highlight-color: rgba(0, 0, 0, 0);"><circle class="b-outline" cx="0" cy="0" r="25" fill="#C990C0" stroke="#b261a5" stroke-width="2px"/><text class="caption" text-anchor="middle" pointer-events="none" x="0" y="5" font-size="10px" fill="#FFFFFF" font-family="Helvetica Neue, Helvetica, Arial, sans-serif"> admit_into</text></g><g class="node" aria-label="graph-node2625" transform="translate(74.00805726098821,448.2488578746794)" style="touch-action: none; -webkit-tap-highlight-color: rgba(0, 0, 0, 0);"><circle class="b-outline" cx="0" cy="0" r="25" fill="#F79767" stroke="#f36924" stroke-width="2px"/><text class="caption" text-anchor="middle" pointer-events="none" x="0" y="5" font-size="10px" fill="#FFFFFF" font-family="Helvetica Neue, Helvetica, Arial, sans-serif"> Transfer</text></g><g class="node" aria-label="graph-node2427" transform="translate(26.246383040045696,309.7215326499231)" style="touch-action: none; -webkit-tap-highlight-color: rgba(0, 0, 0, 0);"><circle class="b-outline" cx="0" cy="0" r="25" fill="#C990C0" stroke="#b261a5" stroke-width="2px"/><text class="caption" text-anchor="middle" pointer-events="none" x="0" y="5" font-size="10px" fill="#FFFFFF" font-family="Helvetica Neue, Helvetica, Arial, sans-serif"> admit_into</text></g><g class="node" aria-label="graph-node2432" transform="translate(170.14408010599766,554.2019985357014)" style="touch-action: none; -webkit-tap-highlight-color: rgba(0, 0, 0, 0);"><circle class="b-outline" cx="0" cy="0" r="25" fill="#C990C0" stroke="#b261a5" stroke-width="2px"/><text class="caption" text-anchor="middle" pointer-events="none" x="0" y="5" font-size="10px" fill="#FFFFFF" font-family="Helvetica Neue, Helvetica, Arial, sans-serif"> admit_into</text></g><g class="node" aria-label="graph-node2439" transform="translate(146.41047065540738,321.24781474826335)" style="touch-action: none; -webkit-tap-highlight-color: rgba(0, 0, 0, 0);"><circle class="b-outline" cx="0" cy="0" r="25" fill="#C990C0" stroke="#b261a5" stroke-width="2px"/><text class="caption" text-anchor="middle" pointer-events="none" x="0" y="5" font-size="10px" fill="#FFFFFF" font-family="Helvetica Neue, Helvetica, Arial, sans-serif"> admit_into</text></g><g class="node" aria-label="graph-node2421" transform="translate(218.04441699645167,417.6011618475384)" style="touch-action: none; -webkit-tap-highlight-color: rgba(0, 0, 0, 0);"><circle class="b-outline" cx="0" cy="0" r="25" fill="#57C7E3" stroke="#23b3d7" stroke-width="2px"/><text class="caption" text-anchor="middle" pointer-events="none" x="0" y="5" font-size="10px" fill="#2A2C34" font-family="Helvetica Neue, Helvetica, Arial, sans-serif"> admit_into</text></g><g class="node" aria-label="graph-node2443" transform="translate(427.507392380966,157.0108099043586)" style="touch-action: none; -webkit-tap-highlight-color: rgba(0, 0, 0, 0);"><circle class="b-outline" cx="0" cy="0" r="25" fill="#C990C0" stroke="#b261a5" stroke-width="2px"/><text class="caption" text-anchor="middle" pointer-events="none" x="0" y="5" font-size="10px" fill="#FFFFFF" font-family="Helvetica Neue, Helvetica, Arial, sans-serif"> Microbio…</text></g><g class="node" aria-label="graph-node2626" transform="translate(387.6934243290542,16.642106448888352)" style="touch-action: none; -webkit-tap-highlight-color: rgba(0, 0, 0, 0);"><circle class="b-outline" cx="0" cy="0" r="25" fill="#F79767" stroke="#f36924" stroke-width="2px"/><text class="caption" text-anchor="middle" pointer-events="none" x="0" y="5" font-size="10px" fill="#FFFFFF" font-family="Helvetica Neue, Helvetica, Arial, sans-serif"> Microbio…</text></g><g class="node" aria-label="graph-node2445" transform="translate(531.4228111471969,32.62453492645255)" style="touch-action: none; -webkit-tap-highlight-color: rgba(0, 0, 0, 0);"><circle class="b-outline" cx="0" cy="0" r="25" fill="#C990C0" stroke="#b261a5" stroke-width="2px"/><text class="caption" text-anchor="middle" pointer-events="none" x="0" y="5" font-size="10px" fill="#FFFFFF" font-family="Helvetica Neue, Helvetica, Arial, sans-serif"> Microbio…</text></g><g class="node" aria-label="graph-node2436" transform="translate(265.40658989739563,94.8924948372488)" style="touch-action: none; -webkit-tap-highlight-color: rgba(0, 0, 0, 0);"><circle class="b-outline" cx="0" cy="0" r="25" fill="#C990C0" stroke="#b261a5" stroke-width="2px"/><text class="caption" text-anchor="middle" pointer-events="none" x="0" y="5" font-size="10px" fill="#FFFFFF" font-family="Helvetica Neue, Helvetica, Arial, sans-serif"> Microbio…</text></g><g class="node" aria-label="graph-node2444" transform="translate(475.81697876180965,-100.1032752196586)" style="touch-action: none; -webkit-tap-highlight-color: rgba(0, 0, 0, 0);"><circle class="b-outline" cx="0" cy="0" r="25" fill="#C990C0" stroke="#b261a5" stroke-width="2px"/><text class="caption" text-anchor="middle" pointer-events="none" x="0" y="5" font-size="10px" fill="#FFFFFF" font-family="Helvetica Neue, Helvetica, Arial, sans-serif"> Microbio…</text></g><g class="node" aria-label="graph-node2438" transform="translate(360.36418531514363,-127.91149699111237)" style="touch-action: none; -webkit-tap-highlight-color: rgba(0, 0, 0, 0);"><circle class="b-outline" cx="0" cy="0" r="25" fill="#C990C0" stroke="#b261a5" stroke-width="2px"/><text class="caption" text-anchor="middle" pointer-events="none" x="0" y="5" font-size="10px" fill="#FFFFFF" font-family="Helvetica Neue, Helvetica, Arial, sans-serif"> Microbio…</text></g><g class="node" aria-label="graph-node2425" transform="translate(252.1717669074713,-38.13313106298431)" style="touch-action: none; -webkit-tap-highlight-color: rgba(0, 0, 0, 0);"><circle class="b-outline" cx="0" cy="0" r="25" fill="#57C7E3" stroke="#23b3d7" stroke-width="2px"/><text class="caption" text-anchor="middle" pointer-events="none" x="0" y="5" font-size="10px" fill="#2A2C34" font-family="Helvetica Neue, Helvetica, Arial, sans-serif"> Microbio…</text></g><g class="node" aria-label="graph-node2435" transform="translate(94.1025547337363,-469.0941084730213)" style="touch-action: none; -webkit-tap-highlight-color: rgba(0, 0, 0, 0);"><circle class="b-outline" cx="0" cy="0" r="25" fill="#C990C0" stroke="#b261a5" stroke-width="2px"/><text class="caption" text-anchor="middle" pointer-events="none" x="0" y="5" font-size="10px" fill="#FFFFFF" font-family="Helvetica Neue, Helvetica, Arial, sans-serif"> Discharg…</text></g><g class="node" aria-label="graph-node2627" transform="translate(-16.23232740260411,-370.07671653024835)" style="touch-action: none; -webkit-tap-highlight-color: rgba(0, 0, 0, 0);"><circle class="b-outline" cx="0" cy="0" r="25" fill="#F79767" stroke="#f36924" stroke-width="2px"/><text class="caption" text-anchor="middle" pointer-events="none" x="0" y="5" font-size="10px" fill="#FFFFFF" font-family="Helvetica Neue, Helvetica, Arial, sans-serif"> Logistic</text></g><g class="node" aria-label="graph-node2437" transform="translate(132.41509801776147,-367.6873100805666)" style="touch-action: none; -webkit-tap-highlight-color: rgba(0, 0, 0, 0);"><circle class="b-outline" cx="0" cy="0" r="25" fill="#C990C0" stroke="#b261a5" stroke-width="2px"/><text class="caption" text-anchor="middle" pointer-events="none" x="0" y="5" font-size="10px" fill="#FFFFFF" font-family="Helvetica Neue, Helvetica, Arial, sans-serif"> Discharg…</text></g><g class="node" aria-label="graph-node2428" transform="translate(-137.42552424055447,-284.4826439964298)" style="touch-action: none; -webkit-tap-highlight-color: rgba(0, 0, 0, 0);"><circle class="b-outline" cx="0" cy="0" r="25" fill="#C990C0" stroke="#b261a5" stroke-width="2px"/><text class="caption" text-anchor="middle" pointer-events="none" x="0" y="5" font-size="10px" fill="#FFFFFF" font-family="Helvetica Neue, Helvetica, Arial, sans-serif"> Discharg…</text></g><g class="node" aria-label="graph-node2426" transform="translate(-18.15267280687393,-517.8092559830204)" style="touch-action: none; -webkit-tap-highlight-color: rgba(0, 0, 0, 0);"><circle class="b-outline" cx="0" cy="0" r="25" fill="#C990C0" stroke="#b261a5" stroke-width="2px"/><text class="caption" text-anchor="middle" pointer-events="none" x="0" y="5" font-size="10px" fill="#FFFFFF" font-family="Helvetica Neue, Helvetica, Arial, sans-serif"> Hospital…</text></g><g class="node" aria-label="graph-node2430" transform="translate(72.09258353098978,-252.98368978211252)" style="touch-action: none; -webkit-tap-highlight-color: rgba(0, 0, 0, 0);"><circle class="b-outline" cx="0" cy="0" r="25" fill="#C990C0" stroke="#b261a5" stroke-width="2px"/><text class="caption" text-anchor="middle" pointer-events="none" x="0" y="5" font-size="10px" fill="#FFFFFF" font-family="Helvetica Neue, Helvetica, Arial, sans-serif"> Hospital…</text></g><g class="node" aria-label="graph-node2431" transform="translate(-125.25664465748312,-471.4305170450022)" style="touch-action: none; -webkit-tap-highlight-color: rgba(0, 0, 0, 0);"><circle class="b-outline" cx="0" cy="0" r="25" fill="#C990C0" stroke="#b261a5" stroke-width="2px"/><text class="caption" text-anchor="middle" pointer-events="none" x="0" y="5" font-size="10px" fill="#FFFFFF" font-family="Helvetica Neue, Helvetica, Arial, sans-serif"> Hospital…</text></g><g class="node" aria-label="graph-node2422" transform="translate(-165.6413603922523,-380.19111850410707)" style="touch-action: none; -webkit-tap-highlight-color: rgba(0, 0, 0, 0);"><circle class="b-outline" cx="0" cy="0" r="25" fill="#57C7E3" stroke="#23b3d7" stroke-width="2px"/><text class="caption" text-anchor="middle" pointer-events="none" x="0" y="5" font-size="10px" fill="#2A2C34" font-family="Helvetica Neue, Helvetica, Arial, sans-serif"> Discharg…</text></g><g class="node" aria-label="graph-node2420" transform="translate(-49.43939338495023,-225.3237156197273)" style="touch-action: none; -webkit-tap-highlight-color: rgba(0, 0, 0, 0);"><circle class="b-outline" cx="0" cy="0" r="25" fill="#57C7E3" stroke="#23b3d7" stroke-width="2px"/><text class="caption" text-anchor="middle" pointer-events="none" x="0" y="5" font-size="10px" fill="#2A2C34" font-family="Helvetica Neue, Helvetica, Arial, sans-serif"> Hospital…</text></g><g class="node" aria-label="graph-node2434" transform="translate(-489.4209644375377,-166.0660663590539)" style="touch-action: none; -webkit-tap-highlight-color: rgba(0, 0, 0, 0);"><circle class="b-outline" cx="0" cy="0" r="25" fill="#C990C0" stroke="#b261a5" stroke-width="2px"/><text class="caption" text-anchor="middle" pointer-events="none" x="0" y="5" font-size="10px" fill="#FFFFFF" font-family="Helvetica Neue, Helvetica, Arial, sans-serif"> Mirobiol…</text></g><g class="node" aria-label="graph-node2628" transform="translate(-486.0352608908043,-22.940887253448096)" style="touch-action: none; -webkit-tap-highlight-color: rgba(0, 0, 0, 0);"><circle class="b-outline" cx="0" cy="0" r="25" fill="#F79767" stroke="#f36924" stroke-width="2px"/><text class="caption" text-anchor="middle" pointer-events="none" x="0" y="5" font-size="10px" fill="#FFFFFF" font-family="Helvetica Neue, Helvetica, Arial, sans-serif"> Mirobiol…</text></g><g class="node" aria-label="graph-node2424" transform="translate(-344.550385214109,-46.12817911312528)" style="touch-action: none; -webkit-tap-highlight-color: rgba(0, 0, 0, 0);"><circle class="b-outline" cx="0" cy="0" r="25" fill="#57C7E3" stroke="#23b3d7" stroke-width="2px"/><text class="caption" text-anchor="middle" pointer-events="none" x="0" y="5" font-size="10px" fill="#2A2C34" font-family="Helvetica Neue, Helvetica, Arial, sans-serif"> Mirobiol…</text></g><g class="node" aria-label="graph-node2442" transform="translate(-491.0315140993331,209.30568136041433)" style="touch-action: none; -webkit-tap-highlight-color: rgba(0, 0, 0, 0);"><circle class="b-outline" cx="0" cy="0" r="25" fill="#C990C0" stroke="#b261a5" stroke-width="2px"/><text class="caption" text-anchor="middle" pointer-events="none" x="0" y="5" font-size="10px" fill="#FFFFFF" font-family="Helvetica Neue, Helvetica, Arial, sans-serif"> ABG_Test</text></g><g class="node" aria-label="graph-node2629" transform="translate(-368.83120676636554,281.23539825596777)" style="touch-action: none; -webkit-tap-highlight-color: rgba(0, 0, 0, 0);"><circle class="b-outline" cx="0" cy="0" r="25" fill="#F79767" stroke="#f36924" stroke-width="2px"/><text class="caption" text-anchor="middle" pointer-events="none" x="0" y="5" font-size="10px" fill="#FFFFFF" font-family="Helvetica Neue, Helvetica, Arial, sans-serif"> ABG</text></g><g class="node" aria-label="graph-node2441" transform="translate(-280.98270035149255,164.69410244366793)" style="touch-action: none; -webkit-tap-highlight-color: rgba(0, 0, 0, 0);"><circle class="b-outline" cx="0" cy="0" r="25" fill="#C990C0" stroke="#b261a5" stroke-width="2px"/><text class="caption" text-anchor="middle" pointer-events="none" x="0" y="5" font-size="10px" fill="#FFFFFF" font-family="Helvetica Neue, Helvetica, Arial, sans-serif"> ABG_Test</text></g><g class="node" aria-label="graph-node2440" transform="translate(-341.7212247105955,423.1219942638384)" style="touch-action: none; -webkit-tap-highlight-color: rgba(0, 0, 0, 0);"><circle class="b-outline" cx="0" cy="0" r="25" fill="#C990C0" stroke="#b261a5" stroke-width="2px"/><text class="caption" text-anchor="middle" pointer-events="none" x="0" y="5" font-size="10px" fill="#FFFFFF" font-family="Helvetica Neue, Helvetica, Arial, sans-serif"> ABG_Test</text></g><g class="node" aria-label="graph-node2429" transform="translate(-229.69019927498704,315.48247354588744)" style="touch-action: none; -webkit-tap-highlight-color: rgba(0, 0, 0, 0);"><circle class="b-outline" cx="0" cy="0" r="25" fill="#C990C0" stroke="#b261a5" stroke-width="2px"/><text class="caption" text-anchor="middle" pointer-events="none" x="0" y="5" font-size="10px" fill="#FFFFFF" font-family="Helvetica Neue, Helvetica, Arial, sans-serif"> ABG_Test</text></g></g></svg>