<svg xmlns="http://www.w3.org/2000/svg" width="968.7085571289062" height="1041.8712158203125" viewBox="-462.3341064453125 -485.1203918457031 968.7085571289062 1041.8712158203125"><title>Neo4j Graph Visualization</title><desc>Created using Neo4j (http://www.neo4j.com/)</desc><g class="layer relationships"><g class="relationship" transform="translate(-45.959362263616015 427.63502216335434) rotate(344.50485330483286)"><path class="b-outline" fill="#A5ABB6" stroke="none" d="M 25 0.5 L 43.941256928277 0.5 L 43.941256928277 -0.5 L 25 -0.5 Z M 94.253756928277 0.5 L 113.195013856554 0.5 L 113.195013856554 3.5 L 120.195013856554 0 L 113.195013856554 -3.5 L 113.195013856554 -0.5 L 94.253756928277 -0.5 Z"/><text text-anchor="middle" pointer-events="none" font-size="8px" fill="#000000" x="69.097506928277" y="3" font-family="Helvetica Neue, Helvetica, Arial, sans-serif">OBSERVED</text></g><g class="relationship" transform="translate(-0.15826820330454383 276.7675313569993) rotate(409.9783462649433)"><path class="b-outline" fill="#A5ABB6" stroke="none" d="M 25 0.5 L 44.52046004458718 0.5 L 44.52046004458718 -0.5 L 25 -0.5 Z M 94.83296004458718 0.5 L 114.35342008917436 0.5 L 114.35342008917436 3.5 L 121.35342008917436 0 L 114.35342008917436 -3.5 L 114.35342008917436 -0.5 L 94.83296004458718 -0.5 Z"/><text text-anchor="middle" pointer-events="none" font-size="8px" fill="#000000" x="69.67671004458718" y="3" font-family="Helvetica Neue, Helvetica, Arial, sans-serif">OBSERVED</text></g><g class="relationship" transform="translate(132.2110085554552 527.7508111360393) rotate(254.60315683118586)"><path class="b-outline" fill="#A5ABB6" stroke="none" d="M 25 0.5 L 43.382009134030525 0.5 L 43.382009134030525 -0.5 L 25 -0.5 Z M 93.69450913403053 0.5 L 112.07651826806105 0.5 L 112.07651826806105 3.5 L 119.07651826806105 0 L 112.07651826806105 -3.5 L 112.07651826806105 -0.5 L 93.69450913403053 -0.5 Z"/><text text-anchor="middle" pointer-events="none" font-size="8px" fill="#000000" x="68.53825913403053" y="3" transform="rotate(180 68.53825913403053 0)" font-family="Helvetica Neue, Helvetica, Arial, sans-serif">OBSERVED</text></g><g class="relationship" transform="translate(217.0624461406095 307.8418076688311) rotate(506.6548131425335)"><path class="b-outline" fill="#A5ABB6" stroke="none" d="M 25 0.5 L 45.025818767622226 0.5 L 45.025818767622226 -0.5 L 25 -0.5 Z M 95.33831876762223 0.5 L 115.36413753524445 0.5 L 115.36413753524445 3.5 L 122.36413753524445 0 L 115.36413753524445 -3.5 L 115.36413753524445 -0.5 L 95.33831876762223 -0.5 Z"/><text text-anchor="middle" pointer-events="none" font-size="8px" fill="#000000" x="70.18206876762223" y="3" transform="rotate(180 70.18206876762223 0)" font-family="Helvetica Neue, Helvetica, Arial, sans-serif">OBSERVED</text></g><g class="relationship" transform="translate(238.50758753110642 415.8807426332926) rotate(190.59382547192473)"><path class="b-outline" fill="#A5ABB6" stroke="none" d="M 25 0.5 L 44.87168463302953 0.5 L 44.87168463302953 -0.5 L 25 -0.5 Z M 95.18418463302953 0.5 L 115.05586926605906 0.5 L 115.05586926605906 3.5 L 122.05586926605906 0 L 115.05586926605906 -3.5 L 115.05586926605906 -0.5 L 95.18418463302953 -0.5 Z"/><text text-anchor="middle" pointer-events="none" font-size="8px" fill="#000000" x="70.02793463302953" y="3" transform="rotate(180 70.02793463302953 0)" font-family="Helvetica Neue, Helvetica, Arial, sans-serif">OBSERVED</text></g><g class="relationship" transform="translate(114.1204517462295 243.88745139385827) rotate(457.91847424435093)"><path class="b-outline" fill="#A5ABB6" stroke="none" d="M 25 0.5 L 44.52035338668382 0.5 L 44.52035338668382 -0.5 L 25 -0.5 Z M 94.83285338668382 0.5 L 114.35320677336765 0.5 L 114.35320677336765 3.5 L 121.35320677336765 0 L 114.35320677336765 -3.5 L 114.35320677336765 -0.5 L 94.83285338668382 -0.5 Z"/><text text-anchor="middle" pointer-events="none" font-size="8px" fill="#000000" x="69.67660338668382" y="3" transform="rotate(180 69.67660338668382 0)" font-family="Helvetica Neue, Helvetica, Arial, sans-serif">OBSERVED</text></g><g class="relationship" transform="translate(462.9547743431823 -78.35094948501454) rotate(212.43325366658303)"><path class="b-outline" fill="#A5ABB6" stroke="none" d="M 25 0.5 L 45.61028513882226 0.5 L 45.61028513882226 -0.5 L 25 -0.5 Z M 95.92278513882226 0.5 L 116.53307027764453 0.5 L 116.53307027764453 3.5 L 123.53307027764453 0 L 116.53307027764453 -3.5 L 116.53307027764453 -0.5 L 95.92278513882226 -0.5 Z"/><text text-anchor="middle" pointer-events="none" font-size="8px" fill="#000000" x="70.76653513882226" y="3" transform="rotate(180 70.76653513882226 0)" font-family="Helvetica Neue, Helvetica, Arial, sans-serif">OBSERVED</text></g><g class="relationship" transform="translate(377.66297304949256 -14.361558844146117) rotate(254.41304048705734)"><path class="b-outline" fill="#A5ABB6" stroke="none" d="M 25 0.5 L 45.91114055283475 0.5 L 45.91114055283475 -0.5 L 25 -0.5 Z M 96.22364055283475 0.5 L 117.1347811056695 0.5 L 117.1347811056695 3.5 L 124.1347811056695 0 L 117.1347811056695 -3.5 L 117.1347811056695 -0.5 L 96.22364055283475 -0.5 Z"/><text text-anchor="middle" pointer-events="none" font-size="8px" fill="#000000" x="71.06739055283475" y="3" transform="rotate(180 71.06739055283475 0)" font-family="Helvetica Neue, Helvetica, Arial, sans-serif">OBSERVED</text></g><g class="relationship" transform="translate(264.02443584720174 -29.51519828732561) rotate(299.7916990163254)"><path class="b-outline" fill="#A5ABB6" stroke="none" d="M 25 0.5 L 45.376349077095256 0.5 L 45.376349077095256 -0.5 L 25 -0.5 Z M 95.68884907709526 0.5 L 116.06519815419051 0.5 L 116.06519815419051 3.5 L 123.06519815419051 0 L 116.06519815419051 -3.5 L 116.06519815419051 -0.5 L 95.68884907709526 -0.5 Z"/><text text-anchor="middle" pointer-events="none" font-size="8px" fill="#000000" x="70.53259907709526" y="3" font-family="Helvetica Neue, Helvetica, Arial, sans-serif">OBSERVED</text></g><g class="relationship" transform="translate(477.3743525427708 -203.3135977499651) rotate(522.0432744484065)"><path class="b-outline" fill="#A5ABB6" stroke="none" d="M 25 0.5 L 44.814530381144024 0.5 L 44.814530381144024 -0.5 L 25 -0.5 Z M 95.12703038114402 0.5 L 114.94156076228805 0.5 L 114.94156076228805 3.5 L 121.94156076228805 0 L 114.94156076228805 -3.5 L 114.94156076228805 -0.5 L 95.12703038114402 -0.5 Z"/><text text-anchor="middle" pointer-events="none" font-size="8px" fill="#000000" x="69.97078038114402" y="3" transform="rotate(180 69.97078038114402 0)" font-family="Helvetica Neue, Helvetica, Arial, sans-serif">OBSERVED</text></g><g class="relationship" transform="translate(210.57884845774103 -234.44629951831476) rotate(391.03921281202395)"><path class="b-outline" fill="#A5ABB6" stroke="none" d="M 25 0.5 L 45.46218701848956 0.5 L 45.46218701848956 -0.5 L 25 -0.5 Z M 95.77468701848956 0.5 L 116.23687403697912 0.5 L 116.23687403697912 3.5 L 123.23687403697912 0 L 116.23687403697912 -3.5 L 116.23687403697912 -0.5 L 95.77468701848956 -0.5 Z"/><text text-anchor="middle" pointer-events="none" font-size="8px" fill="#000000" x="70.61843701848956" y="3" font-family="Helvetica Neue, Helvetica, Arial, sans-serif">OBSERVED</text></g><g class="relationship" transform="translate(388.61574919046035 -297.51478866224636) rotate(470.090766086274)"><path class="b-outline" fill="#A5ABB6" stroke="none" d="M 25 0.5 L 45.614698598298446 0.5 L 45.614698598298446 -0.5 L 25 -0.5 Z M 95.92719859829845 0.5 L 116.54189719659689 0.5 L 116.54189719659689 3.5 L 123.54189719659689 0 L 116.54189719659689 -3.5 L 116.54189719659689 -0.5 L 95.92719859829845 -0.5 Z"/><text text-anchor="middle" pointer-events="none" font-size="8px" fill="#000000" x="70.77094859829845" y="3" transform="rotate(180 70.77094859829845 0)" font-family="Helvetica Neue, Helvetica, Arial, sans-serif">OBSERVED</text></g><g class="relationship" transform="translate(287.86371933547014 -298.94838413116224) rotate(430.5656419521631)"><path class="b-outline" fill="#A5ABB6" stroke="none" d="M 25 0.5 L 46.069720109511366 0.5 L 46.069720109511366 -0.5 L 25 -0.5 Z M 96.38222010951137 0.5 L 117.45194021902273 0.5 L 117.45194021902273 3.5 L 124.45194021902273 0 L 117.45194021902273 -3.5 L 117.45194021902273 -0.5 L 96.38222010951137 -0.5 Z"/><text text-anchor="middle" pointer-events="none" font-size="8px" fill="#000000" x="71.22597010951137" y="3" font-family="Helvetica Neue, Helvetica, Arial, sans-serif">OBSERVED</text></g><g class="relationship" transform="translate(193.58946939490878 -123.97957657414359) rotate(346.703099424844)"><path class="b-outline" fill="#A5ABB6" stroke="none" d="M 25 0.5 L 45.327609274320736 0.5 L 45.327609274320736 -0.5 L 25 -0.5 Z M 95.64010927432074 0.5 L 115.96771854864147 0.5 L 115.96771854864147 3.5 L 122.96771854864147 0 L 115.96771854864147 -3.5 L 115.96771854864147 -0.5 L 95.64010927432074 -0.5 Z"/><text text-anchor="middle" pointer-events="none" font-size="8px" fill="#000000" x="70.48385927432074" y="3" font-family="Helvetica Neue, Helvetica, Arial, sans-serif">OBSERVED</text></g><g class="relationship" transform="translate(-205.19219893396797 -456.12038538249465) rotate(469.4788991063415)"><path class="b-outline" fill="#A5ABB6" stroke="none" d="M 25 0.5 L 44.73647131432175 0.5 L 44.73647131432175 -0.5 L 25 -0.5 Z M 95.04897131432175 0.5 L 114.7854426286435 0.5 L 114.7854426286435 3.5 L 121.7854426286435 0 L 114.7854426286435 -3.5 L 114.7854426286435 -0.5 L 95.04897131432175 -0.5 Z"/><text text-anchor="middle" pointer-events="none" font-size="8px" fill="#000000" x="69.89272131432175" y="3" transform="rotate(180 69.89272131432175 0)" font-family="Helvetica Neue, Helvetica, Arial, sans-serif">OBSERVED</text></g><g class="relationship" transform="translate(-116.19673939554436 -370.1760673716032) rotate(519.1853619508199)"><path class="b-outline" fill="#A5ABB6" stroke="none" d="M 25 0.5 L 45.13070448236506 0.5 L 45.13070448236506 -0.5 L 25 -0.5 Z M 95.44320448236506 0.5 L 115.57390896473012 0.5 L 115.57390896473012 3.5 L 122.57390896473012 0 L 115.57390896473012 -3.5 L 115.57390896473012 -0.5 L 95.44320448236506 -0.5 Z"/><text text-anchor="middle" pointer-events="none" font-size="8px" fill="#000000" x="70.28695448236506" y="3" transform="rotate(180 70.28695448236506 0)" font-family="Helvetica Neue, Helvetica, Arial, sans-serif">OBSERVED</text></g><g class="relationship" transform="translate(-329.2139592092042 -189.92554784032248) rotate(300.4295418436489)"><path class="b-outline" fill="#A5ABB6" stroke="none" d="M 25 0.5 L 45.458195789599486 0.5 L 45.458195789599486 -0.5 L 25 -0.5 Z M 95.77069578959949 0.5 L 116.22889157919897 0.5 L 116.22889157919897 3.5 L 123.22889157919897 0 L 116.22889157919897 -3.5 L 116.22889157919897 -0.5 L 95.77069578959949 -0.5 Z"/><text text-anchor="middle" pointer-events="none" font-size="8px" fill="#000000" x="70.61444578959949" y="3" font-family="Helvetica Neue, Helvetica, Arial, sans-serif">OBSERVED</text></g><g class="relationship" transform="translate(-375.3401733312614 -398.1427696887171) rotate(393.5608731526804)"><path class="b-outline" fill="#A5ABB6" stroke="none" d="M 25 0.5 L 44.067318841366514 0.5 L 44.067318841366514 -0.5 L 25 -0.5 Z M 94.37981884136651 0.5 L 113.44713768273303 0.5 L 113.44713768273303 3.5 L 120.44713768273303 0 L 113.44713768273303 -3.5 L 113.44713768273303 -0.5 L 94.37981884136651 -0.5 Z"/><text text-anchor="middle" pointer-events="none" font-size="8px" fill="#000000" x="69.22356884136651" y="3" font-family="Helvetica Neue, Helvetica, Arial, sans-serif">OBSERVED</text></g><g class="relationship" transform="translate(-128.76424339263065 -240.7995946446043) rotate(211.53547525071315)"><path class="b-outline" fill="#A5ABB6" stroke="none" d="M 25 0.5 L 44.89329626886587 0.5 L 44.89329626886587 -0.5 L 25 -0.5 Z M 95.20579626886587 0.5 L 115.09909253773174 0.5 L 115.09909253773174 3.5 L 122.09909253773174 0 L 115.09909253773174 -3.5 L 115.09909253773174 -0.5 L 95.20579626886587 -0.5 Z"/><text text-anchor="middle" pointer-events="none" font-size="8px" fill="#000000" x="70.04954626886587" y="3" transform="rotate(180 70.04954626886587 0)" font-family="Helvetica Neue, Helvetica, Arial, sans-serif">OBSERVED</text></g><g class="relationship" transform="translate(-394.94830333313286 -272.58653780764837) rotate(342.2217980624283)"><path class="b-outline" fill="#A5ABB6" stroke="none" d="M 25 0.5 L 45.279021477544575 0.5 L 45.279021477544575 -0.5 L 25 -0.5 Z M 95.59152147754457 0.5 L 115.87054295508915 0.5 L 115.87054295508915 3.5 L 122.87054295508915 0 L 115.87054295508915 -3.5 L 115.87054295508915 -0.5 L 95.59152147754457 -0.5 Z"/><text text-anchor="middle" pointer-events="none" font-size="8px" fill="#000000" x="70.43527147754457" y="3" font-family="Helvetica Neue, Helvetica, Arial, sans-serif">OBSERVED</text></g><g class="relationship" transform="translate(-220.3519932105678 -173.63994805815693) rotate(256.8038676800854)"><path class="b-outline" fill="#A5ABB6" stroke="none" d="M 25 0.5 L 45.34600687778651 0.5 L 45.34600687778651 -0.5 L 25 -0.5 Z M 95.65850687778651 0.5 L 116.00451375557302 0.5 L 116.00451375557302 3.5 L 123.00451375557302 0 L 116.00451375557302 -3.5 L 116.00451375557302 -0.5 L 95.65850687778651 -0.5 Z"/><text text-anchor="middle" pointer-events="none" font-size="8px" fill="#000000" x="70.50225687778651" y="3" transform="rotate(180 70.50225687778651 0)" font-family="Helvetica Neue, Helvetica, Arial, sans-serif">OBSERVED</text></g><g class="relationship" transform="translate(-433.3340921232788 92.01496148522075) rotate(438.8394228411331)"><path class="b-outline" fill="#A5ABB6" stroke="none" d="M 25 0.5 L 42.90018217225874 0.5 L 42.90018217225874 -0.5 L 25 -0.5 Z M 93.21268217225874 0.5 L 111.11286434451748 0.5 L 111.11286434451748 3.5 L 118.11286434451748 0 L 111.11286434451748 -3.5 L 111.11286434451748 -0.5 L 93.21268217225874 -0.5 Z"/><text text-anchor="middle" pointer-events="none" font-size="8px" fill="#000000" x="68.05643217225874" y="3" font-family="Helvetica Neue, Helvetica, Arial, sans-serif">OBSERVED</text></g><g class="relationship" transform="translate(-406.2197440534407 376.2853381678876) rotate(270.23357432425223)"><path class="b-outline" fill="#A5ABB6" stroke="none" d="M 25 0.5 L 43.27633851428929 0.5 L 43.27633851428929 -0.5 L 25 -0.5 Z M 93.5888385142893 0.5 L 111.86517702857859 0.5 L 111.86517702857859 3.5 L 118.86517702857859 0 L 111.86517702857859 -3.5 L 111.86517702857859 -0.5 L 93.5888385142893 -0.5 Z"/><text text-anchor="middle" pointer-events="none" font-size="8px" fill="#000000" x="68.4325885142893" y="3" font-family="Helvetica Neue, Helvetica, Arial, sans-serif">OBSERVED</text></g><g class="relationship" transform="translate(-277.76921904086646 163.27197022446236) rotate(511.5952992780992)"><path class="b-outline" fill="#A5ABB6" stroke="none" d="M 25 0.5 L 44.02602147700293 0.5 L 44.02602147700293 -0.5 L 25 -0.5 Z M 94.33852147700293 0.5 L 113.36454295400586 0.5 L 113.36454295400586 3.5 L 120.36454295400586 0 L 113.36454295400586 -3.5 L 113.36454295400586 -0.5 L 94.33852147700293 -0.5 Z"/><text text-anchor="middle" pointer-events="none" font-size="8px" fill="#000000" x="69.18227147700293" y="3" transform="rotate(180 69.18227147700293 0)" font-family="Helvetica Neue, Helvetica, Arial, sans-serif">OBSERVED</text></g><g class="relationship" transform="translate(-284.45595121659017 312.8626272771036) rotate(213.57744551179383)"><path class="b-outline" fill="#A5ABB6" stroke="none" d="M 25 0.5 L 44.067092111729124 0.5 L 44.067092111729124 -0.5 L 25 -0.5 Z M 94.37959211172912 0.5 L 113.44668422345825 0.5 L 113.44668422345825 3.5 L 120.44668422345825 0 L 113.44668422345825 -3.5 L 113.44668422345825 -0.5 L 94.37959211172912 -0.5 Z"/><text text-anchor="middle" pointer-events="none" font-size="8px" fill="#000000" x="69.22334211172912" y="3" transform="rotate(180 69.22334211172912 0)" font-family="Helvetica Neue, Helvetica, Arial, sans-serif">OBSERVED</text></g></g><g class="layer nodes"><g class="node" aria-label="graph-node2830" transform="translate(-45.959362263616015,427.63502216335434)" style="touch-action: none; -webkit-tap-highlight-color: rgba(0, 0, 0, 0);"><circle class="b-outline" cx="0" cy="0" r="25" fill="#C990C0" stroke="#b261a5" stroke-width="2px"/><text class="caption" text-anchor="middle" pointer-events="none" x="0" y="5" font-size="10px" fill="#FFFFFF" font-family="Helvetica Neue, Helvetica, Arial, sans-serif"> 1112064</text></g><g class="node" aria-label="graph-node2884" transform="translate(93.95826098151277,388.8451941895271)" style="touch-action: none; -webkit-tap-highlight-color: rgba(0, 0, 0, 0);"><circle class="b-outline" cx="0" cy="0" r="25" fill="#F79767" stroke="#f36924" stroke-width="2px"/><text class="caption" text-anchor="middle" pointer-events="none" x="0" y="5" font-size="10px" fill="#FFFFFF" font-family="Helvetica Neue, Helvetica, Arial, sans-serif"> Hospital…</text></g><g class="node" aria-label="graph-node2834" transform="translate(-0.15826820330454383,276.7675313569993)" style="touch-action: none; -webkit-tap-highlight-color: rgba(0, 0, 0, 0);"><circle class="b-outline" cx="0" cy="0" r="25" fill="#C990C0" stroke="#b261a5" stroke-width="2px"/><text class="caption" text-anchor="middle" pointer-events="none" x="0" y="5" font-size="10px" fill="#FFFFFF" font-family="Helvetica Neue, Helvetica, Arial, sans-serif"> 1112071</text></g><g class="node" aria-label="graph-node2846" transform="translate(132.2110085554552,527.7508111360393)" style="touch-action: none; -webkit-tap-highlight-color: rgba(0, 0, 0, 0);"><circle class="b-outline" cx="0" cy="0" r="25" fill="#C990C0" stroke="#b261a5" stroke-width="2px"/><text class="caption" text-anchor="middle" pointer-events="none" x="0" y="5" font-size="10px" fill="#FFFFFF" font-family="Helvetica Neue, Helvetica, Arial, sans-serif"> 1112071</text></g><g class="node" aria-label="graph-node2855" transform="translate(217.0624461406095,307.8418076688311)" style="touch-action: none; -webkit-tap-highlight-color: rgba(0, 0, 0, 0);"><circle class="b-outline" cx="0" cy="0" r="25" fill="#C990C0" stroke="#b261a5" stroke-width="2px"/><text class="caption" text-anchor="middle" pointer-events="none" x="0" y="5" font-size="10px" fill="#FFFFFF" font-family="Helvetica Neue, Helvetica, Arial, sans-serif"> 1112064</text></g><g class="node" aria-label="graph-node2856" transform="translate(238.50758753110642,415.8807426332926)" style="touch-action: none; -webkit-tap-highlight-color: rgba(0, 0, 0, 0);"><circle class="b-outline" cx="0" cy="0" r="25" fill="#C990C0" stroke="#b261a5" stroke-width="2px"/><text class="caption" text-anchor="middle" pointer-events="none" x="0" y="5" font-size="10px" fill="#FFFFFF" font-family="Helvetica Neue, Helvetica, Arial, sans-serif"> 1112064</text></g><g class="node" aria-label="graph-node2864" transform="translate(114.1204517462295,243.88745139385827)" style="touch-action: none; -webkit-tap-highlight-color: rgba(0, 0, 0, 0);"><circle class="b-outline" cx="0" cy="0" r="25" fill="#C990C0" stroke="#b261a5" stroke-width="2px"/><text class="caption" text-anchor="middle" pointer-events="none" x="0" y="5" font-size="10px" fill="#FFFFFF" font-family="Helvetica Neue, Helvetica, Arial, sans-serif"> 1112071</text></g><g class="node" aria-label="graph-node2831" transform="translate(462.9547743431823,-78.35094948501454)" style="touch-action: none; -webkit-tap-highlight-color: rgba(0, 0, 0, 0);"><circle class="b-outline" cx="0" cy="0" r="25" fill="#C990C0" stroke="#b261a5" stroke-width="2px"/><text class="caption" text-anchor="middle" pointer-events="none" x="0" y="5" font-size="10px" fill="#FFFFFF" font-family="Helvetica Neue, Helvetica, Arial, sans-serif"> 1112065</text></g><g class="node" aria-label="graph-node2885" transform="translate(337.5903681247859,-158.0117216355065)" style="touch-action: none; -webkit-tap-highlight-color: rgba(0, 0, 0, 0);"><circle class="b-outline" cx="0" cy="0" r="25" fill="#F79767" stroke="#f36924" stroke-width="2px"/><text class="caption" text-anchor="middle" pointer-events="none" x="0" y="5" font-size="10px" fill="#FFFFFF" font-family="Helvetica Neue, Helvetica, Arial, sans-serif"> admit_into</text></g><g class="node" aria-label="graph-node2847" transform="translate(377.66297304949256,-14.361558844146117)" style="touch-action: none; -webkit-tap-highlight-color: rgba(0, 0, 0, 0);"><circle class="b-outline" cx="0" cy="0" r="25" fill="#C990C0" stroke="#b261a5" stroke-width="2px"/><text class="caption" text-anchor="middle" pointer-events="none" x="0" y="5" font-size="10px" fill="#FFFFFF" font-family="Helvetica Neue, Helvetica, Arial, sans-serif"> 1112072</text></g><g class="node" aria-label="graph-node2848" transform="translate(264.02443584720174,-29.51519828732561)" style="touch-action: none; -webkit-tap-highlight-color: rgba(0, 0, 0, 0);"><circle class="b-outline" cx="0" cy="0" r="25" fill="#C990C0" stroke="#b261a5" stroke-width="2px"/><text class="caption" text-anchor="middle" pointer-events="none" x="0" y="5" font-size="10px" fill="#FFFFFF" font-family="Helvetica Neue, Helvetica, Arial, sans-serif"> 1112072</text></g><g class="node" aria-label="graph-node2857" transform="translate(477.3743525427708,-203.3135977499651)" style="touch-action: none; -webkit-tap-highlight-color: rgba(0, 0, 0, 0);"><circle class="b-outline" cx="0" cy="0" r="25" fill="#C990C0" stroke="#b261a5" stroke-width="2px"/><text class="caption" text-anchor="middle" pointer-events="none" x="0" y="5" font-size="10px" fill="#FFFFFF" font-family="Helvetica Neue, Helvetica, Arial, sans-serif"> 1112065</text></g><g class="node" aria-label="graph-node2858" transform="translate(210.57884845774103,-234.44629951831476)" style="touch-action: none; -webkit-tap-highlight-color: rgba(0, 0, 0, 0);"><circle class="b-outline" cx="0" cy="0" r="25" fill="#C990C0" stroke="#b261a5" stroke-width="2px"/><text class="caption" text-anchor="middle" pointer-events="none" x="0" y="5" font-size="10px" fill="#FFFFFF" font-family="Helvetica Neue, Helvetica, Arial, sans-serif"> 1112065</text></g><g class="node" aria-label="graph-node2865" transform="translate(388.61574919046035,-297.51478866224636)" style="touch-action: none; -webkit-tap-highlight-color: rgba(0, 0, 0, 0);"><circle class="b-outline" cx="0" cy="0" r="25" fill="#C990C0" stroke="#b261a5" stroke-width="2px"/><text class="caption" text-anchor="middle" pointer-events="none" x="0" y="5" font-size="10px" fill="#FFFFFF" font-family="Helvetica Neue, Helvetica, Arial, sans-serif"> 1112072</text></g><g class="node" aria-label="graph-node2866" transform="translate(287.86371933547014,-298.94838413116224)" style="touch-action: none; -webkit-tap-highlight-color: rgba(0, 0, 0, 0);"><circle class="b-outline" cx="0" cy="0" r="25" fill="#C990C0" stroke="#b261a5" stroke-width="2px"/><text class="caption" text-anchor="middle" pointer-events="none" x="0" y="5" font-size="10px" fill="#FFFFFF" font-family="Helvetica Neue, Helvetica, Arial, sans-serif"> 1112072</text></g><g class="node" aria-label="graph-node2867" transform="translate(193.58946939490878,-123.97957657414359)" style="touch-action: none; -webkit-tap-highlight-color: rgba(0, 0, 0, 0);"><circle class="b-outline" cx="0" cy="0" r="25" fill="#C990C0" stroke="#b261a5" stroke-width="2px"/><text class="caption" text-anchor="middle" pointer-events="none" x="0" y="5" font-size="10px" fill="#FFFFFF" font-family="Helvetica Neue, Helvetica, Arial, sans-serif"> 1112072</text></g><g class="node" aria-label="graph-node2832" transform="translate(-205.19219893396797,-456.12038538249465)" style="touch-action: none; -webkit-tap-highlight-color: rgba(0, 0, 0, 0);"><circle class="b-outline" cx="0" cy="0" r="25" fill="#C990C0" stroke="#b261a5" stroke-width="2px"/><text class="caption" text-anchor="middle" pointer-events="none" x="0" y="5" font-size="10px" fill="#FFFFFF" font-family="Helvetica Neue, Helvetica, Arial, sans-serif"> 1112067</text></g><g class="node" aria-label="graph-node2886" transform="translate(-254.13922573946726,-317.7363012738497)" style="touch-action: none; -webkit-tap-highlight-color: rgba(0, 0, 0, 0);"><circle class="b-outline" cx="0" cy="0" r="25" fill="#F79767" stroke="#f36924" stroke-width="2px"/><text class="caption" text-anchor="middle" pointer-events="none" x="0" y="5" font-size="10px" fill="#FFFFFF" font-family="Helvetica Neue, Helvetica, Arial, sans-serif"> Discharg…</text></g><g class="node" aria-label="graph-node2851" transform="translate(-116.19673939554436,-370.1760673716032)" style="touch-action: none; -webkit-tap-highlight-color: rgba(0, 0, 0, 0);"><circle class="b-outline" cx="0" cy="0" r="25" fill="#C990C0" stroke="#b261a5" stroke-width="2px"/><text class="caption" text-anchor="middle" pointer-events="none" x="0" y="5" font-size="10px" fill="#FFFFFF" font-family="Helvetica Neue, Helvetica, Arial, sans-serif"> 1112075</text></g><g class="node" aria-label="graph-node2853" transform="translate(-329.2139592092042,-189.92554784032248)" style="touch-action: none; -webkit-tap-highlight-color: rgba(0, 0, 0, 0);"><circle class="b-outline" cx="0" cy="0" r="25" fill="#C990C0" stroke="#b261a5" stroke-width="2px"/><text class="caption" text-anchor="middle" pointer-events="none" x="0" y="5" font-size="10px" fill="#FFFFFF" font-family="Helvetica Neue, Helvetica, Arial, sans-serif"> 1112075</text></g><g class="node" aria-label="graph-node2859" transform="translate(-375.3401733312614,-398.1427696887171)" style="touch-action: none; -webkit-tap-highlight-color: rgba(0, 0, 0, 0);"><circle class="b-outline" cx="0" cy="0" r="25" fill="#C990C0" stroke="#b261a5" stroke-width="2px"/><text class="caption" text-anchor="middle" pointer-events="none" x="0" y="5" font-size="10px" fill="#FFFFFF" font-family="Helvetica Neue, Helvetica, Arial, sans-serif"> 1112067</text></g><g class="node" aria-label="graph-node2861" transform="translate(-128.76424339263065,-240.7995946446043)" style="touch-action: none; -webkit-tap-highlight-color: rgba(0, 0, 0, 0);"><circle class="b-outline" cx="0" cy="0" r="25" fill="#C990C0" stroke="#b261a5" stroke-width="2px"/><text class="caption" text-anchor="middle" pointer-events="none" x="0" y="5" font-size="10px" fill="#FFFFFF" font-family="Helvetica Neue, Helvetica, Arial, sans-serif"> 1112067</text></g><g class="node" aria-label="graph-node2871" transform="translate(-394.94830333313286,-272.58653780764837)" style="touch-action: none; -webkit-tap-highlight-color: rgba(0, 0, 0, 0);"><circle class="b-outline" cx="0" cy="0" r="25" fill="#C990C0" stroke="#b261a5" stroke-width="2px"/><text class="caption" text-anchor="middle" pointer-events="none" x="0" y="5" font-size="10px" fill="#FFFFFF" font-family="Helvetica Neue, Helvetica, Arial, sans-serif"> 1112075</text></g><g class="node" aria-label="graph-node2874" transform="translate(-220.3519932105678,-173.63994805815693)" style="touch-action: none; -webkit-tap-highlight-color: rgba(0, 0, 0, 0);"><circle class="b-outline" cx="0" cy="0" r="25" fill="#C990C0" stroke="#b261a5" stroke-width="2px"/><text class="caption" text-anchor="middle" pointer-events="none" x="0" y="5" font-size="10px" fill="#FFFFFF" font-family="Helvetica Neue, Helvetica, Arial, sans-serif"> 1112075</text></g><g class="node" aria-label="graph-node2833" transform="translate(-433.3340921232788,92.01496148522075)" style="touch-action: none; -webkit-tap-highlight-color: rgba(0, 0, 0, 0);"><circle class="b-outline" cx="0" cy="0" r="25" fill="#C990C0" stroke="#b261a5" stroke-width="2px"/><text class="caption" text-anchor="middle" pointer-events="none" x="0" y="5" font-size="10px" fill="#FFFFFF" font-family="Helvetica Neue, Helvetica, Arial, sans-serif"> 1112066</text></g><g class="node" aria-label="graph-node2887" transform="translate(-405.6332589978535,232.42135658547818)" style="touch-action: none; -webkit-tap-highlight-color: rgba(0, 0, 0, 0);"><circle class="b-outline" cx="0" cy="0" r="25" fill="#F79767" stroke="#f36924" stroke-width="2px"/><text class="caption" text-anchor="middle" pointer-events="none" x="0" y="5" font-size="10px" fill="#FFFFFF" font-family="Helvetica Neue, Helvetica, Arial, sans-serif"> ABG_Test</text></g><g class="node" aria-label="graph-node2860" transform="translate(-406.2197440534407,376.2853381678876)" style="touch-action: none; -webkit-tap-highlight-color: rgba(0, 0, 0, 0);"><circle class="b-outline" cx="0" cy="0" r="25" fill="#C990C0" stroke="#b261a5" stroke-width="2px"/><text class="caption" text-anchor="middle" pointer-events="none" x="0" y="5" font-size="10px" fill="#FFFFFF" font-family="Helvetica Neue, Helvetica, Arial, sans-serif"> 1112066</text></g><g class="node" aria-label="graph-node2862" transform="translate(-277.76921904086646,163.27197022446236)" style="touch-action: none; -webkit-tap-highlight-color: rgba(0, 0, 0, 0);"><circle class="b-outline" cx="0" cy="0" r="25" fill="#C990C0" stroke="#b261a5" stroke-width="2px"/><text class="caption" text-anchor="middle" pointer-events="none" x="0" y="5" font-size="10px" fill="#FFFFFF" font-family="Helvetica Neue, Helvetica, Arial, sans-serif"> 1112066</text></g><g class="node" aria-label="graph-node2863" transform="translate(-284.45595121659017,312.8626272771036)" style="touch-action: none; -webkit-tap-highlight-color: rgba(0, 0, 0, 0);"><circle class="b-outline" cx="0" cy="0" r="25" fill="#C990C0" stroke="#b261a5" stroke-width="2px"/><text class="caption" text-anchor="middle" pointer-events="none" x="0" y="5" font-size="10px" fill="#FFFFFF" font-family="Helvetica Neue, Helvetica, Arial, sans-serif"> 1112066</text></g></g></svg>