<svg xmlns="http://www.w3.org/2000/svg" width="523.5496826171875" height="529.2294311523438" viewBox="-286.96136474609375 -364.24700927734375 523.5496826171875 529.2294311523438"><title>Neo4j Graph Visualization</title><desc>Created using Neo4j (http://www.neo4j.com/)</desc><g class="layer relationships"><g class="relationship" transform="translate(-44.05788293937632 -136.67898193620312) rotate(467.982101788087)"><path class="b-outline" fill="#A5ABB6" stroke="none" d="M 25 0.5 L 128.60739158073238 0.5 L 128.60739158073238 -0.5 L 25 -0.5 Z M 151.05661033073238 0.5 L 254.66400191146477 0.5 L 254.66400191146477 3.5 L 261.66400191146477 0 L 254.66400191146477 -3.5 L 254.66400191146477 -0.5 L 151.05661033073238 -0.5 Z"/><text text-anchor="middle" pointer-events="none" font-size="8px" fill="#000000" x="139.83200095573238" y="3" transform="rotate(180 139.83200095573238 0)" font-family="Helvetica Neue, Helvetica, Arial, sans-serif">HAS</text></g><g class="relationship" transform="translate(-44.05788293937632 -136.67898193620312) rotate(448.44907807798637)"><path class="b-outline" fill="#A5ABB6" stroke="none" d="M 25 0.5 L 115.21938706125638 0.5 L 115.21938706125638 -0.5 L 25 -0.5 Z M 137.66860581125638 0.5 L 227.88799287251277 0.5 L 227.88799287251277 3.5 L 234.88799287251277 0 L 227.88799287251277 -3.5 L 227.88799287251277 -0.5 L 137.66860581125638 -0.5 Z"/><text text-anchor="middle" pointer-events="none" font-size="8px" fill="#000000" x="126.44399643625638" y="3" font-family="Helvetica Neue, Helvetica, Arial, sans-serif">HAS</text></g><g class="relationship" transform="translate(-44.05788293937632 -136.67898193620312) rotate(407.44309765383935)"><path class="b-outline" fill="#A5ABB6" stroke="none" d="M 25 0.5 L 88.95380015496158 0.5 L 88.95380015496158 -0.5 L 25 -0.5 Z M 111.40301890496158 0.5 L 175.35681905992317 0.5 L 175.35681905992317 3.5 L 182.35681905992317 0 L 175.35681905992317 -3.5 L 175.35681905992317 -0.5 L 111.40301890496158 -0.5 Z"/><text text-anchor="middle" pointer-events="none" font-size="8px" fill="#000000" x="100.17840952996158" y="3" font-family="Helvetica Neue, Helvetica, Arial, sans-serif">HAS</text></g><g class="relationship" transform="translate(-44.05788293937632 -136.67898193620312) rotate(435.58366126265736)"><path class="b-outline" fill="#A5ABB6" stroke="none" d="M 25 0.5 L 73.97178009427874 0.5 L 73.97178009427874 -0.5 L 25 -0.5 Z M 96.42099884427874 0.5 L 145.39277893855748 0.5 L 145.39277893855748 3.5 L 152.39277893855748 0 L 145.39277893855748 -3.5 L 145.39277893855748 -0.5 L 96.42099884427874 -0.5 Z"/><text text-anchor="middle" pointer-events="none" font-size="8px" fill="#000000" x="85.19638946927874" y="3" font-family="Helvetica Neue, Helvetica, Arial, sans-serif">HAS</text></g><g class="relationship" transform="translate(-44.05788293937632 -136.67898193620312) rotate(407.0653000281375)"><path class="b-outline" fill="#A5ABB6" stroke="none" d="M 25 0.5 L 40.500487761897574 0.5 L 40.500487761897574 -0.5 L 25 -0.5 Z M 62.949706511897574 0.5 L 78.45019427379515 0.5 L 78.45019427379515 3.5 L 85.45019427379515 0 L 78.45019427379515 -3.5 L 78.45019427379515 -0.5 L 62.949706511897574 -0.5 Z"/><text text-anchor="middle" pointer-events="none" font-size="8px" fill="#000000" x="51.725097136897574" y="3" font-family="Helvetica Neue, Helvetica, Arial, sans-serif">HAS</text></g><g class="relationship" transform="translate(-44.05788293937632 -136.67898193620312) rotate(385.4321241387394)"><path class="b-outline" fill="#A5ABB6" stroke="none" d="M 25 0.5 L 108.96491719606524 0.5 L 108.96491719606524 -0.5 L 25 -0.5 Z M 131.41413594606524 0.5 L 215.3790531421305 0.5 L 215.3790531421305 3.5 L 222.3790531421305 0 L 215.3790531421305 -3.5 L 215.3790531421305 -0.5 L 131.41413594606524 -0.5 Z"/><text text-anchor="middle" pointer-events="none" font-size="8px" fill="#000000" x="120.18952657106524" y="3" font-family="Helvetica Neue, Helvetica, Arial, sans-serif">HAS</text></g><g class="relationship" transform="translate(-44.05788293937632 -136.67898193620312) rotate(426.6889294614534)"><path class="b-outline" fill="#A5ABB6" stroke="none" d="M 25 0.5 L 117.51353832398928 0.5 L 117.51353832398928 -0.5 L 25 -0.5 Z M 139.96275707398928 0.5 L 232.47629539797856 0.5 L 232.47629539797856 3.5 L 239.47629539797856 0 L 232.47629539797856 -3.5 L 232.47629539797856 -0.5 L 139.96275707398928 -0.5 Z"/><text text-anchor="middle" pointer-events="none" font-size="8px" fill="#000000" x="128.73814769898928" y="3" font-family="Helvetica Neue, Helvetica, Arial, sans-serif">HAS</text></g><g class="relationship" transform="translate(-44.05788293937632 -136.67898193620312) rotate(362.3527906008487)"><path class="b-outline" fill="#A5ABB6" stroke="none" d="M 25 0.5 L 111.2046126676248 0.5 L 111.2046126676248 -0.5 L 25 -0.5 Z M 133.65383141762482 0.5 L 219.8584440852496 0.5 L 219.8584440852496 3.5 L 226.8584440852496 0 L 219.8584440852496 -3.5 L 219.8584440852496 -0.5 L 133.65383141762482 -0.5 Z"/><text text-anchor="middle" pointer-events="none" font-size="8px" fill="#000000" x="122.4292220426248" y="3" font-family="Helvetica Neue, Helvetica, Arial, sans-serif">HAS</text></g><g class="relationship" transform="translate(-44.05788293937632 -136.67898193620312) rotate(461.1270885600137)"><path class="b-outline" fill="#A5ABB6" stroke="none" d="M 25 0.5 L 33.43774139160521 0.5 L 33.43774139160521 -0.5 L 25 -0.5 Z M 55.88696014160521 0.5 L 64.32470153321042 0.5 L 64.32470153321042 3.5 L 71.32470153321042 0 L 64.32470153321042 -3.5 L 64.32470153321042 -0.5 L 55.88696014160521 -0.5 Z"/><text text-anchor="middle" pointer-events="none" font-size="8px" fill="#000000" x="44.66235076660521" y="3" transform="rotate(180 44.66235076660521 0)" font-family="Helvetica Neue, Helvetica, Arial, sans-serif">HAS</text></g><g class="relationship" transform="translate(-44.05788293937632 -136.67898193620312) rotate(372.5202007139707)"><path class="b-outline" fill="#A5ABB6" stroke="none" d="M 25 0.5 L 66.46971730233263 0.5 L 66.46971730233263 -0.5 L 25 -0.5 Z M 88.91893605233263 0.5 L 130.38865335466525 0.5 L 130.38865335466525 3.5 L 137.38865335466525 0 L 130.38865335466525 -3.5 L 130.38865335466525 -0.5 L 88.91893605233263 -0.5 Z"/><text text-anchor="middle" pointer-events="none" font-size="8px" fill="#000000" x="77.69432667733263" y="3" font-family="Helvetica Neue, Helvetica, Arial, sans-serif">HAS</text></g><g class="relationship" transform="translate(-44.05788293937632 -136.67898193620312) rotate(338.2844102682841)"><path class="b-outline" fill="#A5ABB6" stroke="none" d="M 25 0.5 L 34.62486752010025 0.5 L 34.62486752010025 -0.5 L 25 -0.5 Z M 57.07408627010025 0.5 L 66.6989537902005 0.5 L 66.6989537902005 3.5 L 73.6989537902005 0 L 66.6989537902005 -3.5 L 66.6989537902005 -0.5 L 57.07408627010025 -0.5 Z"/><text text-anchor="middle" pointer-events="none" font-size="8px" fill="#000000" x="45.84947689510025" y="3" font-family="Helvetica Neue, Helvetica, Arial, sans-serif">HAS</text></g><g class="relationship" transform="translate(-44.05788293937632 -136.67898193620312) rotate(311.76057466111257)"><path class="b-outline" fill="#A5ABB6" stroke="none" d="M 25 0.5 L 73.67808600789074 0.5 L 73.67808600789074 -0.5 L 25 -0.5 Z M 96.12730475789074 0.5 L 144.80539076578148 0.5 L 144.80539076578148 3.5 L 151.80539076578148 0 L 144.80539076578148 -3.5 L 144.80539076578148 -0.5 L 96.12730475789074 -0.5 Z"/><text text-anchor="middle" pointer-events="none" font-size="8px" fill="#000000" x="84.90269538289074" y="3" font-family="Helvetica Neue, Helvetica, Arial, sans-serif">HAS</text></g><g class="relationship" transform="translate(-44.05788293937632 -136.67898193620312) rotate(341.72942321067194)"><path class="b-outline" fill="#A5ABB6" stroke="none" d="M 25 0.5 L 82.85556529669994 0.5 L 82.85556529669994 -0.5 L 25 -0.5 Z M 105.30478404669994 0.5 L 163.16034934339987 0.5 L 163.16034934339987 3.5 L 170.16034934339987 0 L 163.16034934339987 -3.5 L 163.16034934339987 -0.5 L 105.30478404669994 -0.5 Z"/><text text-anchor="middle" pointer-events="none" font-size="8px" fill="#000000" x="94.08017467169994" y="3" font-family="Helvetica Neue, Helvetica, Arial, sans-serif">HAS</text></g><g class="relationship" transform="translate(-44.05788293937632 -136.67898193620312) rotate(280.48537144636384)"><path class="b-outline" fill="#A5ABB6" stroke="none" d="M 25 0.5 L 38.70424206452928 0.5 L 38.70424206452928 -0.5 L 25 -0.5 Z M 61.15346081452928 0.5 L 74.85770287905856 0.5 L 74.85770287905856 3.5 L 81.85770287905856 0 L 74.85770287905856 -3.5 L 74.85770287905856 -0.5 L 61.15346081452928 -0.5 Z"/><text text-anchor="middle" pointer-events="none" font-size="8px" fill="#000000" x="49.92885143952928" y="3" font-family="Helvetica Neue, Helvetica, Arial, sans-serif">HAS</text></g><g class="relationship" transform="translate(-44.05788293937632 -136.67898193620312) rotate(283.1457271588562)"><path class="b-outline" fill="#A5ABB6" stroke="none" d="M 25 0.5 L 87.23118687450524 0.5 L 87.23118687450524 -0.5 L 25 -0.5 Z M 109.68040562450524 0.5 L 171.91159249901048 0.5 L 171.91159249901048 3.5 L 178.91159249901048 0 L 171.91159249901048 -3.5 L 171.91159249901048 -0.5 L 109.68040562450524 -0.5 Z"/><text text-anchor="middle" pointer-events="none" font-size="8px" fill="#000000" x="98.45579624950524" y="3" font-family="Helvetica Neue, Helvetica, Arial, sans-serif">HAS</text></g><g class="relationship" transform="translate(-44.05788293937632 -136.67898193620312) rotate(227.275648954509)"><path class="b-outline" fill="#A5ABB6" stroke="none" d="M 25 0.5 L 91.83168854491781 0.5 L 91.83168854491781 -0.5 L 25 -0.5 Z M 114.28090729491781 0.5 L 181.11259583983562 0.5 L 181.11259583983562 3.5 L 188.11259583983562 0 L 181.11259583983562 -3.5 L 181.11259583983562 -0.5 L 114.28090729491781 -0.5 Z"/><text text-anchor="middle" pointer-events="none" font-size="8px" fill="#000000" x="103.05629791991781" y="3" transform="rotate(180 103.05629791991781 0)" font-family="Helvetica Neue, Helvetica, Arial, sans-serif">HAS</text></g><g class="relationship" transform="translate(-44.05788293937632 -136.67898193620312) rotate(254.71454574247656)"><path class="b-outline" fill="#A5ABB6" stroke="none" d="M 25 0.5 L 76.79063653832165 0.5 L 76.79063653832165 -0.5 L 25 -0.5 Z M 99.23985528832165 0.5 L 151.0304918266433 0.5 L 151.0304918266433 3.5 L 158.0304918266433 0 L 151.0304918266433 -3.5 L 151.0304918266433 -0.5 L 99.23985528832165 -0.5 Z"/><text text-anchor="middle" pointer-events="none" font-size="8px" fill="#000000" x="88.01524591332165" y="3" transform="rotate(180 88.01524591332165 0)" font-family="Helvetica Neue, Helvetica, Arial, sans-serif">HAS</text></g><g class="relationship" transform="translate(-44.05788293937632 -136.67898193620312) rotate(226.9539233198583)"><path class="b-outline" fill="#A5ABB6" stroke="none" d="M 25 0.5 L 42.76566889864359 0.5 L 42.76566889864359 -0.5 L 25 -0.5 Z M 65.21488764864358 0.5 L 82.98055654728718 0.5 L 82.98055654728718 3.5 L 89.98055654728718 0 L 82.98055654728718 -3.5 L 82.98055654728718 -0.5 L 65.21488764864358 -0.5 Z"/><text text-anchor="middle" pointer-events="none" font-size="8px" fill="#000000" x="53.99027827364359" y="3" transform="rotate(180 53.99027827364359 0)" font-family="Helvetica Neue, Helvetica, Arial, sans-serif">HAS</text></g><g class="relationship" transform="translate(-44.05788293937632 -136.67898193620312) rotate(200.53900430321283)"><path class="b-outline" fill="#A5ABB6" stroke="none" d="M 25 0.5 L 78.27433624865735 0.5 L 78.27433624865735 -0.5 L 25 -0.5 Z M 100.72355499865735 0.5 L 153.9978912473147 0.5 L 153.9978912473147 3.5 L 160.9978912473147 0 L 153.9978912473147 -3.5 L 153.9978912473147 -0.5 L 100.72355499865735 -0.5 Z"/><text text-anchor="middle" pointer-events="none" font-size="8px" fill="#000000" x="89.49894562365735" y="3" transform="rotate(180 89.49894562365735 0)" font-family="Helvetica Neue, Helvetica, Arial, sans-serif">HAS</text></g><g class="relationship" transform="translate(-44.05788293937632 -136.67898193620312) rotate(532.5343279653569)"><path class="b-outline" fill="#A5ABB6" stroke="none" d="M 25 0.5 L 88.81765151427 0.5 L 88.81765151427 -0.5 L 25 -0.5 Z M 111.26687026427 0.5 L 175.08452177854 0.5 L 175.08452177854 3.5 L 182.08452177854 0 L 175.08452177854 -3.5 L 175.08452177854 -0.5 L 111.26687026427 -0.5 Z"/><text text-anchor="middle" pointer-events="none" font-size="8px" fill="#000000" x="100.04226088927" y="3" transform="rotate(180 100.04226088927 0)" font-family="Helvetica Neue, Helvetica, Arial, sans-serif">HAS</text></g><g class="relationship" transform="translate(-44.05788293937632 -136.67898193620312) rotate(534.7896264059173)"><path class="b-outline" fill="#A5ABB6" stroke="none" d="M 25 0.5 L 40.88121523895478 0.5 L 40.88121523895478 -0.5 L 25 -0.5 Z M 63.33043398895478 0.5 L 79.21164922790956 0.5 L 79.21164922790956 3.5 L 86.21164922790956 0 L 79.21164922790956 -3.5 L 79.21164922790956 -0.5 L 63.33043398895478 -0.5 Z"/><text text-anchor="middle" pointer-events="none" font-size="8px" fill="#000000" x="52.10582461395478" y="3" transform="rotate(180 52.10582461395478 0)" font-family="Helvetica Neue, Helvetica, Arial, sans-serif">HAS</text></g><g class="relationship" transform="translate(-44.05788293937632 -136.67898193620312) rotate(510.03986034630583)"><path class="b-outline" fill="#A5ABB6" stroke="none" d="M 25 0.5 L 108.72307577127914 0.5 L 108.72307577127914 -0.5 L 25 -0.5 Z M 131.17229452127913 0.5 L 214.89537029255828 0.5 L 214.89537029255828 3.5 L 221.89537029255828 0 L 214.89537029255828 -3.5 L 214.89537029255828 -0.5 L 131.17229452127913 -0.5 Z"/><text text-anchor="middle" pointer-events="none" font-size="8px" fill="#000000" x="119.94768514627914" y="3" transform="rotate(180 119.94768514627914 0)" font-family="Helvetica Neue, Helvetica, Arial, sans-serif">HAS</text></g><g class="relationship" transform="translate(-44.05788293937632 -136.67898193620312) rotate(497.49346532949954)"><path class="b-outline" fill="#A5ABB6" stroke="none" d="M 25 0.5 L 64.42082473546635 0.5 L 64.42082473546635 -0.5 L 25 -0.5 Z M 86.87004348546635 0.5 L 126.29086822093271 0.5 L 126.29086822093271 3.5 L 133.2908682209327 0 L 126.29086822093271 -3.5 L 126.29086822093271 -0.5 L 86.87004348546635 -0.5 Z"/><text text-anchor="middle" pointer-events="none" font-size="8px" fill="#000000" x="75.64543411046635" y="3" transform="rotate(180 75.64543411046635 0)" font-family="Helvetica Neue, Helvetica, Arial, sans-serif">HAS</text></g><g class="relationship" transform="translate(-44.05788293937632 -136.67898193620312) rotate(486.9914689023415)"><path class="b-outline" fill="#A5ABB6" stroke="none" d="M 25 0.5 L 109.66388305802703 0.5 L 109.66388305802703 -0.5 L 25 -0.5 Z M 132.113101808027 0.5 L 216.77698486605405 0.5 L 216.77698486605405 3.5 L 223.77698486605405 0 L 216.77698486605405 -3.5 L 216.77698486605405 -0.5 L 132.113101808027 -0.5 Z"/><text text-anchor="middle" pointer-events="none" font-size="8px" fill="#000000" x="120.88849243302703" y="3" transform="rotate(180 120.88849243302703 0)" font-family="Helvetica Neue, Helvetica, Arial, sans-serif">HAS</text></g><g class="relationship" transform="translate(-44.05788293937632 -136.67898193620312) rotate(465.96713202833394)"><path class="b-outline" fill="#A5ABB6" stroke="none" d="M 25 0.5 L 81.34711019917575 0.5 L 81.34711019917575 -0.5 L 25 -0.5 Z M 103.79632894917575 0.5 L 160.1434391483515 0.5 L 160.1434391483515 3.5 L 167.1434391483515 0 L 160.1434391483515 -3.5 L 160.1434391483515 -0.5 L 103.79632894917575 -0.5 Z"/><text text-anchor="middle" pointer-events="none" font-size="8px" fill="#000000" x="92.57171957417575" y="3" transform="rotate(180 92.57171957417575 0)" font-family="Helvetica Neue, Helvetica, Arial, sans-serif">HAS</text></g></g><g class="layer nodes"><g class="node" aria-label="graph-node2829" transform="translate(-44.05788293937632,-136.67898193620312)" style="touch-action: none; -webkit-tap-highlight-color: rgba(0, 0, 0, 0);"><circle class="b-outline" cx="0" cy="0" r="25" fill="#C990C0" stroke="#b261a5" stroke-width="2px"/><text class="caption" text-anchor="middle" pointer-events="none" x="0" y="5" font-size="10px" fill="#FFFFFF" font-family="Helvetica Neue, Helvetica, Arial, sans-serif"> EventLog</text></g><g class="node" aria-label="graph-node2830" transform="translate(-132.5567608361178,135.98234389295425)" style="touch-action: none; -webkit-tap-highlight-color: rgba(0, 0, 0, 0);"><circle class="b-outline" cx="0" cy="0" r="25" fill="#F79767" stroke="#f36924" stroke-width="2px"/><text class="caption" text-anchor="middle" pointer-events="none" x="0" y="5" font-size="10px" fill="#FFFFFF" font-family="Helvetica Neue, Helvetica, Arial, sans-serif"> 1112064</text></g><g class="node" aria-label="graph-node2831" transform="translate(-37.02391344608694,123.11380493916558)" style="touch-action: none; -webkit-tap-highlight-color: rgba(0, 0, 0, 0);"><circle class="b-outline" cx="0" cy="0" r="25" fill="#F79767" stroke="#f36924" stroke-width="2px"/><text class="caption" text-anchor="middle" pointer-events="none" x="0" y="5" font-size="10px" fill="#FFFFFF" font-family="Helvetica Neue, Helvetica, Arial, sans-serif"> 1112065</text></g><g class="node" aria-label="graph-node2832" transform="translate(96.18211409405968,16.06129972751379)" style="touch-action: none; -webkit-tap-highlight-color: rgba(0, 0, 0, 0);"><circle class="b-outline" cx="0" cy="0" r="25" fill="#F79767" stroke="#f36924" stroke-width="2px"/><text class="caption" text-anchor="middle" pointer-events="none" x="0" y="5" font-size="10px" fill="#FFFFFF" font-family="Helvetica Neue, Helvetica, Arial, sans-serif"> 1112067</text></g><g class="node" aria-label="graph-node2833" transform="translate(0.10690235641489121,35.12808939475401)" style="touch-action: none; -webkit-tap-highlight-color: rgba(0, 0, 0, 0);"><circle class="b-outline" cx="0" cy="0" r="25" fill="#F79767" stroke="#f36924" stroke-width="2px"/><text class="caption" text-anchor="middle" pointer-events="none" x="0" y="5" font-size="10px" fill="#FFFFFF" font-family="Helvetica Neue, Helvetica, Arial, sans-serif"> 1112066</text></g><g class="node" aria-label="graph-node2834" transform="translate(31.176856615246223,-55.815025940548246)" style="touch-action: none; -webkit-tap-highlight-color: rgba(0, 0, 0, 0);"><circle class="b-outline" cx="0" cy="0" r="25" fill="#F79767" stroke="#f36924" stroke-width="2px"/><text class="caption" text-anchor="middle" pointer-events="none" x="0" y="5" font-size="10px" fill="#FFFFFF" font-family="Helvetica Neue, Helvetica, Arial, sans-serif"> 1112071</text></g><g class="node" aria-label="graph-node2846" transform="translate(179.34881869626787,-30.44414020440936)" style="touch-action: none; -webkit-tap-highlight-color: rgba(0, 0, 0, 0);"><circle class="b-outline" cx="0" cy="0" r="25" fill="#F79767" stroke="#f36924" stroke-width="2px"/><text class="caption" text-anchor="middle" pointer-events="none" x="0" y="5" font-size="10px" fill="#FFFFFF" font-family="Helvetica Neue, Helvetica, Arial, sans-serif"> 1112071</text></g><g class="node" aria-label="graph-node2847" transform="translate(60.601458190307845,106.20809705677098)" style="touch-action: none; -webkit-tap-highlight-color: rgba(0, 0, 0, 0);"><circle class="b-outline" cx="0" cy="0" r="25" fill="#F79767" stroke="#f36924" stroke-width="2px"/><text class="caption" text-anchor="middle" pointer-events="none" x="0" y="5" font-size="10px" fill="#FFFFFF" font-family="Helvetica Neue, Helvetica, Arial, sans-serif"> 1112072</text></g><g class="node" aria-label="graph-node2848" transform="translate(207.5882431625279,-126.3395876141299)" style="touch-action: none; -webkit-tap-highlight-color: rgba(0, 0, 0, 0);"><circle class="b-outline" cx="0" cy="0" r="25" fill="#F79767" stroke="#f36924" stroke-width="2px"/><text class="caption" text-anchor="middle" pointer-events="none" x="0" y="5" font-size="10px" fill="#FFFFFF" font-family="Helvetica Neue, Helvetica, Arial, sans-serif"> 1112072</text></g><g class="node" aria-label="graph-node2849" transform="translate(-62.64719071347907,-42.165037134699084)" style="touch-action: none; -webkit-tap-highlight-color: rgba(0, 0, 0, 0);"><circle class="b-outline" cx="0" cy="0" r="25" fill="#F79767" stroke="#f36924" stroke-width="2px"/><text class="caption" text-anchor="middle" pointer-events="none" x="0" y="5" font-size="10px" fill="#FFFFFF" font-family="Helvetica Neue, Helvetica, Arial, sans-serif"> 1112073</text></g><g class="node" aria-label="graph-node2850" transform="translate(114.46910921845215,-101.47575061103313)" style="touch-action: none; -webkit-tap-highlight-color: rgba(0, 0, 0, 0);"><circle class="b-outline" cx="0" cy="0" r="25" fill="#F79767" stroke="#f36924" stroke-width="2px"/><text class="caption" text-anchor="middle" pointer-events="none" x="0" y="5" font-size="10px" fill="#FFFFFF" font-family="Helvetica Neue, Helvetica, Arial, sans-serif"> 1112073</text></g><g class="node" aria-label="graph-node2851" transform="translate(47.63659678198972,-173.19755074589398)" style="touch-action: none; -webkit-tap-highlight-color: rgba(0, 0, 0, 0);"><circle class="b-outline" cx="0" cy="0" r="25" fill="#F79767" stroke="#f36924" stroke-width="2px"/><text class="caption" text-anchor="middle" pointer-events="none" x="0" y="5" font-size="10px" fill="#FFFFFF" font-family="Helvetica Neue, Helvetica, Arial, sans-serif"> 1112075</text></g><g class="node" aria-label="graph-node2852" transform="translate(73.69792831600357,-268.564216589018)" style="touch-action: none; -webkit-tap-highlight-color: rgba(0, 0, 0, 0);"><circle class="b-outline" cx="0" cy="0" r="25" fill="#F79767" stroke="#f36924" stroke-width="2px"/><text class="caption" text-anchor="middle" pointer-events="none" x="0" y="5" font-size="10px" fill="#FFFFFF" font-family="Helvetica Neue, Helvetica, Arial, sans-serif"> 1112074</text></g><g class="node" aria-label="graph-node2853" transform="translate(141.26376917796182,-197.86269882507952)" style="touch-action: none; -webkit-tap-highlight-color: rgba(0, 0, 0, 0);"><circle class="b-outline" cx="0" cy="0" r="25" fill="#F79767" stroke="#f36924" stroke-width="2px"/><text class="caption" text-anchor="middle" pointer-events="none" x="0" y="5" font-size="10px" fill="#FFFFFF" font-family="Helvetica Neue, Helvetica, Arial, sans-serif"> 1112075</text></g><g class="node" aria-label="graph-node2854" transform="translate(-24.611439615063823,-241.75231112407772)" style="touch-action: none; -webkit-tap-highlight-color: rgba(0, 0, 0, 0);"><circle class="b-outline" cx="0" cy="0" r="25" fill="#F79767" stroke="#f36924" stroke-width="2px"/><text class="caption" text-anchor="middle" pointer-events="none" x="0" y="5" font-size="10px" fill="#FFFFFF" font-family="Helvetica Neue, Helvetica, Arial, sans-serif"> 1112074</text></g><g class="node" aria-label="graph-node2855" transform="translate(2.3174359199523087,-335.2470240683098)" style="touch-action: none; -webkit-tap-highlight-color: rgba(0, 0, 0, 0);"><circle class="b-outline" cx="0" cy="0" r="25" fill="#F79767" stroke="#f36924" stroke-width="2px"/><text class="caption" text-anchor="middle" pointer-events="none" x="0" y="5" font-size="10px" fill="#FFFFFF" font-family="Helvetica Neue, Helvetica, Arial, sans-serif"> 1112064</text></g><g class="node" aria-label="graph-node2856" transform="translate(-188.64880176309384,-293.2371011740959)" style="touch-action: none; -webkit-tap-highlight-color: rgba(0, 0, 0, 0);"><circle class="b-outline" cx="0" cy="0" r="25" fill="#F79767" stroke="#f36924" stroke-width="2px"/><text class="caption" text-anchor="middle" pointer-events="none" x="0" y="5" font-size="10px" fill="#FFFFFF" font-family="Helvetica Neue, Helvetica, Arial, sans-serif"> 1112064</text></g><g class="node" aria-label="graph-node2857" transform="translate(-92.30987622682568,-313.23465610752754)" style="touch-action: none; -webkit-tap-highlight-color: rgba(0, 0, 0, 0);"><circle class="b-outline" cx="0" cy="0" r="25" fill="#F79767" stroke="#f36924" stroke-width="2px"/><text class="caption" text-anchor="middle" pointer-events="none" x="0" y="5" font-size="10px" fill="#FFFFFF" font-family="Helvetica Neue, Helvetica, Arial, sans-serif"> 1112065</text></g><g class="node" aria-label="graph-node2858" transform="translate(-122.54203406854002,-220.70734860757486)" style="touch-action: none; -webkit-tap-highlight-color: rgba(0, 0, 0, 0);"><circle class="b-outline" cx="0" cy="0" r="25" fill="#F79767" stroke="#f36924" stroke-width="2px"/><text class="caption" text-anchor="middle" pointer-events="none" x="0" y="5" font-size="10px" fill="#FFFFFF" font-family="Helvetica Neue, Helvetica, Arial, sans-serif"> 1112065</text></g><g class="node" aria-label="graph-node2859" transform="translate(-218.2325517546088,-201.93540147904955)" style="touch-action: none; -webkit-tap-highlight-color: rgba(0, 0, 0, 0);"><circle class="b-outline" cx="0" cy="0" r="25" fill="#F79767" stroke="#f36924" stroke-width="2px"/><text class="caption" text-anchor="middle" pointer-events="none" x="0" y="5" font-size="10px" fill="#FFFFFF" font-family="Helvetica Neue, Helvetica, Arial, sans-serif"> 1112067</text></g><g class="node" aria-label="graph-node2860" transform="translate(-249.38692569497488,-109.77204302973908)" style="touch-action: none; -webkit-tap-highlight-color: rgba(0, 0, 0, 0);"><circle class="b-outline" cx="0" cy="0" r="25" fill="#F79767" stroke="#f36924" stroke-width="2px"/><text class="caption" text-anchor="middle" pointer-events="none" x="0" y="5" font-size="10px" fill="#FFFFFF" font-family="Helvetica Neue, Helvetica, Arial, sans-serif"> 1112066</text></g><g class="node" aria-label="graph-node2861" transform="translate(-154.81000262541252,-126.57953100847871)" style="touch-action: none; -webkit-tap-highlight-color: rgba(0, 0, 0, 0);"><circle class="b-outline" cx="0" cy="0" r="25" fill="#F79767" stroke="#f36924" stroke-width="2px"/><text class="caption" text-anchor="middle" pointer-events="none" x="0" y="5" font-size="10px" fill="#FFFFFF" font-family="Helvetica Neue, Helvetica, Arial, sans-serif"> 1112067</text></g><g class="node" aria-label="graph-node2862" transform="translate(-257.9613757886413,-13.38007837747752)" style="touch-action: none; -webkit-tap-highlight-color: rgba(0, 0, 0, 0);"><circle class="b-outline" cx="0" cy="0" r="25" fill="#F79767" stroke="#f36924" stroke-width="2px"/><text class="caption" text-anchor="middle" pointer-events="none" x="0" y="5" font-size="10px" fill="#FFFFFF" font-family="Helvetica Neue, Helvetica, Arial, sans-serif"> 1112066</text></g><g class="node" aria-label="graph-node2863" transform="translate(-160.74995530188093,-29.725911807848828)" style="touch-action: none; -webkit-tap-highlight-color: rgba(0, 0, 0, 0);"><circle class="b-outline" cx="0" cy="0" r="25" fill="#F79767" stroke="#f36924" stroke-width="2px"/><text class="caption" text-anchor="middle" pointer-events="none" x="0" y="5" font-size="10px" fill="#FFFFFF" font-family="Helvetica Neue, Helvetica, Arial, sans-serif"> 1112066</text></g><g class="node" aria-label="graph-node2864" transform="translate(-193.7460252627481,62.02544239003798)" style="touch-action: none; -webkit-tap-highlight-color: rgba(0, 0, 0, 0);"><circle class="b-outline" cx="0" cy="0" r="25" fill="#F79767" stroke="#f36924" stroke-width="2px"/><text class="caption" text-anchor="middle" pointer-events="none" x="0" y="5" font-size="10px" fill="#FFFFFF" font-family="Helvetica Neue, Helvetica, Arial, sans-serif"> 1112071</text></g><g class="node" aria-label="graph-node2865" transform="translate(-96.91382970811226,48.051497679199855)" style="touch-action: none; -webkit-tap-highlight-color: rgba(0, 0, 0, 0);"><circle class="b-outline" cx="0" cy="0" r="25" fill="#F79767" stroke="#f36924" stroke-width="2px"/><text class="caption" text-anchor="middle" pointer-events="none" x="0" y="5" font-size="10px" fill="#FFFFFF" font-family="Helvetica Neue, Helvetica, Arial, sans-serif"> 1112072</text></g></g></svg>