<svg xmlns="http://www.w3.org/2000/svg" width="680.3453369140625" height="599.655517578125" viewBox="-332.9143981933594 -292.96612548828125 680.3453369140625 599.655517578125"><title>Neo4j Graph Visualization</title><desc>Created using Neo4j (http://www.neo4j.com/)</desc><g class="layer relationships"><g class="relationship" transform="translate(44.898111182261076 159.26390826480915) rotate(416.1331407745318)"><path class="b-outline" fill="#A5ABB6" stroke="none" d="M 25 0.5 L 40.21227101878182 0.5 L 40.21227101878182 -0.5 L 25 -0.5 Z M 95.41148976878182 0.5 L 110.62376078756364 0.5 L 110.62376078756364 3.5 L 117.62376078756364 0 L 110.62376078756364 -3.5 L 110.62376078756364 -0.5 L 95.41148976878182 -0.5 Z"/><text text-anchor="middle" pointer-events="none" font-size="8px" fill="#000000" x="67.81188039378182" y="3" font-family="Helvetica Neue, Helvetica, Arial, sans-serif">MAPPED_TO</text></g><g class="relationship" transform="translate(203.38779358299948 83.3330392989001) rotate(324.5301785845685)"><path class="b-outline" fill="#A5ABB6" stroke="none" d="M 25 0.5 L 39.52914627361544 0.5 L 39.52914627361544 -0.5 L 25 -0.5 Z M 94.72836502361544 0.5 L 109.25751129723088 0.5 L 109.25751129723088 3.5 L 116.25751129723088 0 L 109.25751129723088 -3.5 L 109.25751129723088 -0.5 L 94.72836502361544 -0.5 Z"/><text text-anchor="middle" pointer-events="none" font-size="8px" fill="#000000" x="67.12875564861544" y="3" font-family="Helvetica Neue, Helvetica, Arial, sans-serif">MAPPED_TO</text></g><g class="relationship" transform="translate(204.26109853420976 -139.74829014878992) rotate(241.65647992624827)"><path class="b-outline" fill="#A5ABB6" stroke="none" d="M 25 0.5 L 39.46932825892951 0.5 L 39.46932825892951 -0.5 L 25 -0.5 Z M 94.66854700892951 0.5 L 109.13787526785902 0.5 L 109.13787526785902 3.5 L 116.13787526785902 0 L 109.13787526785902 -3.5 L 109.13787526785902 -0.5 L 94.66854700892951 -0.5 Z"/><text text-anchor="middle" pointer-events="none" font-size="8px" fill="#000000" x="67.06893763392951" y="3" transform="rotate(180 67.06893763392951 0)" font-family="Helvetica Neue, Helvetica, Arial, sans-serif">MAPPED_TO</text></g><g class="relationship" transform="translate(-30.41645515106017 -263.2208096431039) rotate(529.8750613423139)"><path class="b-outline" fill="#A5ABB6" stroke="none" d="M 25 0.5 L 39.52707082984152 0.5 L 39.52707082984152 -0.5 L 25 -0.5 Z M 94.72628957984152 0.5 L 109.25336040968304 0.5 L 109.25336040968304 3.5 L 116.25336040968304 0 L 109.25336040968304 -3.5 L 109.25336040968304 -0.5 L 94.72628957984152 -0.5 Z"/><text text-anchor="middle" pointer-events="none" font-size="8px" fill="#000000" x="67.12668020484152" y="3" transform="rotate(180 67.12668020484152 0)" font-family="Helvetica Neue, Helvetica, Arial, sans-serif">MAPPED_TO</text></g><g class="relationship" transform="translate(-250.72119052302992 -82.87511086445632) rotate(471.985128838605)"><path class="b-outline" fill="#A5ABB6" stroke="none" d="M 25 0.5 L 39.94477985774424 0.5 L 39.94477985774424 -0.5 L 25 -0.5 Z M 95.14399860774424 0.5 L 110.08877846548847 0.5 L 110.08877846548847 3.5 L 117.08877846548847 0 L 110.08877846548847 -3.5 L 110.08877846548847 -0.5 L 95.14399860774424 -0.5 Z"/><text text-anchor="middle" pointer-events="none" font-size="8px" fill="#000000" x="67.54438923274424" y="3" transform="rotate(180 67.54438923274424 0)" font-family="Helvetica Neue, Helvetica, Arial, sans-serif">MAPPED_TO</text></g><g class="relationship" transform="translate(-139.81381282833786 125.88999944865778) rotate(448.4706859121022)"><path class="b-outline" fill="#A5ABB6" stroke="none" d="M 25 0.5 L 40.181023299776626 0.5 L 40.181023299776626 -0.5 L 25 -0.5 Z M 95.38024204977663 0.5 L 110.56126534955325 0.5 L 110.56126534955325 3.5 L 117.56126534955325 0 L 110.56126534955325 -3.5 L 110.56126534955325 -0.5 L 95.38024204977663 -0.5 Z"/><text text-anchor="middle" pointer-events="none" font-size="8px" fill="#000000" x="67.78063267477663" y="3" font-family="Helvetica Neue, Helvetica, Arial, sans-serif">MAPPED_TO</text></g></g><g class="layer nodes"><g class="node" aria-label="graph-node2423" transform="translate(44.898111182261076,159.26390826480915)" style="touch-action: none; -webkit-tap-highlight-color: rgba(0, 0, 0, 0);"><circle class="b-outline" cx="0" cy="0" r="25" fill="#C990C0" stroke="#b261a5" stroke-width="2px"/><text class="caption" text-anchor="middle" pointer-events="none" x="0" y="5" font-size="10px" fill="#FFFFFF" font-family="Helvetica Neue, Helvetica, Arial, sans-serif"> ABG_Test</text></g><g class="node" aria-label="graph-node474" transform="translate(124.37733034464085,277.6893736957146)" style="touch-action: none; -webkit-tap-highlight-color: rgba(0, 0, 0, 0);"><circle class="b-outline" cx="0" cy="0" r="25" fill="#F79767" stroke="#f36924" stroke-width="2px"/><text class="caption" text-anchor="middle" pointer-events="none" x="0" y="5" font-size="10px" fill="#FFFFFF" font-family="Helvetica Neue, Helvetica, Arial, sans-serif"> Absolute</text></g><g class="node" aria-label="graph-node2420" transform="translate(203.38779358299948,83.3330392989001)" style="touch-action: none; -webkit-tap-highlight-color: rgba(0, 0, 0, 0);"><circle class="b-outline" cx="0" cy="0" r="25" fill="#C990C0" stroke="#b261a5" stroke-width="2px"/><text class="caption" text-anchor="middle" pointer-events="none" x="0" y="5" font-size="10px" fill="#FFFFFF" font-family="Helvetica Neue, Helvetica, Arial, sans-serif"> Hospital…</text></g><g class="node" aria-label="graph-node479" transform="translate(318.4309154374465,1.3649686136011654)" style="touch-action: none; -webkit-tap-highlight-color: rgba(0, 0, 0, 0);"><circle class="b-outline" cx="0" cy="0" r="25" fill="#F79767" stroke="#f36924" stroke-width="2px"/><text class="caption" text-anchor="middle" pointer-events="none" x="0" y="5" font-size="10px" fill="#FFFFFF" font-family="Helvetica Neue, Helvetica, Arial, sans-serif"> Absolute</text></g><g class="node" aria-label="graph-node2422" transform="translate(204.26109853420976,-139.74829014878992)" style="touch-action: none; -webkit-tap-highlight-color: rgba(0, 0, 0, 0);"><circle class="b-outline" cx="0" cy="0" r="25" fill="#C990C0" stroke="#b261a5" stroke-width="2px"/><text class="caption" text-anchor="middle" pointer-events="none" x="0" y="5" font-size="10px" fill="#FFFFFF" font-family="Helvetica Neue, Helvetica, Arial, sans-serif"> Discharg…</text></g><g class="node" aria-label="graph-node476" transform="translate(137.25492472911785,-263.96613309869605)" style="touch-action: none; -webkit-tap-highlight-color: rgba(0, 0, 0, 0);"><circle class="b-outline" cx="0" cy="0" r="25" fill="#F79767" stroke="#f36924" stroke-width="2px"/><text class="caption" text-anchor="middle" pointer-events="none" x="0" y="5" font-size="10px" fill="#FFFFFF" font-family="Helvetica Neue, Helvetica, Arial, sans-serif"> Absolute</text></g><g class="node" aria-label="graph-node2421" transform="translate(-30.41645515106017,-263.2208096431039)" style="touch-action: none; -webkit-tap-highlight-color: rgba(0, 0, 0, 0);"><circle class="b-outline" cx="0" cy="0" r="25" fill="#C990C0" stroke="#b261a5" stroke-width="2px"/><text class="caption" text-anchor="middle" pointer-events="none" x="0" y="5" font-size="10px" fill="#FFFFFF" font-family="Helvetica Neue, Helvetica, Arial, sans-serif"> admit_into</text></g><g class="node" aria-label="graph-node720" transform="translate(-169.4700425558202,-238.3891432291362)" style="touch-action: none; -webkit-tap-highlight-color: rgba(0, 0, 0, 0);"><circle class="b-outline" cx="0" cy="0" r="25" fill="#F79767" stroke="#f36924" stroke-width="2px"/><text class="caption" text-anchor="middle" pointer-events="none" x="0" y="5" font-size="10px" fill="#FFFFFF" font-family="Helvetica Neue, Helvetica, Arial, sans-serif"> Absolute</text></g><g class="node" aria-label="graph-node2424" transform="translate(-250.72119052302992,-82.87511086445632)" style="touch-action: none; -webkit-tap-highlight-color: rgba(0, 0, 0, 0);"><circle class="b-outline" cx="0" cy="0" r="25" fill="#C990C0" stroke="#b261a5" stroke-width="2px"/><text class="caption" text-anchor="middle" pointer-events="none" x="0" y="5" font-size="10px" fill="#FFFFFF" font-family="Helvetica Neue, Helvetica, Arial, sans-serif"> Mirobiol…</text></g><g class="node" aria-label="graph-node638" transform="translate(-303.9143881525106,48.881121214962505)" style="touch-action: none; -webkit-tap-highlight-color: rgba(0, 0, 0, 0);"><circle class="b-outline" cx="0" cy="0" r="25" fill="#F79767" stroke="#f36924" stroke-width="2px"/><text class="caption" text-anchor="middle" pointer-events="none" x="0" y="5" font-size="10px" fill="#FFFFFF" font-family="Helvetica Neue, Helvetica, Arial, sans-serif"> Absolute</text></g><g class="node" aria-label="graph-node2425" transform="translate(-139.81381282833786,125.88999944865778)" style="touch-action: none; -webkit-tap-highlight-color: rgba(0, 0, 0, 0);"><circle class="b-outline" cx="0" cy="0" r="25" fill="#C990C0" stroke="#b261a5" stroke-width="2px"/><text class="caption" text-anchor="middle" pointer-events="none" x="0" y="5" font-size="10px" fill="#FFFFFF" font-family="Helvetica Neue, Helvetica, Arial, sans-serif"> Microbio…</text></g><g class="node" aria-label="graph-node620" transform="translate(-136.0090811977468,268.4004846603955)" style="touch-action: none; -webkit-tap-highlight-color: rgba(0, 0, 0, 0);"><circle class="b-outline" cx="0" cy="0" r="25" fill="#F79767" stroke="#f36924" stroke-width="2px"/><text class="caption" text-anchor="middle" pointer-events="none" x="0" y="5" font-size="10px" fill="#FFFFFF" font-family="Helvetica Neue, Helvetica, Arial, sans-serif"> Absolute</text></g></g></svg>