<svg xmlns="http://www.w3.org/2000/svg" width="1007.9893188476562" height="1038.8702392578125" viewBox="-551.5075073242188 -513.8524169921875 1007.9893188476562 1038.8702392578125"><title>Neo4j Graph Visualization</title><desc>Created using Neo4j (http://www.neo4j.com/)</desc><g class="layer relationships"><g class="relationship" transform="translate(106.87968675970787 496.0177508622163) rotate(330.11473369432906)"><path class="b-outline" fill="#A5ABB6" stroke="none" d="M 25 0.5 L 41.65875756196786 0.5 L 41.65875756196786 -0.5 L 25 -0.5 Z M 96.85797631196786 0.5 L 113.51673387393572 0.5 L 113.51673387393572 3.5 L 120.51673387393572 0 L 113.51673387393572 -3.5 L 113.51673387393572 -0.5 L 96.85797631196786 -0.5 Z"/><text text-anchor="middle" pointer-events="none" font-size="8px" fill="#000000" x="69.25836693696786" y="3" font-family="Helvetica Neue, Helvetica, Arial, sans-serif">MAPPED_TO</text></g><g class="relationship" transform="translate(-129.45440403138244 311.5159452185583) rotate(302.78772939188957)"><path class="b-outline" fill="#A5ABB6" stroke="none" d="M 25 0.5 L 43.870147901200085 0.5 L 43.870147901200085 -0.5 L 25 -0.5 Z M 99.06936665120008 0.5 L 117.93951455240017 0.5 L 117.93951455240017 3.5 L 124.93951455240017 0 L 117.93951455240017 -3.5 L 117.93951455240017 -0.5 L 99.06936665120008 -0.5 Z"/><text text-anchor="middle" pointer-events="none" font-size="8px" fill="#000000" x="71.46975727620008" y="3" font-family="Helvetica Neue, Helvetica, Arial, sans-serif">MAPPED_TO</text></g><g class="relationship" transform="translate(427.48172236609537 -31.26967978268529) rotate(231.88287588237722)"><path class="b-outline" fill="#A5ABB6" stroke="none" d="M 25 0.5 L 40.54200200288743 0.5 L 40.54200200288743 -0.5 L 25 -0.5 Z M 95.74122075288743 0.5 L 111.28322275577486 0.5 L 111.28322275577486 3.5 L 118.28322275577486 0 L 111.28322275577486 -3.5 L 111.28322275577486 -0.5 L 95.74122075288743 -0.5 Z"/><text text-anchor="middle" pointer-events="none" font-size="8px" fill="#000000" x="68.14161137788743" y="3" transform="rotate(180 68.14161137788743 0)" font-family="Helvetica Neue, Helvetica, Arial, sans-serif">MAPPED_TO</text></g><g class="relationship" transform="translate(43.77825830467983 147.46707195391667) rotate(224.80372972610257)"><path class="b-outline" fill="#A5ABB6" stroke="none" d="M 25 0.5 L 48.087632644414555 0.5 L 48.087632644414555 -0.5 L 25 -0.5 Z M 103.28685139441455 0.5 L 126.37448403882911 0.5 L 126.37448403882911 3.5 L 133.3744840388291 0 L 126.37448403882911 -3.5 L 126.37448403882911 -0.5 L 103.28685139441455 -0.5 Z"/><text text-anchor="middle" pointer-events="none" font-size="8px" fill="#000000" x="75.68724201941455" y="3" transform="rotate(180 75.68724201941455 0)" font-family="Helvetica Neue, Helvetica, Arial, sans-serif">MAPPED_TO</text></g><g class="relationship" transform="translate(371.0784081634924 380.3561159788563) rotate(522.6381322985897)"><path class="b-outline" fill="#A5ABB6" stroke="none" d="M 25 0.5 L 41.210967112352165 0.5 L 41.210967112352165 -0.5 L 25 -0.5 Z M 96.41018586235217 0.5 L 112.62115297470433 0.5 L 112.62115297470433 3.5 L 119.62115297470433 0 L 112.62115297470433 -3.5 L 112.62115297470433 -0.5 L 96.41018586235217 -0.5 Z"/><text text-anchor="middle" pointer-events="none" font-size="8px" fill="#000000" x="68.81057648735217" y="3" transform="rotate(180 68.81057648735217 0)" font-family="Helvetica Neue, Helvetica, Arial, sans-serif">MAPPED_TO</text></g><g class="relationship" transform="translate(288.5102056160767 288.2658980918425) rotate(472.2983552784184)"><path class="b-outline" fill="#A5ABB6" stroke="none" d="M 25 0.5 L 41.98889783832743 0.5 L 41.98889783832743 -0.5 L 25 -0.5 Z M 97.18811658832743 0.5 L 114.17701442665486 0.5 L 114.17701442665486 3.5 L 121.17701442665486 0 L 114.17701442665486 -3.5 L 114.17701442665486 -0.5 L 97.18811658832743 -0.5 Z"/><text text-anchor="middle" pointer-events="none" font-size="8px" fill="#000000" x="69.58850721332743" y="3" transform="rotate(180 69.58850721332743 0)" font-family="Helvetica Neue, Helvetica, Arial, sans-serif">MAPPED_TO</text></g><g class="relationship" transform="translate(34.67645387927281 304.5358737907333) rotate(235.1424298801001)"><path class="b-outline" fill="#A5ABB6" stroke="none" d="M 25 0.5 L 41.45403813570101 0.5 L 41.45403813570101 -0.5 L 25 -0.5 Z M 96.65325688570101 0.5 L 113.10729502140202 0.5 L 113.10729502140202 3.5 L 120.10729502140202 0 L 113.10729502140202 -3.5 L 113.10729502140202 -0.5 L 96.65325688570101 -0.5 Z"/><text text-anchor="middle" pointer-events="none" font-size="8px" fill="#000000" x="69.05364751070101" y="3" transform="rotate(180 69.05364751070101 0)" font-family="Helvetica Neue, Helvetica, Arial, sans-serif">MAPPED_TO</text></g><g class="relationship" transform="translate(34.312387529729534 48.88126099527167) rotate(481.1547464299215)"><path class="b-outline" fill="#A5ABB6" stroke="none" d="M 25 0.5 L 48.70141305229869 0.5 L 48.70141305229869 -0.5 L 25 -0.5 Z M 103.90063180229869 0.5 L 127.60204485459738 0.5 L 127.60204485459738 3.5 L 134.60204485459738 0 L 127.60204485459738 -3.5 L 127.60204485459738 -0.5 L 103.90063180229869 -0.5 Z"/><text text-anchor="middle" pointer-events="none" font-size="8px" fill="#000000" x="76.30102242729869" y="3" transform="rotate(180 76.30102242729869 0)" font-family="Helvetica Neue, Helvetica, Arial, sans-serif">MAPPED_TO</text></g><g class="relationship" transform="translate(134.8317227136049 -453.8667336737633) rotate(192.57472762022013)"><path class="b-outline" fill="#A5ABB6" stroke="none" d="M 25 0.5 L 40.062169670945266 0.5 L 40.062169670945266 -0.5 L 25 -0.5 Z M 95.26138842094527 0.5 L 110.32355809189053 0.5 L 110.32355809189053 3.5 L 117.32355809189053 0 L 110.32355809189053 -3.5 L 110.32355809189053 -0.5 L 95.26138842094527 -0.5 Z"/><text text-anchor="middle" pointer-events="none" font-size="8px" fill="#000000" x="67.66177904594527" y="3" transform="rotate(180 67.66177904594527 0)" font-family="Helvetica Neue, Helvetica, Arial, sans-serif">MAPPED_TO</text></g><g class="relationship" transform="translate(402.5697829117553 -271.2366354672921) rotate(476.53379011081313)"><path class="b-outline" fill="#A5ABB6" stroke="none" d="M 25 0.5 L 40.00965285661775 0.5 L 40.00965285661775 -0.5 L 25 -0.5 Z M 95.20887160661775 0.5 L 110.2185244632355 0.5 L 110.2185244632355 3.5 L 117.2185244632355 0 L 110.2185244632355 -3.5 L 110.2185244632355 -0.5 L 95.20887160661775 -0.5 Z"/><text text-anchor="middle" pointer-events="none" font-size="8px" fill="#000000" x="67.60926223161775" y="3" transform="rotate(180 67.60926223161775 0)" font-family="Helvetica Neue, Helvetica, Arial, sans-serif">MAPPED_TO</text></g><g class="relationship" transform="translate(-330.4533885352802 -385.8438570009686) rotate(474.20443213945657)"><path class="b-outline" fill="#A5ABB6" stroke="none" d="M 25 0.5 L 41.82388343032609 0.5 L 41.82388343032609 -0.5 L 25 -0.5 Z M 97.02310218032609 0.5 L 113.84698561065218 0.5 L 113.84698561065218 3.5 L 120.84698561065218 0 L 113.84698561065218 -3.5 L 113.84698561065218 -0.5 L 97.02310218032609 -0.5 Z"/><text text-anchor="middle" pointer-events="none" font-size="8px" fill="#000000" x="69.42349280532609" y="3" transform="rotate(180 69.42349280532609 0)" font-family="Helvetica Neue, Helvetica, Arial, sans-serif">MAPPED_TO</text></g><g class="relationship" transform="translate(239.17100164449417 -246.5424469889326) rotate(405.7581427715767)"><path class="b-outline" fill="#A5ABB6" stroke="none" d="M 25 0.5 L 40.469661704183935 0.5 L 40.469661704183935 -0.5 L 25 -0.5 Z M 95.66888045418393 0.5 L 111.13854215836787 0.5 L 111.13854215836787 3.5 L 118.13854215836787 0 L 111.13854215836787 -3.5 L 111.13854215836787 -0.5 L 95.66888045418393 -0.5 Z"/><text text-anchor="middle" pointer-events="none" font-size="8px" fill="#000000" x="68.06927107918393" y="3" font-family="Helvetica Neue, Helvetica, Arial, sans-serif">MAPPED_TO</text></g><g class="relationship" transform="translate(-248.40915815549457 -287.5152876549815) rotate(526.2543407744197)"><path class="b-outline" fill="#A5ABB6" stroke="none" d="M 25 0.5 L 41.911709167841266 0.5 L 41.911709167841266 -0.5 L 25 -0.5 Z M 97.11092791784127 0.5 L 114.02263708568253 0.5 L 114.02263708568253 3.5 L 121.02263708568253 0 L 114.02263708568253 -3.5 L 114.02263708568253 -0.5 L 97.11092791784127 -0.5 Z"/><text text-anchor="middle" pointer-events="none" font-size="8px" fill="#000000" x="69.51131854284127" y="3" transform="rotate(180 69.51131854284127 0)" font-family="Helvetica Neue, Helvetica, Arial, sans-serif">MAPPED_TO</text></g><g class="relationship" transform="translate(-169.28113775482765 79.89507815266704) rotate(401.0984016418592)"><path class="b-outline" fill="#A5ABB6" stroke="none" d="M 25 0.5 L 49.19905050721496 0.5 L 49.19905050721496 -0.5 L 25 -0.5 Z M 104.39826925721496 0.5 L 128.59731976442993 0.5 L 128.59731976442993 3.5 L 135.59731976442993 0 L 128.59731976442993 -3.5 L 128.59731976442993 -0.5 L 104.39826925721496 -0.5 Z"/><text text-anchor="middle" pointer-events="none" font-size="8px" fill="#000000" x="76.79865988221496" y="3" font-family="Helvetica Neue, Helvetica, Arial, sans-serif">MAPPED_TO</text></g><g class="relationship" transform="translate(28.171910142779783 -78.88583716811496) rotate(490.1397741613324)"><path class="b-outline" fill="#A5ABB6" stroke="none" d="M 25 0.5 L 43.95167013061172 0.5 L 43.95167013061172 -0.5 L 25 -0.5 Z M 99.15088888061172 0.5 L 118.10255901122343 0.5 L 118.10255901122343 3.5 L 125.10255901122343 0 L 118.10255901122343 -3.5 L 118.10255901122343 -0.5 L 99.15088888061172 -0.5 Z"/><text text-anchor="middle" pointer-events="none" font-size="8px" fill="#000000" x="71.55127950561172" y="3" transform="rotate(180 71.55127950561172 0)" font-family="Helvetica Neue, Helvetica, Arial, sans-serif">MAPPED_TO</text></g><g class="relationship" transform="translate(-107.2167591801806 -105.78410870230391) rotate(434.7474533274835)"><path class="b-outline" fill="#A5ABB6" stroke="none" d="M 25 0.5 L 42.31009410728464 0.5 L 42.31009410728464 -0.5 L 25 -0.5 Z M 97.50931285728464 0.5 L 114.81940696456928 0.5 L 114.81940696456928 3.5 L 121.81940696456928 0 L 114.81940696456928 -3.5 L 114.81940696456928 -0.5 L 97.50931285728464 -0.5 Z"/><text text-anchor="middle" pointer-events="none" font-size="8px" fill="#000000" x="69.90970348228464" y="3" font-family="Helvetica Neue, Helvetica, Arial, sans-serif">MAPPED_TO</text></g><g class="relationship" transform="translate(-147.3236885418035 176.39061908846062) rotate(299.26006874795803)"><path class="b-outline" fill="#A5ABB6" stroke="none" d="M 25 0.5 L 49.4398853928776 0.5 L 49.4398853928776 -0.5 L 25 -0.5 Z M 104.6391041428776 0.5 L 129.0789895357552 0.5 L 129.0789895357552 3.5 L 136.0789895357552 0 L 129.0789895357552 -3.5 L 129.0789895357552 -0.5 L 104.6391041428776 -0.5 Z"/><text text-anchor="middle" pointer-events="none" font-size="8px" fill="#000000" x="77.0394947678776" y="3" font-family="Helvetica Neue, Helvetica, Arial, sans-serif">MAPPED_TO</text></g><g class="relationship" transform="translate(-522.5074994769572 -193.96182826228693) rotate(336.01022305556944)"><path class="b-outline" fill="#A5ABB6" stroke="none" d="M 25 0.5 L 41.28172476619888 0.5 L 41.28172476619888 -0.5 L 25 -0.5 Z M 96.48094351619888 0.5 L 112.76266828239775 0.5 L 112.76266828239775 3.5 L 119.76266828239775 0 L 112.76266828239775 -3.5 L 112.76266828239775 -0.5 L 96.48094351619888 -0.5 Z"/><text text-anchor="middle" pointer-events="none" font-size="8px" fill="#000000" x="68.88133414119888" y="3" font-family="Helvetica Neue, Helvetica, Arial, sans-serif">MAPPED_TO</text></g><g class="relationship" transform="translate(-335.9219793633575 -117.48312561275188) rotate(248.12797382190962)"><path class="b-outline" fill="#A5ABB6" stroke="none" d="M 25 0.5 L 41.81672994941222 0.5 L 41.81672994941222 -0.5 L 25 -0.5 Z M 97.01594869941222 0.5 L 113.83267864882444 0.5 L 113.83267864882444 3.5 L 120.83267864882444 0 L 113.83267864882444 -3.5 L 113.83267864882444 -0.5 L 97.01594869941222 -0.5 Z"/><text text-anchor="middle" pointer-events="none" font-size="8px" fill="#000000" x="69.41633932441222" y="3" transform="rotate(180 69.41633932441222 0)" font-family="Helvetica Neue, Helvetica, Arial, sans-serif">MAPPED_TO</text></g><g class="relationship" transform="translate(-442.39905072836325 -113.61419798989182) rotate(290.5371758121965)"><path class="b-outline" fill="#A5ABB6" stroke="none" d="M 25 0.5 L 43.226352049389334 0.5 L 43.226352049389334 -0.5 L 25 -0.5 Z M 98.42557079938933 0.5 L 116.65192284877867 0.5 L 116.65192284877867 3.5 L 123.65192284877867 0 L 116.65192284877867 -3.5 L 116.65192284877867 -0.5 L 98.42557079938933 -0.5 Z"/><text text-anchor="middle" pointer-events="none" font-size="8px" fill="#000000" x="70.82596142438933" y="3" font-family="Helvetica Neue, Helvetica, Arial, sans-serif">MAPPED_TO</text></g></g><g class="layer nodes"><g class="node" aria-label="graph-node2426" transform="translate(106.87968675970787,496.0177508622163)" style="touch-action: none; -webkit-tap-highlight-color: rgba(0, 0, 0, 0);"><circle class="b-outline" cx="0" cy="0" r="25" fill="#C990C0" stroke="#b261a5" stroke-width="2px"/><text class="caption" text-anchor="middle" pointer-events="none" x="0" y="5" font-size="10px" fill="#FFFFFF" font-family="Helvetica Neue, Helvetica, Arial, sans-serif"> Hospital…</text></g><g class="node" aria-label="graph-node479" transform="translate(233.0463194326407,423.51188463533043)" style="touch-action: none; -webkit-tap-highlight-color: rgba(0, 0, 0, 0);"><circle class="b-outline" cx="0" cy="0" r="25" fill="#F79767" stroke="#f36924" stroke-width="2px"/><text class="caption" text-anchor="middle" pointer-events="none" x="0" y="5" font-size="10px" fill="#FFFFFF" font-family="Helvetica Neue, Helvetica, Arial, sans-serif"> Absolute</text></g><g class="node" aria-label="graph-node2427" transform="translate(-129.45440403138244,311.5159452185583)" style="touch-action: none; -webkit-tap-highlight-color: rgba(0, 0, 0, 0);"><circle class="b-outline" cx="0" cy="0" r="25" fill="#C990C0" stroke="#b261a5" stroke-width="2px"/><text class="caption" text-anchor="middle" pointer-events="none" x="0" y="5" font-size="10px" fill="#FFFFFF" font-family="Helvetica Neue, Helvetica, Arial, sans-serif"> admit_into</text></g><g class="node" aria-label="graph-node720" transform="translate(-48.25793160494337,185.46440461031364)" style="touch-action: none; -webkit-tap-highlight-color: rgba(0, 0, 0, 0);"><circle class="b-outline" cx="0" cy="0" r="25" fill="#F79767" stroke="#f36924" stroke-width="2px"/><text class="caption" text-anchor="middle" pointer-events="none" x="0" y="5" font-size="10px" fill="#FFFFFF" font-family="Helvetica Neue, Helvetica, Arial, sans-serif"> Absolute</text></g><g class="node" aria-label="graph-node2428" transform="translate(427.48172236609537,-31.26967978268529)" style="touch-action: none; -webkit-tap-highlight-color: rgba(0, 0, 0, 0);"><circle class="b-outline" cx="0" cy="0" r="25" fill="#C990C0" stroke="#b261a5" stroke-width="2px"/><text class="caption" text-anchor="middle" pointer-events="none" x="0" y="5" font-size="10px" fill="#FFFFFF" font-family="Helvetica Neue, Helvetica, Arial, sans-serif"> Discharg…</text></g><g class="node" aria-label="graph-node476" transform="translate(339.03713835410764,-143.99783723337478)" style="touch-action: none; -webkit-tap-highlight-color: rgba(0, 0, 0, 0);"><circle class="b-outline" cx="0" cy="0" r="25" fill="#F79767" stroke="#f36924" stroke-width="2px"/><text class="caption" text-anchor="middle" pointer-events="none" x="0" y="5" font-size="10px" fill="#FFFFFF" font-family="Helvetica Neue, Helvetica, Arial, sans-serif"> Absolute</text></g><g class="node" aria-label="graph-node2429" transform="translate(43.77825830467983,147.46707195391667)" style="touch-action: none; -webkit-tap-highlight-color: rgba(0, 0, 0, 0);"><circle class="b-outline" cx="0" cy="0" r="25" fill="#C990C0" stroke="#b261a5" stroke-width="2px"/><text class="caption" text-anchor="middle" pointer-events="none" x="0" y="5" font-size="10px" fill="#FFFFFF" font-family="Helvetica Neue, Helvetica, Arial, sans-serif"> ABG_Test</text></g><g class="node" aria-label="graph-node474" transform="translate(-68.59237628678484,35.86367739946391)" style="touch-action: none; -webkit-tap-highlight-color: rgba(0, 0, 0, 0);"><circle class="b-outline" cx="0" cy="0" r="25" fill="#F79767" stroke="#f36924" stroke-width="2px"/><text class="caption" text-anchor="middle" pointer-events="none" x="0" y="5" font-size="10px" fill="#FFFFFF" font-family="Helvetica Neue, Helvetica, Arial, sans-serif"> Absolute</text></g><g class="node" aria-label="graph-node2430" transform="translate(371.0784081634924,380.3561159788563)" style="touch-action: none; -webkit-tap-highlight-color: rgba(0, 0, 0, 0);"><circle class="b-outline" cx="0" cy="0" r="25" fill="#C990C0" stroke="#b261a5" stroke-width="2px"/><text class="caption" text-anchor="middle" pointer-events="none" x="0" y="5" font-size="10px" fill="#FFFFFF" font-family="Helvetica Neue, Helvetica, Arial, sans-serif"> Hospital…</text></g><g class="node" aria-label="graph-node2431" transform="translate(288.5102056160767,288.2658980918425)" style="touch-action: none; -webkit-tap-highlight-color: rgba(0, 0, 0, 0);"><circle class="b-outline" cx="0" cy="0" r="25" fill="#C990C0" stroke="#b261a5" stroke-width="2px"/><text class="caption" text-anchor="middle" pointer-events="none" x="0" y="5" font-size="10px" fill="#FFFFFF" font-family="Helvetica Neue, Helvetica, Arial, sans-serif"> Hospital…</text></g><g class="node" aria-label="graph-node2432" transform="translate(34.67645387927281,304.5358737907333)" style="touch-action: none; -webkit-tap-highlight-color: rgba(0, 0, 0, 0);"><circle class="b-outline" cx="0" cy="0" r="25" fill="#C990C0" stroke="#b261a5" stroke-width="2px"/><text class="caption" text-anchor="middle" pointer-events="none" x="0" y="5" font-size="10px" fill="#FFFFFF" font-family="Helvetica Neue, Helvetica, Arial, sans-serif"> admit_into</text></g><g class="node" aria-label="graph-node2433" transform="translate(34.312387529729534,48.88126099527167)" style="touch-action: none; -webkit-tap-highlight-color: rgba(0, 0, 0, 0);"><circle class="b-outline" cx="0" cy="0" r="25" fill="#C990C0" stroke="#b261a5" stroke-width="2px"/><text class="caption" text-anchor="middle" pointer-events="none" x="0" y="5" font-size="10px" fill="#FFFFFF" font-family="Helvetica Neue, Helvetica, Arial, sans-serif"> admit_into</text></g><g class="node" aria-label="graph-node2434" transform="translate(134.8317227136049,-453.8667336737633)" style="touch-action: none; -webkit-tap-highlight-color: rgba(0, 0, 0, 0);"><circle class="b-outline" cx="0" cy="0" r="25" fill="#C990C0" stroke="#b261a5" stroke-width="2px"/><text class="caption" text-anchor="middle" pointer-events="none" x="0" y="5" font-size="10px" fill="#FFFFFF" font-family="Helvetica Neue, Helvetica, Arial, sans-serif"> Mirobiol…</text></g><g class="node" aria-label="graph-node638" transform="translate(-4.077904105118395,-484.8523878546704)" style="touch-action: none; -webkit-tap-highlight-color: rgba(0, 0, 0, 0);"><circle class="b-outline" cx="0" cy="0" r="25" fill="#F79767" stroke="#f36924" stroke-width="2px"/><text class="caption" text-anchor="middle" pointer-events="none" x="0" y="5" font-size="10px" fill="#FFFFFF" font-family="Helvetica Neue, Helvetica, Arial, sans-serif"> Absolute</text></g><g class="node" aria-label="graph-node2435" transform="translate(402.5697829117553,-271.2366354672921)" style="touch-action: none; -webkit-tap-highlight-color: rgba(0, 0, 0, 0);"><circle class="b-outline" cx="0" cy="0" r="25" fill="#C990C0" stroke="#b261a5" stroke-width="2px"/><text class="caption" text-anchor="middle" pointer-events="none" x="0" y="5" font-size="10px" fill="#FFFFFF" font-family="Helvetica Neue, Helvetica, Arial, sans-serif"> Discharg…</text></g><g class="node" aria-label="graph-node2436" transform="translate(-330.4533885352802,-385.8438570009686)" style="touch-action: none; -webkit-tap-highlight-color: rgba(0, 0, 0, 0);"><circle class="b-outline" cx="0" cy="0" r="25" fill="#C990C0" stroke="#b261a5" stroke-width="2px"/><text class="caption" text-anchor="middle" pointer-events="none" x="0" y="5" font-size="10px" fill="#FFFFFF" font-family="Helvetica Neue, Helvetica, Arial, sans-serif"> Microbio…</text></g><g class="node" aria-label="graph-node620" transform="translate(-390.24971776457573,-252.81851271494364)" style="touch-action: none; -webkit-tap-highlight-color: rgba(0, 0, 0, 0);"><circle class="b-outline" cx="0" cy="0" r="25" fill="#F79767" stroke="#f36924" stroke-width="2px"/><text class="caption" text-anchor="middle" pointer-events="none" x="0" y="5" font-size="10px" fill="#FFFFFF" font-family="Helvetica Neue, Helvetica, Arial, sans-serif"> Absolute</text></g><g class="node" aria-label="graph-node2437" transform="translate(239.17100164449417,-246.5424469889326)" style="touch-action: none; -webkit-tap-highlight-color: rgba(0, 0, 0, 0);"><circle class="b-outline" cx="0" cy="0" r="25" fill="#C990C0" stroke="#b261a5" stroke-width="2px"/><text class="caption" text-anchor="middle" pointer-events="none" x="0" y="5" font-size="10px" fill="#FFFFFF" font-family="Helvetica Neue, Helvetica, Arial, sans-serif"> Discharg…</text></g><g class="node" aria-label="graph-node2438" transform="translate(-248.40915815549457,-287.5152876549815)" style="touch-action: none; -webkit-tap-highlight-color: rgba(0, 0, 0, 0);"><circle class="b-outline" cx="0" cy="0" r="25" fill="#C990C0" stroke="#b261a5" stroke-width="2px"/><text class="caption" text-anchor="middle" pointer-events="none" x="0" y="5" font-size="10px" fill="#FFFFFF" font-family="Helvetica Neue, Helvetica, Arial, sans-serif"> Microbio…</text></g><g class="node" aria-label="graph-node2439" transform="translate(-169.28113775482765,79.89507815266704)" style="touch-action: none; -webkit-tap-highlight-color: rgba(0, 0, 0, 0);"><circle class="b-outline" cx="0" cy="0" r="25" fill="#C990C0" stroke="#b261a5" stroke-width="2px"/><text class="caption" text-anchor="middle" pointer-events="none" x="0" y="5" font-size="10px" fill="#FFFFFF" font-family="Helvetica Neue, Helvetica, Arial, sans-serif"> admit_into</text></g><g class="node" aria-label="graph-node2440" transform="translate(28.171910142779783,-78.88583716811496)" style="touch-action: none; -webkit-tap-highlight-color: rgba(0, 0, 0, 0);"><circle class="b-outline" cx="0" cy="0" r="25" fill="#C990C0" stroke="#b261a5" stroke-width="2px"/><text class="caption" text-anchor="middle" pointer-events="none" x="0" y="5" font-size="10px" fill="#FFFFFF" font-family="Helvetica Neue, Helvetica, Arial, sans-serif"> ABG_Test</text></g><g class="node" aria-label="graph-node2441" transform="translate(-107.2167591801806,-105.78410870230391)" style="touch-action: none; -webkit-tap-highlight-color: rgba(0, 0, 0, 0);"><circle class="b-outline" cx="0" cy="0" r="25" fill="#C990C0" stroke="#b261a5" stroke-width="2px"/><text class="caption" text-anchor="middle" pointer-events="none" x="0" y="5" font-size="10px" fill="#FFFFFF" font-family="Helvetica Neue, Helvetica, Arial, sans-serif"> ABG_Test</text></g><g class="node" aria-label="graph-node2442" transform="translate(-147.3236885418035,176.39061908846062)" style="touch-action: none; -webkit-tap-highlight-color: rgba(0, 0, 0, 0);"><circle class="b-outline" cx="0" cy="0" r="25" fill="#C990C0" stroke="#b261a5" stroke-width="2px"/><text class="caption" text-anchor="middle" pointer-events="none" x="0" y="5" font-size="10px" fill="#FFFFFF" font-family="Helvetica Neue, Helvetica, Arial, sans-serif"> ABG_Test</text></g><g class="node" aria-label="graph-node2443" transform="translate(-522.5074994769572,-193.96182826228693)" style="touch-action: none; -webkit-tap-highlight-color: rgba(0, 0, 0, 0);"><circle class="b-outline" cx="0" cy="0" r="25" fill="#C990C0" stroke="#b261a5" stroke-width="2px"/><text class="caption" text-anchor="middle" pointer-events="none" x="0" y="5" font-size="10px" fill="#FFFFFF" font-family="Helvetica Neue, Helvetica, Arial, sans-serif"> Microbio…</text></g><g class="node" aria-label="graph-node2444" transform="translate(-335.9219793633575,-117.48312561275188)" style="touch-action: none; -webkit-tap-highlight-color: rgba(0, 0, 0, 0);"><circle class="b-outline" cx="0" cy="0" r="25" fill="#C990C0" stroke="#b261a5" stroke-width="2px"/><text class="caption" text-anchor="middle" pointer-events="none" x="0" y="5" font-size="10px" fill="#FFFFFF" font-family="Helvetica Neue, Helvetica, Arial, sans-serif"> Microbio…</text></g><g class="node" aria-label="graph-node2445" transform="translate(-442.39905072836325,-113.61419798989182)" style="touch-action: none; -webkit-tap-highlight-color: rgba(0, 0, 0, 0);"><circle class="b-outline" cx="0" cy="0" r="25" fill="#C990C0" stroke="#b261a5" stroke-width="2px"/><text class="caption" text-anchor="middle" pointer-events="none" x="0" y="5" font-size="10px" fill="#FFFFFF" font-family="Helvetica Neue, Helvetica, Arial, sans-serif"> Microbio…</text></g></g></svg>