<svg xmlns="http://www.w3.org/2000/svg" width="949.78466796875" height="1145.5947265625" viewBox="-429.8333740234375 -566.7996215820312 949.78466796875 1145.5947265625"><title>Neo4j Graph Visualization</title><desc>Created using Neo4j (http://www.neo4j.com/)</desc><g class="layer relationships"><g class="relationship" transform="translate(-99.76620160575091 210.61759442833727) rotate(538.3508258037174)"><path class="b-outline" fill="#A5ABB6" stroke="none" d="M 25 0.5 L 53.0449957802752 0.5 L 53.0449957802752 -0.5 L 25 -0.5 Z M 99.9395270302752 0.5 L 127.9845228105504 0.5 L 127.9845228105504 3.5 L 134.9845228105504 0 L 127.9845228105504 -3.5 L 127.9845228105504 -0.5 L 99.9395270302752 -0.5 Z"/><text text-anchor="middle" pointer-events="none" font-size="8px" fill="#000000" x="76.4922614052752" y="3" transform="rotate(180 76.4922614052752 0)" font-family="Helvetica Neue, Helvetica, Arial, sans-serif">INCLUDED</text></g><g class="relationship" transform="translate(177.36242478966605 347.31393195358373) rotate(390.52562085573624)"><path class="b-outline" fill="#A5ABB6" stroke="none" d="M 25 0.5 L 69.10553678362078 0.5 L 69.10553678362078 -0.5 L 25 -0.5 Z M 116.00006803362078 0.5 L 160.10560481724156 0.5 L 160.10560481724156 3.5 L 167.10560481724156 0 L 160.10560481724156 -3.5 L 160.10560481724156 -0.5 L 116.00006803362078 -0.5 Z"/><text text-anchor="middle" pointer-events="none" font-size="8px" fill="#000000" x="92.55280240862078" y="3" font-family="Helvetica Neue, Helvetica, Arial, sans-serif">INCLUDED</text></g><g class="relationship" transform="translate(221.13349496252587 91.7899642258304) rotate(385.06398264470374)"><path class="b-outline" fill="#A5ABB6" stroke="none" d="M 25 0.5 L 64.93595983194187 0.5 L 64.93595983194187 -0.5 L 25 -0.5 Z M 111.83049108194187 0.5 L 151.76645091388374 0.5 L 151.76645091388374 3.5 L 158.76645091388374 0 L 151.76645091388374 -3.5 L 151.76645091388374 -0.5 L 111.83049108194187 -0.5 Z"/><text text-anchor="middle" pointer-events="none" font-size="8px" fill="#000000" x="88.38322545694187" y="3" font-family="Helvetica Neue, Helvetica, Arial, sans-serif">INCLUDED</text></g><g class="relationship" transform="translate(-0.8433515597504192 -248.6563612710939) rotate(521.6892379883943)"><path class="b-outline" fill="#A5ABB6" stroke="none" d="M 25 0.5 L 58.22118745303459 0.5 L 58.22118745303459 -0.5 L 25 -0.5 Z M 105.11571870303459 0.5 L 138.33690615606918 0.5 L 138.33690615606918 3.5 L 145.33690615606918 0 L 138.33690615606918 -3.5 L 138.33690615606918 -0.5 L 105.11571870303459 -0.5 Z"/><text text-anchor="middle" pointer-events="none" font-size="8px" fill="#000000" x="81.66845307803459" y="3" transform="rotate(180 81.66845307803459 0)" font-family="Helvetica Neue, Helvetica, Arial, sans-serif">INCLUDED</text></g><g class="relationship" transform="translate(318.06216243189283 -307.40440178304476) rotate(387.5206769988857)"><path class="b-outline" fill="#A5ABB6" stroke="none" d="M 25 0.5 L 54.66246101595692 0.5 L 54.66246101595692 -0.5 L 25 -0.5 Z M 101.55699226595692 0.5 L 131.21945328191384 0.5 L 131.21945328191384 3.5 L 138.21945328191384 0 L 131.21945328191384 -3.5 L 131.21945328191384 -0.5 L 101.55699226595692 -0.5 Z"/><text text-anchor="middle" pointer-events="none" font-size="8px" fill="#000000" x="78.10972664095692" y="3" font-family="Helvetica Neue, Helvetica, Arial, sans-serif">INCLUDED</text></g><g class="relationship" transform="translate(19.20402312397373 -402.85177723608035) rotate(208.10487516925338)"><path class="b-outline" fill="#A5ABB6" stroke="none" d="M 25 0.5 L 48.46765244065833 0.5 L 48.46765244065833 -0.5 L 25 -0.5 Z M 95.36218369065833 0.5 L 118.82983613131665 0.5 L 118.82983613131665 3.5 L 125.82983613131665 0 L 118.82983613131665 -3.5 L 118.82983613131665 -0.5 L 95.36218369065833 -0.5 Z"/><text text-anchor="middle" pointer-events="none" font-size="8px" fill="#000000" x="71.91491806565833" y="3" transform="rotate(180 71.91491806565833 0)" font-family="Helvetica Neue, Helvetica, Arial, sans-serif">INCLUDED</text></g><g class="relationship" transform="translate(68.61670514972018 198.8274308556353) rotate(233.56456771547477)"><path class="b-outline" fill="#A5ABB6" stroke="none" d="M 25 0.5 L 47.48171014574501 0.5 L 47.48171014574501 -0.5 L 25 -0.5 Z M 94.37624139574501 0.5 L 116.85795154149002 0.5 L 116.85795154149002 3.5 L 123.85795154149002 0 L 116.85795154149002 -3.5 L 116.85795154149002 -0.5 L 94.37624139574501 -0.5 Z"/><text text-anchor="middle" pointer-events="none" font-size="8px" fill="#000000" x="70.92897577074501" y="3" transform="rotate(180 70.92897577074501 0)" font-family="Helvetica Neue, Helvetica, Arial, sans-serif">INCLUDED</text></g><g class="relationship" transform="translate(151.6793140394109 -324.54149693559157) rotate(314.211179671636)"><path class="b-outline" fill="#A5ABB6" stroke="none" d="M 25 0.5 L 47.33880227991527 0.5 L 47.33880227991527 -0.5 L 25 -0.5 Z M 94.23333352991527 0.5 L 116.57213580983054 0.5 L 116.57213580983054 3.5 L 123.57213580983054 0 L 116.57213580983054 -3.5 L 116.57213580983054 -0.5 L 94.23333352991527 -0.5 Z"/><text text-anchor="middle" pointer-events="none" font-size="8px" fill="#000000" x="70.78606790491527" y="3" font-family="Helvetica Neue, Helvetica, Arial, sans-serif">INCLUDED</text></g><g class="relationship" transform="translate(68.61670514972018 198.8274308556353) rotate(283.43966754085807)"><path class="b-outline" fill="#A5ABB6" stroke="none" d="M 25 0.5 L 47.21724727666738 0.5 L 47.21724727666738 -0.5 L 25 -0.5 Z M 94.11177852666738 0.5 L 116.32902580333476 0.5 L 116.32902580333476 3.5 L 123.32902580333476 0 L 116.32902580333476 -3.5 L 116.32902580333476 -0.5 L 94.11177852666738 -0.5 Z"/><text text-anchor="middle" pointer-events="none" font-size="8px" fill="#000000" x="70.66451290166738" y="3" font-family="Helvetica Neue, Helvetica, Arial, sans-serif">INCLUDED</text></g><g class="relationship" transform="translate(151.6793140394109 -324.54149693559157) rotate(268.2047155757771)"><path class="b-outline" fill="#A5ABB6" stroke="none" d="M 25 0.5 L 47.10478653392238 0.5 L 47.10478653392238 -0.5 L 25 -0.5 Z M 93.99931778392238 0.5 L 116.10410431784476 0.5 L 116.10410431784476 3.5 L 123.10410431784476 0 L 116.10410431784476 -3.5 L 116.10410431784476 -0.5 L 93.99931778392238 -0.5 Z"/><text text-anchor="middle" pointer-events="none" font-size="8px" fill="#000000" x="70.55205215892238" y="3" transform="rotate(180 70.55205215892238 0)" font-family="Helvetica Neue, Helvetica, Arial, sans-serif">INCLUDED</text></g><g class="relationship" transform="translate(-259.6844561227306 215.22187625746412) rotate(214.88294806038135)"><path class="b-outline" fill="#A5ABB6" stroke="none" d="M 25 0.5 L 46.9230870405644 0.5 L 46.9230870405644 -0.5 L 25 -0.5 Z M 93.8176182905644 0.5 L 115.7407053311288 0.5 L 115.7407053311288 3.5 L 122.7407053311288 0 L 115.7407053311288 -3.5 L 115.7407053311288 -0.5 L 93.8176182905644 -0.5 Z"/><text text-anchor="middle" pointer-events="none" font-size="8px" fill="#000000" x="70.3703526655644" y="3" transform="rotate(180 70.3703526655644 0)" font-family="Helvetica Neue, Helvetica, Arial, sans-serif">INCLUDED</text></g><g class="relationship" transform="translate(342.84259989747926 444.8889033780513) rotate(370.7687799015274)"><path class="b-outline" fill="#A5ABB6" stroke="none" d="M 25 0.5 L 48.434596915757496 0.5 L 48.434596915757496 -0.5 L 25 -0.5 Z M 95.3291281657575 0.5 L 118.76372508151499 0.5 L 118.76372508151499 3.5 L 125.76372508151499 0 L 118.76372508151499 -3.5 L 118.76372508151499 -0.5 L 95.3291281657575 -0.5 Z"/><text text-anchor="middle" pointer-events="none" font-size="8px" fill="#000000" x="71.8818625407575" y="3" font-family="Helvetica Neue, Helvetica, Arial, sans-serif">INCLUDED</text></g><g class="relationship" transform="translate(387.5956296497949 169.638960345513) rotate(533.0131025926689)"><path class="b-outline" fill="#A5ABB6" stroke="none" d="M 25 0.5 L 42.180474945767486 0.5 L 42.180474945767486 -0.5 L 25 -0.5 Z M 89.07500619576749 0.5 L 106.25548114153497 0.5 L 106.25548114153497 3.5 L 113.25548114153497 0 L 106.25548114153497 -3.5 L 106.25548114153497 -0.5 L 89.07500619576749 -0.5 Z"/><text text-anchor="middle" pointer-events="none" font-size="8px" fill="#000000" x="65.62774057076749" y="3" transform="rotate(180 65.62774057076749 0)" font-family="Helvetica Neue, Helvetica, Arial, sans-serif">INCLUDED</text></g><g class="relationship" transform="translate(-162.55550106424883 -195.14148201815829) rotate(188.62121514539774)"><path class="b-outline" fill="#A5ABB6" stroke="none" d="M 25 0.5 L 47.72180761190381 0.5 L 47.72180761190381 -0.5 L 25 -0.5 Z M 94.61633886190381 0.5 L 117.33814647380763 0.5 L 117.33814647380763 3.5 L 124.33814647380763 0 L 117.33814647380763 -3.5 L 117.33814647380763 -0.5 L 94.61633886190381 -0.5 Z"/><text text-anchor="middle" pointer-events="none" font-size="8px" fill="#000000" x="71.16907323690381" y="3" transform="rotate(180 71.16907323690381 0)" font-family="Helvetica Neue, Helvetica, Arial, sans-serif">INCLUDED</text></g><g class="relationship" transform="translate(462.8123779118766 -231.98580296189766) rotate(521.3203060177971)"><path class="b-outline" fill="#A5ABB6" stroke="none" d="M 25 0.5 L 44.62030409557845 0.5 L 44.62030409557845 -0.5 L 25 -0.5 Z M 91.51483534557845 0.5 L 111.1351394411569 0.5 L 111.1351394411569 3.5 L 118.1351394411569 0 L 111.1351394411569 -3.5 L 111.1351394411569 -0.5 L 91.51483534557845 -0.5 Z"/><text text-anchor="middle" pointer-events="none" font-size="8px" fill="#000000" x="68.06756972057845" y="3" transform="rotate(180 68.06756972057845 0)" font-family="Helvetica Neue, Helvetica, Arial, sans-serif">INCLUDED</text></g><g class="relationship" transform="translate(-113.8409821837055 -473.90574285433024) rotate(206.50104481952098)"><path class="b-outline" fill="#A5ABB6" stroke="none" d="M 25 0.5 L 44.648274189177215 0.5 L 44.648274189177215 -0.5 L 25 -0.5 Z M 91.54280543917722 0.5 L 111.19107962835443 0.5 L 111.19107962835443 3.5 L 118.19107962835443 0 L 111.19107962835443 -3.5 L 111.19107962835443 -0.5 L 91.54280543917722 -0.5 Z"/><text text-anchor="middle" pointer-events="none" font-size="8px" fill="#000000" x="68.09553981417722" y="3" transform="rotate(180 68.09553981417722 0)" font-family="Helvetica Neue, Helvetica, Arial, sans-serif">INCLUDED</text></g><g class="relationship" transform="translate(-259.6844561227306 215.22187625746412) rotate(525.4907697778754)"><path class="b-outline" fill="#A5ABB6" stroke="none" d="M 25 0.5 L 45.95215495750965 0.5 L 45.95215495750965 -0.5 L 25 -0.5 Z M 92.84668620750965 0.5 L 113.7988411650193 0.5 L 113.7988411650193 3.5 L 120.7988411650193 0 L 113.7988411650193 -3.5 L 113.7988411650193 -0.5 L 92.84668620750965 -0.5 Z"/><text text-anchor="middle" pointer-events="none" font-size="8px" fill="#000000" x="69.39942058250965" y="3" transform="rotate(180 69.39942058250965 0)" font-family="Helvetica Neue, Helvetica, Arial, sans-serif">INCLUDED</text></g><g class="relationship" transform="translate(342.84259989747926 444.8889033780513) rotate(322.2363548482411)"><path class="b-outline" fill="#A5ABB6" stroke="none" d="M 25 0.5 L 52.396406035490614 0.5 L 52.396406035490614 -0.5 L 25 -0.5 Z M 99.29093728549061 0.5 L 126.68734332098123 0.5 L 126.68734332098123 3.5 L 133.68734332098123 0 L 126.68734332098123 -3.5 L 126.68734332098123 -0.5 L 99.29093728549061 -0.5 Z"/><text text-anchor="middle" pointer-events="none" font-size="8px" fill="#000000" x="75.84367166049061" y="3" font-family="Helvetica Neue, Helvetica, Arial, sans-serif">INCLUDED</text></g><g class="relationship" transform="translate(387.5956296497949 169.638960345513) rotate(493.7383032973419)"><path class="b-outline" fill="#A5ABB6" stroke="none" d="M 25 0.5 L 50.34028051124763 0.5 L 50.34028051124763 -0.5 L 25 -0.5 Z M 97.23481176124763 0.5 L 122.57509227249525 0.5 L 122.57509227249525 3.5 L 129.57509227249525 0 L 122.57509227249525 -3.5 L 122.57509227249525 -0.5 L 97.23481176124763 -0.5 Z"/><text text-anchor="middle" pointer-events="none" font-size="8px" fill="#000000" x="73.78754613624763" y="3" transform="rotate(180 73.78754613624763 0)" font-family="Helvetica Neue, Helvetica, Arial, sans-serif">INCLUDED</text></g><g class="relationship" transform="translate(-162.55550106424883 -195.14148201815829) rotate(506.1176976466699)"><path class="b-outline" fill="#A5ABB6" stroke="none" d="M 25 0.5 L 47.175223468365346 0.5 L 47.175223468365346 -0.5 L 25 -0.5 Z M 94.06975471836535 0.5 L 116.24497818673069 0.5 L 116.24497818673069 3.5 L 123.24497818673069 0 L 116.24497818673069 -3.5 L 116.24497818673069 -0.5 L 94.06975471836535 -0.5 Z"/><text text-anchor="middle" pointer-events="none" font-size="8px" fill="#000000" x="70.62248909336535" y="3" transform="rotate(180 70.62248909336535 0)" font-family="Helvetica Neue, Helvetica, Arial, sans-serif">INCLUDED</text></g><g class="relationship" transform="translate(462.8123779118766 -231.98580296189766) rotate(468.09201030550594)"><path class="b-outline" fill="#A5ABB6" stroke="none" d="M 25 0.5 L 45.22541120313011 0.5 L 45.22541120313011 -0.5 L 25 -0.5 Z M 92.11994245313011 0.5 L 112.34535365626022 0.5 L 112.34535365626022 3.5 L 119.34535365626022 0 L 112.34535365626022 -3.5 L 112.34535365626022 -0.5 L 92.11994245313011 -0.5 Z"/><text text-anchor="middle" pointer-events="none" font-size="8px" fill="#000000" x="68.67267682813011" y="3" transform="rotate(180 68.67267682813011 0)" font-family="Helvetica Neue, Helvetica, Arial, sans-serif">INCLUDED</text></g><g class="relationship" transform="translate(-113.8409821837055 -473.90574285433024) rotate(509.6300931254861)"><path class="b-outline" fill="#A5ABB6" stroke="none" d="M 25 0.5 L 46.26027072554734 0.5 L 46.26027072554734 -0.5 L 25 -0.5 Z M 93.15480197554734 0.5 L 114.41507270109469 0.5 L 114.41507270109469 3.5 L 121.41507270109469 0 L 114.41507270109469 -3.5 L 114.41507270109469 -0.5 L 93.15480197554734 -0.5 Z"/><text text-anchor="middle" pointer-events="none" font-size="8px" fill="#000000" x="69.70753635054734" y="3" transform="rotate(180 69.70753635054734 0)" font-family="Helvetica Neue, Helvetica, Arial, sans-serif">INCLUDED</text></g><g class="relationship" transform="translate(-259.6844561227306 215.22187625746412) rotate(464.71854983401886)"><path class="b-outline" fill="#A5ABB6" stroke="none" d="M 25 0.5 L 45.57158925418449 0.5 L 45.57158925418449 -0.5 L 25 -0.5 Z M 92.46612050418449 0.5 L 113.03770975836898 0.5 L 113.03770975836898 3.5 L 120.03770975836898 0 L 113.03770975836898 -3.5 L 113.03770975836898 -0.5 L 92.46612050418449 -0.5 Z"/><text text-anchor="middle" pointer-events="none" font-size="8px" fill="#000000" x="69.01885487918449" y="3" transform="rotate(180 69.01885487918449 0)" font-family="Helvetica Neue, Helvetica, Arial, sans-serif">INCLUDED</text></g><g class="relationship" transform="translate(342.84259989747926 444.8889033780513) rotate(493.75880685314746)"><path class="b-outline" fill="#A5ABB6" stroke="none" d="M 25 0.5 L 45.67656015477196 0.5 L 45.67656015477196 -0.5 L 25 -0.5 Z M 92.57109140477196 0.5 L 113.24765155954393 0.5 L 113.24765155954393 3.5 L 120.24765155954393 0 L 113.24765155954393 -3.5 L 113.24765155954393 -0.5 L 92.57109140477196 -0.5 Z"/><text text-anchor="middle" pointer-events="none" font-size="8px" fill="#000000" x="69.12382577977196" y="3" transform="rotate(180 69.12382577977196 0)" font-family="Helvetica Neue, Helvetica, Arial, sans-serif">INCLUDED</text></g><g class="relationship" transform="translate(387.5956296497949 169.638960345513) rotate(455.52110345921403)"><path class="b-outline" fill="#A5ABB6" stroke="none" d="M 25 0.5 L 47.94147786486002 0.5 L 47.94147786486002 -0.5 L 25 -0.5 Z M 94.83600911486002 0.5 L 117.77748697972004 0.5 L 117.77748697972004 3.5 L 124.77748697972004 0 L 117.77748697972004 -3.5 L 117.77748697972004 -0.5 L 94.83600911486002 -0.5 Z"/><text text-anchor="middle" pointer-events="none" font-size="8px" fill="#000000" x="71.38874348986002" y="3" transform="rotate(180 71.38874348986002 0)" font-family="Helvetica Neue, Helvetica, Arial, sans-serif">INCLUDED</text></g><g class="relationship" transform="translate(68.61670514972018 198.8274308556353) rotate(535.9946892922223)"><path class="b-outline" fill="#A5ABB6" stroke="none" d="M 25 0.5 L 57.450322084147146 0.5 L 57.450322084147146 -0.5 L 25 -0.5 Z M 104.34485333414715 0.5 L 136.7951754182943 0.5 L 136.7951754182943 3.5 L 143.7951754182943 0 L 136.7951754182943 -3.5 L 136.7951754182943 -0.5 L 104.34485333414715 -0.5 Z"/><text text-anchor="middle" pointer-events="none" font-size="8px" fill="#000000" x="80.89758770914715" y="3" transform="rotate(180 80.89758770914715 0)" font-family="Helvetica Neue, Helvetica, Arial, sans-serif">INCLUDED</text></g><g class="relationship" transform="translate(68.61670514972018 198.8274308556353) rotate(413.7824077536877)"><path class="b-outline" fill="#A5ABB6" stroke="none" d="M 25 0.5 L 65.07701452475281 0.5 L 65.07701452475281 -0.5 L 25 -0.5 Z M 111.97154577475281 0.5 L 152.04856029950562 0.5 L 152.04856029950562 3.5 L 159.04856029950562 0 L 152.04856029950562 -3.5 L 152.04856029950562 -0.5 L 111.97154577475281 -0.5 Z"/><text text-anchor="middle" pointer-events="none" font-size="8px" fill="#000000" x="88.52428014975281" y="3" font-family="Helvetica Neue, Helvetica, Arial, sans-serif">INCLUDED</text></g><g class="relationship" transform="translate(68.61670514972018 198.8274308556353) rotate(324.9385240434316)"><path class="b-outline" fill="#A5ABB6" stroke="none" d="M 25 0.5 L 66.21709241675617 0.5 L 66.21709241675617 -0.5 L 25 -0.5 Z M 113.11162366675617 0.5 L 154.32871608351235 0.5 L 154.32871608351235 3.5 L 161.32871608351235 0 L 154.32871608351235 -3.5 L 154.32871608351235 -0.5 L 113.11162366675617 -0.5 Z"/><text text-anchor="middle" pointer-events="none" font-size="8px" fill="#000000" x="89.66435804175617" y="3" font-family="Helvetica Neue, Helvetica, Arial, sans-serif">INCLUDED</text></g><g class="relationship" transform="translate(151.6793140394109 -324.54149693559157) rotate(513.5481163532231)"><path class="b-outline" fill="#A5ABB6" stroke="none" d="M 25 0.5 L 58.23154238540363 0.5 L 58.23154238540363 -0.5 L 25 -0.5 Z M 105.12607363540363 0.5 L 138.35761602080726 0.5 L 138.35761602080726 3.5 L 145.35761602080726 0 L 138.35761602080726 -3.5 L 138.35761602080726 -0.5 L 105.12607363540363 -0.5 Z"/><text text-anchor="middle" pointer-events="none" font-size="8px" fill="#000000" x="81.67880801040363" y="3" transform="rotate(180 81.67880801040363 0)" font-family="Helvetica Neue, Helvetica, Arial, sans-serif">INCLUDED</text></g><g class="relationship" transform="translate(151.6793140394109 -324.54149693559157) rotate(365.88061233479715)"><path class="b-outline" fill="#A5ABB6" stroke="none" d="M 25 0.5 L 56.684265912846215 0.5 L 56.684265912846215 -0.5 L 25 -0.5 Z M 103.57879716284621 0.5 L 135.26306307569243 0.5 L 135.26306307569243 3.5 L 142.26306307569243 0 L 135.26306307569243 -3.5 L 135.26306307569243 -0.5 L 103.57879716284621 -0.5 Z"/><text text-anchor="middle" pointer-events="none" font-size="8px" fill="#000000" x="80.13153153784621" y="3" font-family="Helvetica Neue, Helvetica, Arial, sans-serif">INCLUDED</text></g><g class="relationship" transform="translate(151.6793140394109 -324.54149693559157) rotate(210.5886591687842)"><path class="b-outline" fill="#A5ABB6" stroke="none" d="M 25 0.5 L 49.99784907351551 0.5 L 49.99784907351551 -0.5 L 25 -0.5 Z M 96.89238032351551 0.5 L 121.89022939703102 0.5 L 121.89022939703102 3.5 L 128.89022939703102 0 L 121.89022939703102 -3.5 L 121.89022939703102 -0.5 L 96.89238032351551 -0.5 Z"/><text text-anchor="middle" pointer-events="none" font-size="8px" fill="#000000" x="73.44511469851551" y="3" transform="rotate(180 73.44511469851551 0)" font-family="Helvetica Neue, Helvetica, Arial, sans-serif">INCLUDED</text></g></g><g class="layer nodes"><g class="node" aria-label="graph-node2414" transform="translate(-99.76620160575091,210.61759442833727)" style="touch-action: none; -webkit-tap-highlight-color: rgba(0, 0, 0, 0);"><circle class="b-outline" cx="0" cy="0" r="25" fill="#C990C0" stroke="#b261a5" stroke-width="2px"/><text class="caption" text-anchor="middle" pointer-events="none" x="0" y="5" font-size="10px" fill="#FFFFFF" font-family="Helvetica Neue, Helvetica, Arial, sans-serif"> Entity2_ID</text></g><g class="node" aria-label="graph-node2503" transform="translate(-259.6844561227306,215.22187625746412)" style="touch-action: none; -webkit-tap-highlight-color: rgba(0, 0, 0, 0);"><circle class="b-outline" cx="0" cy="0" r="25" fill="#F79767" stroke="#f36924" stroke-width="2px"/><text class="caption" text-anchor="middle" pointer-events="none" x="0" y="5" font-size="10px" fill="#FFFFFF" font-family="Helvetica Neue, Helvetica, Arial, sans-serif"> m1</text></g><g class="node" aria-label="graph-node2415" transform="translate(177.36242478966605,347.31393195358373)" style="touch-action: none; -webkit-tap-highlight-color: rgba(0, 0, 0, 0);"><circle class="b-outline" cx="0" cy="0" r="25" fill="#C990C0" stroke="#b261a5" stroke-width="2px"/><text class="caption" text-anchor="middle" pointer-events="none" x="0" y="5" font-size="10px" fill="#FFFFFF" font-family="Helvetica Neue, Helvetica, Arial, sans-serif"> Entity2_ID</text></g><g class="node" aria-label="graph-node2504" transform="translate(342.84259989747926,444.8889033780513)" style="touch-action: none; -webkit-tap-highlight-color: rgba(0, 0, 0, 0);"><circle class="b-outline" cx="0" cy="0" r="25" fill="#F79767" stroke="#f36924" stroke-width="2px"/><text class="caption" text-anchor="middle" pointer-events="none" x="0" y="5" font-size="10px" fill="#FFFFFF" font-family="Helvetica Neue, Helvetica, Arial, sans-serif"> m2</text></g><g class="node" aria-label="graph-node2416" transform="translate(221.13349496252587,91.7899642258304)" style="touch-action: none; -webkit-tap-highlight-color: rgba(0, 0, 0, 0);"><circle class="b-outline" cx="0" cy="0" r="25" fill="#C990C0" stroke="#b261a5" stroke-width="2px"/><text class="caption" text-anchor="middle" pointer-events="none" x="0" y="5" font-size="10px" fill="#FFFFFF" font-family="Helvetica Neue, Helvetica, Arial, sans-serif"> Entity2_ID</text></g><g class="node" aria-label="graph-node2505" transform="translate(387.5956296497949,169.638960345513)" style="touch-action: none; -webkit-tap-highlight-color: rgba(0, 0, 0, 0);"><circle class="b-outline" cx="0" cy="0" r="25" fill="#F79767" stroke="#f36924" stroke-width="2px"/><text class="caption" text-anchor="middle" pointer-events="none" x="0" y="5" font-size="10px" fill="#FFFFFF" font-family="Helvetica Neue, Helvetica, Arial, sans-serif"> m3</text></g><g class="node" aria-label="graph-node2417" transform="translate(-0.8433515597504192,-248.6563612710939)" style="touch-action: none; -webkit-tap-highlight-color: rgba(0, 0, 0, 0);"><circle class="b-outline" cx="0" cy="0" r="25" fill="#C990C0" stroke="#b261a5" stroke-width="2px"/><text class="caption" text-anchor="middle" pointer-events="none" x="0" y="5" font-size="10px" fill="#FFFFFF" font-family="Helvetica Neue, Helvetica, Arial, sans-serif"> Entity2_ID</text></g><g class="node" aria-label="graph-node2506" transform="translate(-162.55550106424883,-195.14148201815829)" style="touch-action: none; -webkit-tap-highlight-color: rgba(0, 0, 0, 0);"><circle class="b-outline" cx="0" cy="0" r="25" fill="#F79767" stroke="#f36924" stroke-width="2px"/><text class="caption" text-anchor="middle" pointer-events="none" x="0" y="5" font-size="10px" fill="#FFFFFF" font-family="Helvetica Neue, Helvetica, Arial, sans-serif"> m4</text></g><g class="node" aria-label="graph-node2418" transform="translate(318.06216243189283,-307.40440178304476)" style="touch-action: none; -webkit-tap-highlight-color: rgba(0, 0, 0, 0);"><circle class="b-outline" cx="0" cy="0" r="25" fill="#C990C0" stroke="#b261a5" stroke-width="2px"/><text class="caption" text-anchor="middle" pointer-events="none" x="0" y="5" font-size="10px" fill="#FFFFFF" font-family="Helvetica Neue, Helvetica, Arial, sans-serif"> Entity2_ID</text></g><g class="node" aria-label="graph-node2507" transform="translate(462.8123779118766,-231.98580296189766)" style="touch-action: none; -webkit-tap-highlight-color: rgba(0, 0, 0, 0);"><circle class="b-outline" cx="0" cy="0" r="25" fill="#F79767" stroke="#f36924" stroke-width="2px"/><text class="caption" text-anchor="middle" pointer-events="none" x="0" y="5" font-size="10px" fill="#FFFFFF" font-family="Helvetica Neue, Helvetica, Arial, sans-serif"> m5</text></g><g class="node" aria-label="graph-node2419" transform="translate(19.20402312397373,-402.85177723608035)" style="touch-action: none; -webkit-tap-highlight-color: rgba(0, 0, 0, 0);"><circle class="b-outline" cx="0" cy="0" r="25" fill="#C990C0" stroke="#b261a5" stroke-width="2px"/><text class="caption" text-anchor="middle" pointer-events="none" x="0" y="5" font-size="10px" fill="#FFFFFF" font-family="Helvetica Neue, Helvetica, Arial, sans-serif"> Entity2_ID</text></g><g class="node" aria-label="graph-node2508" transform="translate(-113.8409821837055,-473.90574285433024)" style="touch-action: none; -webkit-tap-highlight-color: rgba(0, 0, 0, 0);"><circle class="b-outline" cx="0" cy="0" r="25" fill="#F79767" stroke="#f36924" stroke-width="2px"/><text class="caption" text-anchor="middle" pointer-events="none" x="0" y="5" font-size="10px" fill="#FFFFFF" font-family="Helvetica Neue, Helvetica, Arial, sans-serif"> m6</text></g><g class="node" aria-label="graph-node2412" transform="translate(68.61670514972018,198.8274308556353)" style="touch-action: none; -webkit-tap-highlight-color: rgba(0, 0, 0, 0);"><circle class="b-outline" cx="0" cy="0" r="25" fill="#57C7E3" stroke="#23b3d7" stroke-width="2px"/><text class="caption" text-anchor="middle" pointer-events="none" x="0" y="5" font-size="10px" fill="#2A2C34" font-family="Helvetica Neue, Helvetica, Arial, sans-serif"> Entity1_ID</text></g><g class="node" aria-label="graph-node2512" transform="translate(-19.792492519914205,79.0672392035671)" style="touch-action: none; -webkit-tap-highlight-color: rgba(0, 0, 0, 0);"><circle class="b-outline" cx="0" cy="0" r="25" fill="#F16667" stroke="#eb2728" stroke-width="2px"/><text class="caption" text-anchor="middle" pointer-events="none" x="0" y="5" font-size="10px" fill="#FFFFFF" font-family="Helvetica Neue, Helvetica, Arial, sans-serif"> age1</text></g><g class="node" aria-label="graph-node2413" transform="translate(151.6793140394109,-324.54149693559157)" style="touch-action: none; -webkit-tap-highlight-color: rgba(0, 0, 0, 0);"><circle class="b-outline" cx="0" cy="0" r="25" fill="#57C7E3" stroke="#23b3d7" stroke-width="2px"/><text class="caption" text-anchor="middle" pointer-events="none" x="0" y="5" font-size="10px" fill="#2A2C34" font-family="Helvetica Neue, Helvetica, Arial, sans-serif"> Entity1_ID</text></g><g class="node" aria-label="graph-node2513" transform="translate(255.279403437055,-431.03422446144134)" style="touch-action: none; -webkit-tap-highlight-color: rgba(0, 0, 0, 0);"><circle class="b-outline" cx="0" cy="0" r="25" fill="#F16667" stroke="#eb2728" stroke-width="2px"/><text class="caption" text-anchor="middle" pointer-events="none" x="0" y="5" font-size="10px" fill="#FFFFFF" font-family="Helvetica Neue, Helvetica, Arial, sans-serif"> age2</text></g><g class="node" aria-label="graph-node2514" transform="translate(103.09153446206996,54.560365869718645)" style="touch-action: none; -webkit-tap-highlight-color: rgba(0, 0, 0, 0);"><circle class="b-outline" cx="0" cy="0" r="25" fill="#D9C8AE" stroke="#c0a378" stroke-width="2px"/><text class="caption" text-anchor="middle" pointer-events="none" x="0" y="5" font-size="10px" fill="#2A2C34" font-family="Helvetica Neue, Helvetica, Arial, sans-serif"> gender1</text></g><g class="node" aria-label="graph-node2515" transform="translate(147.0394350131495,-472.5729031925501)" style="touch-action: none; -webkit-tap-highlight-color: rgba(0, 0, 0, 0);"><circle class="b-outline" cx="0" cy="0" r="25" fill="#D9C8AE" stroke="#c0a378" stroke-width="2px"/><text class="caption" text-anchor="middle" pointer-events="none" x="0" y="5" font-size="10px" fill="#2A2C34" font-family="Helvetica Neue, Helvetica, Arial, sans-serif"> gender2</text></g><g class="node" aria-label="graph-node2516" transform="translate(-380.87942433249145,130.72870675616966)" style="touch-action: none; -webkit-tap-highlight-color: rgba(0, 0, 0, 0);"><circle class="b-outline" cx="0" cy="0" r="25" fill="#8DCC93" stroke="#5db665" stroke-width="2px"/><text class="caption" text-anchor="middle" pointer-events="none" x="0" y="5" font-size="10px" fill="#2A2C34" font-family="Helvetica Neue, Helvetica, Arial, sans-serif"> n1</text></g><g class="node" aria-label="graph-node2517" transform="translate(490.95125633942627,473.05850911572423)" style="touch-action: none; -webkit-tap-highlight-color: rgba(0, 0, 0, 0);"><circle class="b-outline" cx="0" cy="0" r="25" fill="#8DCC93" stroke="#5db665" stroke-width="2px"/><text class="caption" text-anchor="middle" pointer-events="none" x="0" y="5" font-size="10px" fill="#2A2C34" font-family="Helvetica Neue, Helvetica, Arial, sans-serif"> n2</text></g><g class="node" aria-label="graph-node2518" transform="translate(250.3668343773836,186.456683549323)" style="touch-action: none; -webkit-tap-highlight-color: rgba(0, 0, 0, 0);"><circle class="b-outline" cx="0" cy="0" r="25" fill="#8DCC93" stroke="#5db665" stroke-width="2px"/><text class="caption" text-anchor="middle" pointer-events="none" x="0" y="5" font-size="10px" fill="#2A2C34" font-family="Helvetica Neue, Helvetica, Arial, sans-serif"> n3</text></g><g class="node" aria-label="graph-node2519" transform="translate(-310.2062674875478,-217.52748583404352)" style="touch-action: none; -webkit-tap-highlight-color: rgba(0, 0, 0, 0);"><circle class="b-outline" cx="0" cy="0" r="25" fill="#8DCC93" stroke="#5db665" stroke-width="2px"/><text class="caption" text-anchor="middle" pointer-events="none" x="0" y="5" font-size="10px" fill="#2A2C34" font-family="Helvetica Neue, Helvetica, Arial, sans-serif"> n4</text></g><g class="node" aria-label="graph-node2520" transform="translate(327.2170471612668,-186.1428708842898)" style="touch-action: none; -webkit-tap-highlight-color: rgba(0, 0, 0, 0);"><circle class="b-outline" cx="0" cy="0" r="25" fill="#8DCC93" stroke="#5db665" stroke-width="2px"/><text class="caption" text-anchor="middle" pointer-events="none" x="0" y="5" font-size="10px" fill="#2A2C34" font-family="Helvetica Neue, Helvetica, Arial, sans-serif"> n5</text></g><g class="node" aria-label="graph-node2521" transform="translate(-241.98643449980494,-537.7996262535729)" style="touch-action: none; -webkit-tap-highlight-color: rgba(0, 0, 0, 0);"><circle class="b-outline" cx="0" cy="0" r="25" fill="#8DCC93" stroke="#5db665" stroke-width="2px"/><text class="caption" text-anchor="middle" pointer-events="none" x="0" y="5" font-size="10px" fill="#2A2C34" font-family="Helvetica Neue, Helvetica, Arial, sans-serif"> n6</text></g><g class="node" aria-label="graph-node2525" transform="translate(-400.83337744246046,251.74972994939665)" style="touch-action: none; -webkit-tap-highlight-color: rgba(0, 0, 0, 0);"><circle class="b-outline" cx="0" cy="0" r="25" fill="#ECB5C9" stroke="#da7298" stroke-width="2px"/><text class="caption" text-anchor="middle" pointer-events="none" x="0" y="5" font-size="10px" fill="#2A2C34" font-family="Helvetica Neue, Helvetica, Arial, sans-serif"> t1</text></g><g class="node" aria-label="graph-node2526" transform="translate(468.29188737155636,347.7078908163511)" style="touch-action: none; -webkit-tap-highlight-color: rgba(0, 0, 0, 0);"><circle class="b-outline" cx="0" cy="0" r="25" fill="#ECB5C9" stroke="#da7298" stroke-width="2px"/><text class="caption" text-anchor="middle" pointer-events="none" x="0" y="5" font-size="10px" fill="#2A2C34" font-family="Helvetica Neue, Helvetica, Arial, sans-serif"> t2</text></g><g class="node" aria-label="graph-node2527" transform="translate(280.72773230421507,281.3202554131519)" style="touch-action: none; -webkit-tap-highlight-color: rgba(0, 0, 0, 0);"><circle class="b-outline" cx="0" cy="0" r="25" fill="#ECB5C9" stroke="#da7298" stroke-width="2px"/><text class="caption" text-anchor="middle" pointer-events="none" x="0" y="5" font-size="10px" fill="#2A2C34" font-family="Helvetica Neue, Helvetica, Arial, sans-serif"> t3</text></g><g class="node" aria-label="graph-node2528" transform="translate(-285.6261875727267,-112.49658090552927)" style="touch-action: none; -webkit-tap-highlight-color: rgba(0, 0, 0, 0);"><circle class="b-outline" cx="0" cy="0" r="25" fill="#ECB5C9" stroke="#da7298" stroke-width="2px"/><text class="caption" text-anchor="middle" pointer-events="none" x="0" y="5" font-size="10px" fill="#2A2C34" font-family="Helvetica Neue, Helvetica, Arial, sans-serif"> t4</text></g><g class="node" aria-label="graph-node2529" transform="translate(417.98681164922374,-94.77702142302034)" style="touch-action: none; -webkit-tap-highlight-color: rgba(0, 0, 0, 0);"><circle class="b-outline" cx="0" cy="0" r="25" fill="#ECB5C9" stroke="#da7298" stroke-width="2px"/><text class="caption" text-anchor="middle" pointer-events="none" x="0" y="5" font-size="10px" fill="#2A2C34" font-family="Helvetica Neue, Helvetica, Arial, sans-serif"> t5</text></g><g class="node" aria-label="graph-node2530" transform="translate(-240.1648807109243,-399.88111063672466)" style="touch-action: none; -webkit-tap-highlight-color: rgba(0, 0, 0, 0);"><circle class="b-outline" cx="0" cy="0" r="25" fill="#ECB5C9" stroke="#da7298" stroke-width="2px"/><text class="caption" text-anchor="middle" pointer-events="none" x="0" y="5" font-size="10px" fill="#2A2C34" font-family="Helvetica Neue, Helvetica, Arial, sans-serif"> t6</text></g><g class="node" aria-label="graph-node2534" transform="translate(-296.5343450898731,355.5002528344054)" style="touch-action: none; -webkit-tap-highlight-color: rgba(0, 0, 0, 0);"><circle class="b-outline" cx="0" cy="0" r="25" fill="#4C8EDA" stroke="#2870c2" stroke-width="2px"/><text class="caption" text-anchor="middle" pointer-events="none" x="0" y="5" font-size="10px" fill="#FFFFFF" font-family="Helvetica Neue, Helvetica, Arial, sans-serif"> u1</text></g><g class="node" aria-label="graph-node2535" transform="translate(242.38582634772678,549.7951326093817)" style="touch-action: none; -webkit-tap-highlight-color: rgba(0, 0, 0, 0);"><circle class="b-outline" cx="0" cy="0" r="25" fill="#4C8EDA" stroke="#2870c2" stroke-width="2px"/><text class="caption" text-anchor="middle" pointer-events="none" x="0" y="5" font-size="10px" fill="#FFFFFF" font-family="Helvetica Neue, Helvetica, Arial, sans-serif"> u2</text></g><g class="node" aria-label="graph-node2536" transform="translate(373.185181881549,318.72160387278234)" style="touch-action: none; -webkit-tap-highlight-color: rgba(0, 0, 0, 0);"><circle class="b-outline" cx="0" cy="0" r="25" fill="#4C8EDA" stroke="#2870c2" stroke-width="2px"/><text class="caption" text-anchor="middle" pointer-events="none" x="0" y="5" font-size="10px" fill="#FFFFFF" font-family="Helvetica Neue, Helvetica, Arial, sans-serif"> u3</text></g></g></svg>