<svg xmlns="http://www.w3.org/2000/svg" width="546.0111694335938" height="563.8056030273438" viewBox="-257.38311767578125 -286.0173645019531 546.0111694335938 563.8056030273438"><title>Neo4j Graph Visualization</title><desc>Created using Neo4j (http://www.neo4j.com/)</desc><g class="layer relationships"><g class="relationship" transform="translate(-78.39706137335745 235.10706113382236) rotate(365.472768064095)"><path class="b-outline" fill="#A5ABB6" stroke="none" d="M 25 0.5 L 44.77731118335046 0.5 L 44.77731118335046 -0.5 L 25 -0.5 Z M 91.67184243335046 0.5 L 111.44915361670093 0.5 L 111.44915361670093 3.5 L 118.44915361670093 0 L 111.44915361670093 -3.5 L 111.44915361670093 -0.5 L 91.67184243335046 -0.5 Z"/><text text-anchor="middle" pointer-events="none" font-size="8px" fill="#000000" x="68.22457680835046" y="3" font-family="Helvetica Neue, Helvetica, Arial, sans-serif">INCLUDED</text></g><g class="relationship" transform="translate(259.6280289034682 12.15858799911545) rotate(223.7066565990017)"><path class="b-outline" fill="#A5ABB6" stroke="none" d="M 25 0.5 L 44.51860917515272 0.5 L 44.51860917515272 -0.5 L 25 -0.5 Z M 91.41314042515272 0.5 L 110.93174960030544 0.5 L 110.93174960030544 3.5 L 117.93174960030544 0 L 110.93174960030544 -3.5 L 110.93174960030544 -0.5 L 91.41314042515272 -0.5 Z"/><text text-anchor="middle" pointer-events="none" font-size="8px" fill="#000000" x="67.96587480015272" y="3" transform="rotate(180 67.96587480015272 0)" font-family="Helvetica Neue, Helvetica, Arial, sans-serif">INCLUDED</text></g><g class="relationship" transform="translate(-33.52322219980999 -257.0173499660087) rotate(512.0855663728732)"><path class="b-outline" fill="#A5ABB6" stroke="none" d="M 25 0.5 L 45.10519506632609 0.5 L 45.10519506632609 -0.5 L 25 -0.5 Z M 91.99972631632609 0.5 L 112.10492138265218 0.5 L 112.10492138265218 3.5 L 119.10492138265218 0 L 112.10492138265218 -3.5 L 112.10492138265218 -0.5 L 91.99972631632609 -0.5 Z"/><text text-anchor="middle" pointer-events="none" font-size="8px" fill="#000000" x="68.55246069132609" y="3" transform="rotate(180 68.55246069132609 0)" font-family="Helvetica Neue, Helvetica, Arial, sans-serif">INCLUDED</text></g><g class="relationship" transform="translate(13.376356820379174 -71.86607701300193) rotate(354.1134144295627)"><path class="b-outline" fill="#A5ABB6" stroke="none" d="M 25 0.5 L 44.89566564458515 0.5 L 44.89566564458515 -0.5 L 25 -0.5 Z M 91.79019689458515 0.5 L 111.6858625391703 0.5 L 111.6858625391703 3.5 L 118.6858625391703 0 L 111.6858625391703 -3.5 L 111.6858625391703 -0.5 L 91.79019689458515 -0.5 Z"/><text text-anchor="middle" pointer-events="none" font-size="8px" fill="#000000" x="68.34293126958515" y="3" font-family="Helvetica Neue, Helvetica, Arial, sans-serif">INCLUDED</text></g><g class="relationship" transform="translate(85.60119557219008 40.35960952192864) rotate(299.11280601800433)"><path class="b-outline" fill="#A5ABB6" stroke="none" d="M 25 0.5 L 45.713465763289534 0.5 L 45.713465763289534 -0.5 L 25 -0.5 Z M 92.60799701328953 0.5 L 113.32146277657907 0.5 L 113.32146277657907 3.5 L 120.32146277657907 0 L 113.32146277657907 -3.5 L 113.32146277657907 -0.5 L 92.60799701328953 -0.5 Z"/><text text-anchor="middle" pointer-events="none" font-size="8px" fill="#000000" x="69.16073138828953" y="3" font-family="Helvetica Neue, Helvetica, Arial, sans-serif">INCLUDED</text></g><g class="relationship" transform="translate(-228.3831388842526 -62.67111473659011) rotate(298.02004653515655)"><path class="b-outline" fill="#A5ABB6" stroke="none" d="M 25 0.5 L 44.91814486572012 0.5 L 44.91814486572012 -0.5 L 25 -0.5 Z M 91.81267611572012 0.5 L 111.73082098144025 0.5 L 111.73082098144025 3.5 L 118.73082098144025 0 L 111.73082098144025 -3.5 L 111.73082098144025 -0.5 L 91.81267611572012 -0.5 Z"/><text text-anchor="middle" pointer-events="none" font-size="8px" fill="#000000" x="68.36541049072012" y="3" font-family="Helvetica Neue, Helvetica, Arial, sans-serif">INCLUDED</text></g></g><g class="layer nodes"><g class="node" aria-label="graph-node2516" transform="translate(-78.39706137335745,235.10706113382236)" style="touch-action: none; -webkit-tap-highlight-color: rgba(0, 0, 0, 0);"><circle class="b-outline" cx="0" cy="0" r="25" fill="#C990C0" stroke="#b261a5" stroke-width="2px"/><text class="caption" text-anchor="middle" pointer-events="none" x="0" y="5" font-size="10px" fill="#FFFFFF" font-family="Helvetica Neue, Helvetica, Arial, sans-serif"> n1</text></g><g class="node" aria-label="graph-node2544" transform="translate(64.3981993840444,248.78818603543291)" style="touch-action: none; -webkit-tap-highlight-color: rgba(0, 0, 0, 0);"><circle class="b-outline" cx="0" cy="0" r="25" fill="#F79767" stroke="#f36924" stroke-width="2px"/><text class="caption" text-anchor="middle" pointer-events="none" x="0" y="5" font-size="10px" fill="#FFFFFF" font-family="Helvetica Neue, Helvetica, Arial, sans-serif"> D02</text></g><g class="node" aria-label="graph-node2517" transform="translate(259.6280289034682,12.15858799911545)" style="touch-action: none; -webkit-tap-highlight-color: rgba(0, 0, 0, 0);"><circle class="b-outline" cx="0" cy="0" r="25" fill="#C990C0" stroke="#b261a5" stroke-width="2px"/><text class="caption" text-anchor="middle" pointer-events="none" x="0" y="5" font-size="10px" fill="#FFFFFF" font-family="Helvetica Neue, Helvetica, Arial, sans-serif"> n2</text></g><g class="node" aria-label="graph-node2559" transform="translate(156.30454315244768,-86.60244852877379)" style="touch-action: none; -webkit-tap-highlight-color: rgba(0, 0, 0, 0);"><circle class="b-outline" cx="0" cy="0" r="25" fill="#F79767" stroke="#f36924" stroke-width="2px"/><text class="caption" text-anchor="middle" pointer-events="none" x="0" y="5" font-size="10px" fill="#FFFFFF" font-family="Helvetica Neue, Helvetica, Arial, sans-serif"> Nothing</text></g><g class="node" aria-label="graph-node2518" transform="translate(-33.52322219980999,-257.0173499660087)" style="touch-action: none; -webkit-tap-highlight-color: rgba(0, 0, 0, 0);"><circle class="b-outline" cx="0" cy="0" r="25" fill="#C990C0" stroke="#b261a5" stroke-width="2px"/><text class="caption" text-anchor="middle" pointer-events="none" x="0" y="5" font-size="10px" fill="#FFFFFF" font-family="Helvetica Neue, Helvetica, Arial, sans-serif"> n3</text></g><g class="node" aria-label="graph-node2558" transform="translate(-160.86120797206485,-189.55428046746462)" style="touch-action: none; -webkit-tap-highlight-color: rgba(0, 0, 0, 0);"><circle class="b-outline" cx="0" cy="0" r="25" fill="#F79767" stroke="#f36924" stroke-width="2px"/><text class="caption" text-anchor="middle" pointer-events="none" x="0" y="5" font-size="10px" fill="#FFFFFF" font-family="Helvetica Neue, Helvetica, Arial, sans-serif"> UNK</text></g><g class="node" aria-label="graph-node2519" transform="translate(13.376356820379174,-71.86607701300193)" style="touch-action: none; -webkit-tap-highlight-color: rgba(0, 0, 0, 0);"><circle class="b-outline" cx="0" cy="0" r="25" fill="#C990C0" stroke="#b261a5" stroke-width="2px"/><text class="caption" text-anchor="middle" pointer-events="none" x="0" y="5" font-size="10px" fill="#FFFFFF" font-family="Helvetica Neue, Helvetica, Arial, sans-serif"> n4</text></g><g class="node" aria-label="graph-node2520" transform="translate(85.60119557219008,40.35960952192864)" style="touch-action: none; -webkit-tap-highlight-color: rgba(0, 0, 0, 0);"><circle class="b-outline" cx="0" cy="0" r="25" fill="#C990C0" stroke="#b261a5" stroke-width="2px"/><text class="caption" text-anchor="middle" pointer-events="none" x="0" y="5" font-size="10px" fill="#FFFFFF" font-family="Helvetica Neue, Helvetica, Arial, sans-serif"> n5</text></g><g class="node" aria-label="graph-node2521" transform="translate(-228.3831388842526,-62.67111473659011)" style="touch-action: none; -webkit-tap-highlight-color: rgba(0, 0, 0, 0);"><circle class="b-outline" cx="0" cy="0" r="25" fill="#C990C0" stroke="#b261a5" stroke-width="2px"/><text class="caption" text-anchor="middle" pointer-events="none" x="0" y="5" font-size="10px" fill="#FFFFFF" font-family="Helvetica Neue, Helvetica, Arial, sans-serif"> n6</text></g></g></svg>