<svg xmlns="http://www.w3.org/2000/svg" width="568.8510131835938" height="553.0248413085938" viewBox="-235.99191284179688 -205.8924560546875 568.8510131835938 553.0248413085938"><title>Neo4j Graph Visualization</title><desc>Created using Neo4j (http://www.neo4j.com/)</desc><g class="layer relationships"><g class="relationship" transform="translate(36.12366179910911 132.3742512335708) rotate(524.2011137090794)"><path class="b-outline" fill="#A5ABB6" stroke="none" d="M 25 0.5 L 71.92454187872129 0.5 L 71.92454187872129 -0.5 L 25 -0.5 Z M 93.48704187872129 0.5 L 140.41158375744257 0.5 L 140.41158375744257 3.5 L 147.41158375744257 0 L 140.41158375744257 -3.5 L 140.41158375744257 -0.5 L 93.48704187872129 -0.5 Z"/><text text-anchor="middle" pointer-events="none" font-size="8px" fill="#000000" x="82.70579187872129" y="3" transform="rotate(180 82.70579187872129 0)" font-family="Helvetica Neue, Helvetica, Arial, sans-serif">REL</text></g><g class="relationship" transform="translate(36.12366179910911 132.3742512335708) rotate(436.4901565569484)"><path class="b-outline" fill="#A5ABB6" stroke="none" d="M 25 0.5 L 38.391988685324 0.5 L 38.391988685324 -0.5 L 25 -0.5 Z M 59.954488685324 0.5 L 73.346477370648 0.5 L 73.346477370648 3.5 L 80.346477370648 0 L 73.346477370648 -3.5 L 73.346477370648 -0.5 L 59.954488685324 -0.5 Z"/><text text-anchor="middle" pointer-events="none" font-size="8px" fill="#000000" x="49.173238685324" y="3" font-family="Helvetica Neue, Helvetica, Arial, sans-serif">REL</text></g><g class="relationship" transform="translate(-59.305021372561825 107.3014227370178) rotate(406.727404771242)"><path class="b-outline" fill="#A5ABB6" stroke="none" d="M 25 0.5 L 73.27830537594521 0.5 L 73.27830537594521 -0.5 L 25 -0.5 Z M 94.84080537594521 0.5 L 143.11911075189042 0.5 L 143.11911075189042 3.5 L 150.11911075189042 0 L 143.11911075189042 -3.5 L 143.11911075189042 -0.5 L 94.84080537594521 -0.5 Z"/><text text-anchor="middle" pointer-events="none" font-size="8px" fill="#000000" x="84.05955537594521" y="3" font-family="Helvetica Neue, Helvetica, Arial, sans-serif">REL</text></g><g class="relationship" transform="translate(-59.305021372561825 107.3014227370178) rotate(494.37910196862657)"><path class="b-outline" fill="#A5ABB6" stroke="none" d="M 25 0.5 L 36.0972785074398 0.5 L 36.0972785074398 -0.5 L 25 -0.5 Z M 57.6597785074398 0.5 L 68.7570570148796 0.5 L 68.7570570148796 3.5 L 75.7570570148796 0 L 68.7570570148796 -3.5 L 68.7570570148796 -0.5 L 57.6597785074398 -0.5 Z"/><text text-anchor="middle" pointer-events="none" font-size="8px" fill="#000000" x="46.8785285074398" y="3" transform="rotate(180 46.8785285074398 0)" font-family="Helvetica Neue, Helvetica, Arial, sans-serif">REL</text></g><g class="relationship" transform="translate(303.85909609518825 256.04711057666185) rotate(206.64244507883143)"><path class="b-outline" fill="#A5ABB6" stroke="none" d="M 25 0.5 L 78.51023004975431 0.5 L 78.51023004975431 -0.5 L 25 -0.5 Z M 100.07273004975431 0.5 L 153.58296009950863 0.5 L 153.58296009950863 3.5 L 160.58296009950863 0 L 153.58296009950863 -3.5 L 153.58296009950863 -0.5 L 100.07273004975431 -0.5 Z"/><text text-anchor="middle" pointer-events="none" font-size="8px" fill="#000000" x="89.29148004975431" y="3" transform="rotate(180 89.29148004975431 0)" font-family="Helvetica Neue, Helvetica, Arial, sans-serif">REL</text></g><g class="relationship" transform="translate(303.85909609518825 256.04711057666185) rotate(509.83353924047765)"><path class="b-outline" fill="#A5ABB6" stroke="none" d="M 25 0.5 L 47.49344187907407 0.5 L 47.49344187907407 -0.5 L 25 -0.5 Z M 69.05594187907407 0.5 L 91.54938375814814 0.5 L 91.54938375814814 3.5 L 98.54938375814814 0 L 91.54938375814814 -3.5 L 91.54938375814814 -0.5 L 69.05594187907407 -0.5 Z"/><text text-anchor="middle" pointer-events="none" font-size="8px" fill="#000000" x="58.27469187907407" y="3" transform="rotate(180 58.27469187907407 0)" font-family="Helvetica Neue, Helvetica, Arial, sans-serif">REL</text></g><g class="relationship" transform="translate(143.73546294350865 -155.584555614922) rotate(509.25580889707396)"><path class="b-outline" fill="#A5ABB6" stroke="none" d="M 25 0.5 L 80.76360623347055 0.5 L 80.76360623347055 -0.5 L 25 -0.5 Z M 102.32610623347055 0.5 L 158.0897124669411 0.5 L 158.0897124669411 3.5 L 165.0897124669411 0 L 158.0897124669411 -3.5 L 158.0897124669411 -0.5 L 102.32610623347055 -0.5 Z"/><text text-anchor="middle" pointer-events="none" font-size="8px" fill="#000000" x="91.54485623347055" y="3" transform="rotate(180 91.54485623347055 0)" font-family="Helvetica Neue, Helvetica, Arial, sans-serif">REL</text></g><g class="relationship" transform="translate(143.73546294350865 -155.584555614922) rotate(439.97044100148304)"><path class="b-outline" fill="#A5ABB6" stroke="none" d="M 25 0.5 L 73.44564448767463 0.5 L 73.44564448767463 -0.5 L 25 -0.5 Z M 95.00814448767463 0.5 L 143.45378897534925 0.5 L 143.45378897534925 3.5 L 150.45378897534925 0 L 143.45378897534925 -3.5 L 143.45378897534925 -0.5 L 95.00814448767463 -0.5 Z"/><text text-anchor="middle" pointer-events="none" font-size="8px" fill="#000000" x="84.22689448767463" y="3" font-family="Helvetica Neue, Helvetica, Arial, sans-serif">REL</text></g><g class="relationship" transform="translate(113.41349700958284 -61.350510581446905) rotate(496.47376289040744)"><path class="b-outline" fill="#A5ABB6" stroke="none" d="M 25 0.5 L 56.61895535674786 0.5 L 56.61895535674786 -0.5 L 25 -0.5 Z M 78.18145535674786 0.5 L 109.80041071349572 0.5 L 109.80041071349572 3.5 L 116.80041071349572 0 L 109.80041071349572 -3.5 L 109.80041071349572 -0.5 L 78.18145535674786 -0.5 Z"/><text text-anchor="middle" pointer-events="none" font-size="8px" fill="#000000" x="67.40020535674786" y="3" transform="rotate(180 67.40020535674786 0)" font-family="Helvetica Neue, Helvetica, Arial, sans-serif">REL</text></g><g class="relationship" transform="translate(113.41349700958284 -61.350510581446905) rotate(412.21929176536344)"><path class="b-outline" fill="#A5ABB6" stroke="none" d="M 25 0.5 L 35.40391420225897 0.5 L 35.40391420225897 -0.5 L 25 -0.5 Z M 56.96641420225897 0.5 L 67.37032840451793 0.5 L 67.37032840451793 3.5 L 74.37032840451793 0 L 67.37032840451793 -3.5 L 67.37032840451793 -0.5 L 56.96641420225897 -0.5 Z"/><text text-anchor="middle" pointer-events="none" font-size="8px" fill="#000000" x="46.18516420225897" y="3" font-family="Helvetica Neue, Helvetica, Arial, sans-serif">REL</text></g><g class="relationship" transform="translate(-132.0013195799277 -176.8924540551251) rotate(478.5850766852194)"><path class="b-outline" fill="#A5ABB6" stroke="none" d="M 25 0.5 L 64.08485827282146 0.5 L 64.08485827282146 -0.5 L 25 -0.5 Z M 85.64735827282146 0.5 L 124.73221654564293 0.5 L 124.73221654564293 3.5 L 131.73221654564293 0 L 124.73221654564293 -3.5 L 124.73221654564293 -0.5 L 85.64735827282146 -0.5 Z"/><text text-anchor="middle" pointer-events="none" font-size="8px" fill="#000000" x="74.86610827282146" y="3" transform="rotate(180 74.86610827282146 0)" font-family="Helvetica Neue, Helvetica, Arial, sans-serif">REL</text></g><g class="relationship" transform="translate(-132.0013195799277 -176.8924540551251) rotate(406.51869552446533)"><path class="b-outline" fill="#A5ABB6" stroke="none" d="M 25 0.5 L 67.36363969353434 0.5 L 67.36363969353434 -0.5 L 25 -0.5 Z M 88.92613969353434 0.5 L 131.28977938706868 0.5 L 131.28977938706868 3.5 L 138.28977938706868 0 L 131.28977938706868 -3.5 L 131.28977938706868 -0.5 L 88.92613969353434 -0.5 Z"/><text text-anchor="middle" pointer-events="none" font-size="8px" fill="#000000" x="78.14488969353434" y="3" font-family="Helvetica Neue, Helvetica, Arial, sans-serif">REL</text></g><g class="relationship" transform="translate(280.47652689584197 159.71580247350823) rotate(477.77475425660975)"><path class="b-outline" fill="#A5ABB6" stroke="none" d="M 25 0.5 L 75.24125939813534 0.5 L 75.24125939813534 -0.5 L 25 -0.5 Z M 96.80375939813534 0.5 L 147.04501879627068 0.5 L 147.04501879627068 3.5 L 154.04501879627068 0 L 147.04501879627068 -3.5 L 147.04501879627068 -0.5 L 96.80375939813534 -0.5 Z"/><text text-anchor="middle" pointer-events="none" font-size="8px" fill="#000000" x="86.02250939813534" y="3" transform="rotate(180 86.02250939813534 0)" font-family="Helvetica Neue, Helvetica, Arial, sans-serif">REL</text></g><g class="relationship" transform="translate(280.47652689584197 159.71580247350823) rotate(534.7426488932573)"><path class="b-outline" fill="#A5ABB6" stroke="none" d="M 25 0.5 L 57.26755142837973 0.5 L 57.26755142837973 -0.5 L 25 -0.5 Z M 78.83005142837973 0.5 L 111.09760285675947 0.5 L 111.09760285675947 3.5 L 118.09760285675947 0 L 111.09760285675947 -3.5 L 111.09760285675947 -0.5 L 78.83005142837973 -0.5 Z"/><text text-anchor="middle" pointer-events="none" font-size="8px" fill="#000000" x="68.04880142837973" y="3" transform="rotate(180 68.04880142837973 0)" font-family="Helvetica Neue, Helvetica, Arial, sans-serif">REL</text></g><g class="relationship" transform="translate(-33.2182636885921 203.30548029712247) rotate(284.70207733436985)"><path class="b-outline" fill="#A5ABB6" stroke="none" d="M 25 0.5 L 72.04517116974019 0.5 L 72.04517116974019 -0.5 L 25 -0.5 Z M 93.60767116974019 0.5 L 140.65284233948037 0.5 L 140.65284233948037 3.5 L 147.65284233948037 0 L 140.65284233948037 -3.5 L 140.65284233948037 -0.5 L 93.60767116974019 -0.5 Z"/><text text-anchor="middle" pointer-events="none" font-size="8px" fill="#000000" x="82.82642116974019" y="3" font-family="Helvetica Neue, Helvetica, Arial, sans-serif">REL</text></g><g class="relationship" transform="translate(-33.2182636885921 203.30548029712247) rotate(349.90567170224085)"><path class="b-outline" fill="#A5ABB6" stroke="none" d="M 25 0.5 L 72.66420598985802 0.5 L 72.66420598985802 -0.5 L 25 -0.5 Z M 94.22670598985802 0.5 L 141.89091197971604 0.5 L 141.89091197971604 3.5 L 148.89091197971604 0 L 141.89091197971604 -3.5 L 141.89091197971604 -0.5 L 94.22670598985802 -0.5 Z"/><text text-anchor="middle" pointer-events="none" font-size="8px" fill="#000000" x="83.44545598985802" y="3" font-family="Helvetica Neue, Helvetica, Arial, sans-serif">REL</text></g><g class="relationship" transform="translate(46.27667105575357 -133.1179771366572) rotate(409.5790523093367)"><path class="b-outline" fill="#A5ABB6" stroke="none" d="M 25 0.5 L 84.43520569509833 0.5 L 84.43520569509833 -0.5 L 25 -0.5 Z M 105.99770569509833 0.5 L 165.43291139019667 0.5 L 165.43291139019667 3.5 L 172.43291139019667 0 L 165.43291139019667 -3.5 L 165.43291139019667 -0.5 L 105.99770569509833 -0.5 Z"/><text text-anchor="middle" pointer-events="none" font-size="8px" fill="#000000" x="95.21645569509833" y="3" font-family="Helvetica Neue, Helvetica, Arial, sans-serif">REL</text></g><g class="relationship" transform="translate(46.27667105575357 -133.1179771366572) rotate(461.89148833756207)"><path class="b-outline" fill="#A5ABB6" stroke="none" d="M 25 0.5 L 72.28832670676017 0.5 L 72.28832670676017 -0.5 L 25 -0.5 Z M 93.85082670676017 0.5 L 141.13915341352035 0.5 L 141.13915341352035 3.5 L 148.13915341352035 0 L 141.13915341352035 -3.5 L 141.13915341352035 -0.5 L 93.85082670676017 -0.5 Z"/><text text-anchor="middle" pointer-events="none" font-size="8px" fill="#000000" x="83.06957670676017" y="3" transform="rotate(180 83.06957670676017 0)" font-family="Helvetica Neue, Helvetica, Arial, sans-serif">REL</text></g><g class="relationship" transform="translate(-138.36078919297637 45.814535075278144) rotate(318.7206527633782)"><path class="b-outline" fill="#A5ABB6" stroke="none" d="M 25 0.5 L 64.70861529904958 0.5 L 64.70861529904958 -0.5 L 25 -0.5 Z M 86.27111529904958 0.5 L 125.97973059809917 0.5 L 125.97973059809917 3.5 L 132.97973059809917 0 L 125.97973059809917 -3.5 L 125.97973059809917 -0.5 L 86.27111529904958 -0.5 Z"/><text text-anchor="middle" pointer-events="none" font-size="8px" fill="#000000" x="75.48986529904958" y="3" font-family="Helvetica Neue, Helvetica, Arial, sans-serif">REL</text></g><g class="relationship" transform="translate(-138.36078919297637 45.814535075278144) rotate(231.10781813631718)"><path class="b-outline" fill="#A5ABB6" stroke="none" d="M 25 0.5 L 40.37382085499442 0.5 L 40.37382085499442 -0.5 L 25 -0.5 Z M 61.93632085499442 0.5 L 77.31014170998884 0.5 L 77.31014170998884 3.5 L 84.31014170998884 0 L 77.31014170998884 -3.5 L 77.31014170998884 -0.5 L 61.93632085499442 -0.5 Z"/><text text-anchor="middle" pointer-events="none" font-size="8px" fill="#000000" x="51.15507085499442" y="3" transform="rotate(180 51.15507085499442 0)" font-family="Helvetica Neue, Helvetica, Arial, sans-serif">REL</text></g><g class="relationship" transform="translate(-129.7747788513886 179.31529514487434) rotate(376.2395371216679)"><path class="b-outline" fill="#A5ABB6" stroke="none" d="M 24.018736134675446,6.953439040707552 L 24.277555179777966,5.987513214418485 A 285.6430934509603 285.6430934509603 0 0 0 84.92773872059584,15.411708952842787 L 84.88124822441107,16.410627685155077 A 286.6430934509603 286.6430934509603 0 0 1 24.018736134675446,6.953439040707552 Z M 106.47547398686095,16.60129740008358 L 106.44662959357578,15.601713486159383 A 285.6430934509603 285.6430934509603 0 0 0 167.25376889172122,7.249944857483624 L 166.5286016189124,4.338908542621333 L 174.16704817186803,6.043060606740099 L 168.22065858879964,11.131326610633344 L 167.49549131599082,8.220290295771054 A 286.6430934509603 286.6430934509603 0 0 1 106.47547398686095,16.60129740008358"/><text text-anchor="middle" pointer-events="none" font-size="8px" fill="#000000" x="95.68097954691801" y="19.20941197500241" font-family="Helvetica Neue, Helvetica, Arial, sans-serif">REL</text></g><g class="relationship" transform="translate(-129.7747788513886 179.31529514487434) rotate(250.54335859983007)"><path class="b-outline" fill="#A5ABB6" stroke="none" d="M 25 0.5 L 88.96185781903598 0.5 L 88.96185781903598 -0.5 L 25 -0.5 Z M 135.85638906903597 0.5 L 199.81824688807197 0.5 L 199.81824688807197 3.5 L 206.81824688807197 0 L 199.81824688807197 -3.5 L 199.81824688807197 -0.5 L 135.85638906903597 -0.5 Z"/><text text-anchor="middle" pointer-events="none" font-size="8px" fill="#000000" x="112.40912344403598" y="3" transform="rotate(180 112.40912344403598 0)" font-family="Helvetica Neue, Helvetica, Arial, sans-serif">INCLUDED</text></g><g class="relationship" transform="translate(-129.7747788513886 179.31529514487434) rotate(314.4672296663514)"><path class="b-outline" fill="#A5ABB6" stroke="none" d="M 25 0.5 L 73.24856502194415 0.5 L 73.24856502194415 -0.5 L 25 -0.5 Z M 120.14309627194415 0.5 L 168.3916612938883 0.5 L 168.3916612938883 3.5 L 175.3916612938883 0 L 168.3916612938883 -3.5 L 168.3916612938883 -0.5 L 120.14309627194415 -0.5 Z"/><text text-anchor="middle" pointer-events="none" font-size="8px" fill="#000000" x="96.69583064694415" y="3" font-family="Helvetica Neue, Helvetica, Arial, sans-serif">INCLUDED</text></g><g class="relationship" transform="translate(-129.7747788513886 179.31529514487434) rotate(358.6120317179608)"><path class="b-outline" fill="#A5ABB6" stroke="none" d="M 25 0.5 L 106.96987028728603 0.5 L 106.96987028728603 -0.5 L 25 -0.5 Z M 153.86440153728603 0.5 L 235.83427182457206 0.5 L 235.83427182457206 3.5 L 242.83427182457206 0 L 235.83427182457206 -3.5 L 235.83427182457206 -0.5 L 153.86440153728603 -0.5 Z"/><text text-anchor="middle" pointer-events="none" font-size="8px" fill="#000000" x="130.41713591228603" y="3" font-family="Helvetica Neue, Helvetica, Arial, sans-serif">INCLUDED</text></g><g class="relationship" transform="translate(60.73390668824555 234.80577050816314) rotate(196.23953712166792)"><path class="b-outline" fill="#A5ABB6" stroke="none" d="M 24.018736134675446,6.953439040707552 L 24.277555179777966,5.987513214418485 A 285.6430934509603 285.6430934509603 0 0 0 84.92773872059584,15.411708952842787 L 84.88124822441107,16.410627685155077 A 286.6430934509603 286.6430934509603 0 0 1 24.018736134675446,6.953439040707552 Z M 106.47547398686095,16.60129740008358 L 106.44662959357578,15.601713486159383 A 285.6430934509603 285.6430934509603 0 0 0 167.25376889172122,7.249944857483624 L 166.5286016189124,4.338908542621333 L 174.16704817186803,6.043060606740099 L 168.22065858879964,11.131326610633344 L 167.49549131599082,8.220290295771054 A 286.6430934509603 286.6430934509603 0 0 1 106.47547398686095,16.60129740008358"/><text text-anchor="middle" pointer-events="none" font-size="8px" fill="#000000" x="95.68097954691801" y="19.20941197500241" transform="rotate(180 95.68097954691801 16.20941197500241)" font-family="Helvetica Neue, Helvetica, Arial, sans-serif">REL</text></g><g class="relationship" transform="translate(60.73390668824555 234.80577050816314) rotate(254.67128400762078)"><path class="b-outline" fill="#A5ABB6" stroke="none" d="M 25 0.5 L 125.06834946088634 0.5 L 125.06834946088634 -0.5 L 25 -0.5 Z M 171.96288071088634 0.5 L 272.0312301717727 0.5 L 272.0312301717727 3.5 L 279.0312301717727 0 L 272.0312301717727 -3.5 L 272.0312301717727 -0.5 L 171.96288071088634 -0.5 Z"/><text text-anchor="middle" pointer-events="none" font-size="8px" fill="#000000" x="148.51561508588634" y="3" transform="rotate(180 148.51561508588634 0)" font-family="Helvetica Neue, Helvetica, Arial, sans-serif">INCLUDED</text></g><g class="relationship" transform="translate(60.73390668824555 234.80577050816314) rotate(297.5565769007734)"><path class="b-outline" fill="#A5ABB6" stroke="none" d="M 25 0.5 L 95.78508127371732 0.5 L 95.78508127371732 -0.5 L 25 -0.5 Z M 142.6796125237173 0.5 L 213.46469379743465 0.5 L 213.46469379743465 3.5 L 220.46469379743465 0 L 213.46469379743465 -3.5 L 213.46469379743465 -0.5 L 142.6796125237173 -0.5 Z"/><text text-anchor="middle" pointer-events="none" font-size="8px" fill="#000000" x="119.23234689871732" y="3" font-family="Helvetica Neue, Helvetica, Arial, sans-serif">INCLUDED</text></g><g class="relationship" transform="translate(60.73390668824555 234.80577050816314) rotate(391.4378790770065)"><path class="b-outline" fill="#A5ABB6" stroke="none" d="M 25 0.5 L 52.93272988755895 0.5 L 52.93272988755895 -0.5 L 25 -0.5 Z M 99.82726113755895 0.5 L 127.7599910251179 0.5 L 127.7599910251179 3.5 L 134.7599910251179 0 L 127.7599910251179 -3.5 L 127.7599910251179 -0.5 L 99.82726113755895 -0.5 Z"/><text text-anchor="middle" pointer-events="none" font-size="8px" fill="#000000" x="76.37999551255895" y="3" font-family="Helvetica Neue, Helvetica, Arial, sans-serif">INCLUDED</text></g><g class="relationship" transform="translate(137.98090994996807 172.82774720209923) rotate(226.9838255486129)"><path class="b-outline" fill="#A5ABB6" stroke="none" d="M 25 0.5 L 79.07861046389648 0.5 L 79.07861046389648 -0.5 L 25 -0.5 Z M 100.64111046389648 0.5 L 154.71972092779296 0.5 L 154.71972092779296 3.5 L 161.71972092779296 0 L 154.71972092779296 -3.5 L 154.71972092779296 -0.5 L 100.64111046389648 -0.5 Z"/><text text-anchor="middle" pointer-events="none" font-size="8px" fill="#000000" x="89.85986046389648" y="3" transform="rotate(180 89.85986046389648 0)" font-family="Helvetica Neue, Helvetica, Arial, sans-serif">REL</text></g><g class="relationship" transform="translate(137.98090994996807 172.82774720209923) rotate(427.8799955412707)"><path class="b-outline" fill="#A5ABB6" stroke="none" d="M 24.018736134675446,6.953439040707552 L 24.277555179777966,5.987513214418485 A 204.29376099802192 204.29376099802192 0 0 0 64.14440702595637,12.53408755370495 L 64.08073271582481,13.532058285855584 A 205.29376099802192 205.29376099802192 0 0 1 24.018736134675446,6.953439040707552 Z M 85.68456985901932,13.771287132656994 L 85.64301039566372,12.772151100374316 A 204.29376099802192 204.29376099802192 0 0 0 125.64505485582723,7.110000386021792 L 124.93295699296677,4.195739479083366 L 132.5636799491603,5.9341488571704675 L 126.5945186729745,10.995681595273025 L 125.88242081011404,8.0814206883346 A 205.29376099802192 205.29376099802192 0 0 1 85.68456985901932,13.771287132656994"/><text text-anchor="middle" pointer-events="none" font-size="8px" fill="#000000" x="74.88503842551461" y="16.436099448425466" font-family="Helvetica Neue, Helvetica, Arial, sans-serif">REL</text></g><g class="relationship" transform="translate(197.04211574167044 318.1323981669948) rotate(247.87999554127072)"><path class="b-outline" fill="#A5ABB6" stroke="none" d="M 24.018736134675446,6.953439040707552 L 24.277555179777966,5.987513214418485 A 204.29376099802192 204.29376099802192 0 0 0 64.14440702595637,12.53408755370495 L 64.08073271582481,13.532058285855584 A 205.29376099802192 205.29376099802192 0 0 1 24.018736134675446,6.953439040707552 Z M 85.68456985901932,13.771287132656994 L 85.64301039566372,12.772151100374316 A 204.29376099802192 204.29376099802192 0 0 0 125.64505485582723,7.110000386021792 L 124.93295699296677,4.195739479083366 L 132.5636799491603,5.9341488571704675 L 126.5945186729745,10.995681595273025 L 125.88242081011404,8.0814206883346 A 205.29376099802192 205.29376099802192 0 0 1 85.68456985901932,13.771287132656994"/><text text-anchor="middle" pointer-events="none" font-size="8px" fill="#000000" x="74.88503842551461" y="16.436099448425466" transform="rotate(180 74.88503842551461 13.436099448425466)" font-family="Helvetica Neue, Helvetica, Arial, sans-serif">REL</text></g><g class="relationship" transform="translate(-19.638707577040577 -58.40956298571289) rotate(534.1654287108703)"><path class="b-outline" fill="#A5ABB6" stroke="none" d="M 24.018736134675446,-6.953439040707552 L 24.277555179777966,-5.987513214418485 A 265.92920624906395 265.92920624906395 0 0 1 79.88002121843898,-14.719775667360409 L 79.83028964749147,-15.718538287231183 A 266.92920624906395 266.92920624906395 0 0 0 24.018736134675446,-6.953439040707552 Z M 101.42642891008882,-15.919093837784942 L 101.3952546125251,-14.91957987431499 A 265.92920624906395 265.92920624906395 0 0 1 157.15030373291486,-7.221454471956829 L 156.42779709781928,-4.309756657580675 L 164.0646830723085,-6.020888625796509 L 158.11364591304232,-11.103718224458365 L 157.39113927794673,-8.192020410082213 A 266.92920624906395 266.92920624906395 0 0 0 101.42642891008882,-15.919093837784942"/><text text-anchor="middle" pointer-events="none" font-size="8px" fill="#000000" x="90.63097321495785" y="-12.537343276810986" transform="rotate(180 90.63097321495785 -15.537343276810986)" font-family="Helvetica Neue, Helvetica, Arial, sans-serif">REL</text></g><g class="relationship" transform="translate(174.29183138368742 17.187954969240167) rotate(533.3386044136892)"><path class="b-outline" fill="#A5ABB6" stroke="none" d="M 24.018736134675446,-6.953439040707552 L 24.277555179777966,-5.987513214418485 A 219.89966154247313 219.89966154247313 0 0 1 68.1206452336115,-13.091585972666195 L 68.0612038944422,-14.08981777300005 A 220.89966154247313 220.89966154247313 0 0 0 24.018736134675446,-6.953439040707552 Z M 89.66279851551407,-14.317930045780656 L 89.6244506843866,-13.318665594372618 A 219.89966154247313 219.89966154247313 0 0 1 133.60778459024738,-7.1420375702325565 L 132.89269469028102,-4.228509393782885 L 140.52519865195765,-5.959082499719399 L 134.56123779020248,-11.026741805498784 L 133.84614789023613,-8.113213629049113 A 220.89966154247313 220.89966154247313 0 0 0 89.66279851551407,-14.317930045780656"/><text text-anchor="middle" pointer-events="none" font-size="8px" fill="#000000" x="78.8644907095011" y="-10.968124789639432" transform="rotate(180 78.8644907095011 -13.968124789639432)" font-family="Helvetica Neue, Helvetica, Arial, sans-serif">REL</text></g><g class="relationship" transform="translate(174.29183138368742 17.187954969240167) rotate(201.29670706111654)"><path class="b-outline" fill="#A5ABB6" stroke="none" d="M 25 0.5 L 89.79088683612426 0.5 L 89.79088683612426 -0.5 L 25 -0.5 Z M 111.35338683612426 0.5 L 176.14427367224852 0.5 L 176.14427367224852 3.5 L 183.14427367224852 0 L 176.14427367224852 -3.5 L 176.14427367224852 -0.5 L 111.35338683612426 -0.5 Z"/><text text-anchor="middle" pointer-events="none" font-size="8px" fill="#000000" x="100.57213683612426" y="3" transform="rotate(180 100.57213683612426 0)" font-family="Helvetica Neue, Helvetica, Arial, sans-serif">REL</text></g><g class="relationship" transform="translate(10.599821542936528 36.305542049996276) rotate(353.33860441368915)"><path class="b-outline" fill="#A5ABB6" stroke="none" d="M 24.018736134675446,-6.953439040707552 L 24.277555179777966,-5.987513214418485 A 219.89966154247313 219.89966154247313 0 0 1 68.1206452336115,-13.091585972666195 L 68.0612038944422,-14.08981777300005 A 220.89966154247313 220.89966154247313 0 0 0 24.018736134675446,-6.953439040707552 Z M 89.66279851551407,-14.317930045780656 L 89.6244506843866,-13.318665594372618 A 219.89966154247313 219.89966154247313 0 0 1 133.60778459024738,-7.1420375702325565 L 132.89269469028102,-4.228509393782885 L 140.52519865195765,-5.959082499719399 L 134.56123779020248,-11.026741805498784 L 133.84614789023613,-8.113213629049113 A 220.89966154247313 220.89966154247313 0 0 0 89.66279851551407,-14.317930045780656"/><text text-anchor="middle" pointer-events="none" font-size="8px" fill="#000000" x="78.8644907095011" y="-10.968124789639432" font-family="Helvetica Neue, Helvetica, Arial, sans-serif">REL</text></g><g class="relationship" transform="translate(-206.99191140179417 -39.26469943594767) rotate(354.1654287108703)"><path class="b-outline" fill="#A5ABB6" stroke="none" d="M 24.018736134675446,-6.953439040707552 L 24.277555179777966,-5.987513214418485 A 265.92920624906395 265.92920624906395 0 0 1 79.88002121843898,-14.719775667360409 L 79.83028964749147,-15.718538287231183 A 266.92920624906395 266.92920624906395 0 0 0 24.018736134675446,-6.953439040707552 Z M 101.42642891008882,-15.919093837784942 L 101.3952546125251,-14.91957987431499 A 265.92920624906395 265.92920624906395 0 0 1 157.15030373291486,-7.221454471956829 L 156.42779709781928,-4.309756657580675 L 164.0646830723085,-6.020888625796509 L 158.11364591304232,-11.103718224458365 L 157.39113927794673,-8.192020410082213 A 266.92920624906395 266.92920624906395 0 0 0 101.42642891008882,-15.919093837784942"/><text text-anchor="middle" pointer-events="none" font-size="8px" fill="#000000" x="90.63097321495785" y="-12.537343276810986" font-family="Helvetica Neue, Helvetica, Arial, sans-serif">REL</text></g></g><g class="layer nodes"><g class="node" aria-label="graph-node2413" transform="translate(-129.7747788513886,179.31529514487434)" style="touch-action: none; -webkit-tap-highlight-color: rgba(0, 0, 0, 0);"><circle class="b-outline" cx="0" cy="0" r="25" fill="#C990C0" stroke="#b261a5" stroke-width="2px"/><text class="caption" text-anchor="middle" pointer-events="none" x="0" y="5" font-size="10px" fill="#FFFFFF" font-family="Helvetica Neue, Helvetica, Arial, sans-serif"> Entity1_ID</text></g><g class="node" aria-label="graph-node2412" transform="translate(60.73390668824555,234.80577050816314)" style="touch-action: none; -webkit-tap-highlight-color: rgba(0, 0, 0, 0);"><circle class="b-outline" cx="0" cy="0" r="25" fill="#C990C0" stroke="#b261a5" stroke-width="2px"/><text class="caption" text-anchor="middle" pointer-events="none" x="0" y="5" font-size="10px" fill="#FFFFFF" font-family="Helvetica Neue, Helvetica, Arial, sans-serif"> Entity1_ID</text></g><g class="node" aria-label="graph-node2417" transform="translate(137.98090994996807,172.82774720209923)" style="touch-action: none; -webkit-tap-highlight-color: rgba(0, 0, 0, 0);"><circle class="b-outline" cx="0" cy="0" r="25" fill="#F79767" stroke="#f36924" stroke-width="2px"/><text class="caption" text-anchor="middle" pointer-events="none" x="0" y="5" font-size="10px" fill="#FFFFFF" font-family="Helvetica Neue, Helvetica, Arial, sans-serif"> Entity2_ID</text></g><g class="node" aria-label="graph-node2414" transform="translate(197.04211574167044,318.1323981669948)" style="touch-action: none; -webkit-tap-highlight-color: rgba(0, 0, 0, 0);"><circle class="b-outline" cx="0" cy="0" r="25" fill="#F79767" stroke="#f36924" stroke-width="2px"/><text class="caption" text-anchor="middle" pointer-events="none" x="0" y="5" font-size="10px" fill="#FFFFFF" font-family="Helvetica Neue, Helvetica, Arial, sans-serif"> Entity2_ID</text></g><g class="node" aria-label="graph-node2416" transform="translate(-19.638707577040577,-58.40956298571289)" style="touch-action: none; -webkit-tap-highlight-color: rgba(0, 0, 0, 0);"><circle class="b-outline" cx="0" cy="0" r="25" fill="#F79767" stroke="#f36924" stroke-width="2px"/><text class="caption" text-anchor="middle" pointer-events="none" x="0" y="5" font-size="10px" fill="#FFFFFF" font-family="Helvetica Neue, Helvetica, Arial, sans-serif"> Entity2_ID</text></g><g class="node" aria-label="graph-node2415" transform="translate(174.29183138368742,17.187954969240167)" style="touch-action: none; -webkit-tap-highlight-color: rgba(0, 0, 0, 0);"><circle class="b-outline" cx="0" cy="0" r="25" fill="#F79767" stroke="#f36924" stroke-width="2px"/><text class="caption" text-anchor="middle" pointer-events="none" x="0" y="5" font-size="10px" fill="#FFFFFF" font-family="Helvetica Neue, Helvetica, Arial, sans-serif"> Entity2_ID</text></g><g class="node" aria-label="graph-node2418" transform="translate(10.599821542936528,36.305542049996276)" style="touch-action: none; -webkit-tap-highlight-color: rgba(0, 0, 0, 0);"><circle class="b-outline" cx="0" cy="0" r="25" fill="#F79767" stroke="#f36924" stroke-width="2px"/><text class="caption" text-anchor="middle" pointer-events="none" x="0" y="5" font-size="10px" fill="#FFFFFF" font-family="Helvetica Neue, Helvetica, Arial, sans-serif"> Entity2_ID</text></g><g class="node" aria-label="graph-node2419" transform="translate(-206.99191140179417,-39.26469943594767)" style="touch-action: none; -webkit-tap-highlight-color: rgba(0, 0, 0, 0);"><circle class="b-outline" cx="0" cy="0" r="25" fill="#F79767" stroke="#f36924" stroke-width="2px"/><text class="caption" text-anchor="middle" pointer-events="none" x="0" y="5" font-size="10px" fill="#FFFFFF" font-family="Helvetica Neue, Helvetica, Arial, sans-serif"> Entity2_ID</text></g><g class="node" aria-label="graph-node2335" transform="translate(36.12366179910911,132.3742512335708)" style="touch-action: none; -webkit-tap-highlight-color: rgba(0, 0, 0, 0);"><circle class="b-outline" cx="0" cy="0" r="25" fill="#C990C0" stroke="#b261a5" stroke-width="2px"/><text class="caption" text-anchor="middle" pointer-events="none" x="0" y="5" font-size="10px" fill="#FFFFFF" font-family="Helvetica Neue, Helvetica, Arial, sans-serif"> </text></g><g class="node" aria-label="graph-node2826" transform="translate(-59.305021372561825,107.3014227370178)" style="touch-action: none; -webkit-tap-highlight-color: rgba(0, 0, 0, 0);"><circle class="b-outline" cx="0" cy="0" r="25" fill="#C990C0" stroke="#b261a5" stroke-width="2px"/><text class="caption" text-anchor="middle" pointer-events="none" x="0" y="5" font-size="10px" fill="#FFFFFF" font-family="Helvetica Neue, Helvetica, Arial, sans-serif"> </text></g><g class="node" aria-label="graph-node2827" transform="translate(303.85909609518825,256.04711057666185)" style="touch-action: none; -webkit-tap-highlight-color: rgba(0, 0, 0, 0);"><circle class="b-outline" cx="0" cy="0" r="25" fill="#F79767" stroke="#f36924" stroke-width="2px"/><text class="caption" text-anchor="middle" pointer-events="none" x="0" y="5" font-size="10px" fill="#FFFFFF" font-family="Helvetica Neue, Helvetica, Arial, sans-serif"> </text></g><g class="node" aria-label="graph-node2828" transform="translate(143.73546294350865,-155.584555614922)" style="touch-action: none; -webkit-tap-highlight-color: rgba(0, 0, 0, 0);"><circle class="b-outline" cx="0" cy="0" r="25" fill="#F79767" stroke="#f36924" stroke-width="2px"/><text class="caption" text-anchor="middle" pointer-events="none" x="0" y="5" font-size="10px" fill="#FFFFFF" font-family="Helvetica Neue, Helvetica, Arial, sans-serif"> </text></g><g class="node" aria-label="graph-node2829" transform="translate(113.41349700958284,-61.350510581446905)" style="touch-action: none; -webkit-tap-highlight-color: rgba(0, 0, 0, 0);"><circle class="b-outline" cx="0" cy="0" r="25" fill="#F79767" stroke="#f36924" stroke-width="2px"/><text class="caption" text-anchor="middle" pointer-events="none" x="0" y="5" font-size="10px" fill="#FFFFFF" font-family="Helvetica Neue, Helvetica, Arial, sans-serif"> </text></g><g class="node" aria-label="graph-node2830" transform="translate(-132.0013195799277,-176.8924540551251)" style="touch-action: none; -webkit-tap-highlight-color: rgba(0, 0, 0, 0);"><circle class="b-outline" cx="0" cy="0" r="25" fill="#F79767" stroke="#f36924" stroke-width="2px"/><text class="caption" text-anchor="middle" pointer-events="none" x="0" y="5" font-size="10px" fill="#FFFFFF" font-family="Helvetica Neue, Helvetica, Arial, sans-serif"> </text></g><g class="node" aria-label="graph-node2831" transform="translate(280.47652689584197,159.71580247350823)" style="touch-action: none; -webkit-tap-highlight-color: rgba(0, 0, 0, 0);"><circle class="b-outline" cx="0" cy="0" r="25" fill="#F79767" stroke="#f36924" stroke-width="2px"/><text class="caption" text-anchor="middle" pointer-events="none" x="0" y="5" font-size="10px" fill="#FFFFFF" font-family="Helvetica Neue, Helvetica, Arial, sans-serif"> </text></g><g class="node" aria-label="graph-node2832" transform="translate(-33.2182636885921,203.30548029712247)" style="touch-action: none; -webkit-tap-highlight-color: rgba(0, 0, 0, 0);"><circle class="b-outline" cx="0" cy="0" r="25" fill="#F79767" stroke="#f36924" stroke-width="2px"/><text class="caption" text-anchor="middle" pointer-events="none" x="0" y="5" font-size="10px" fill="#FFFFFF" font-family="Helvetica Neue, Helvetica, Arial, sans-serif"> </text></g><g class="node" aria-label="graph-node2833" transform="translate(46.27667105575357,-133.1179771366572)" style="touch-action: none; -webkit-tap-highlight-color: rgba(0, 0, 0, 0);"><circle class="b-outline" cx="0" cy="0" r="25" fill="#F79767" stroke="#f36924" stroke-width="2px"/><text class="caption" text-anchor="middle" pointer-events="none" x="0" y="5" font-size="10px" fill="#FFFFFF" font-family="Helvetica Neue, Helvetica, Arial, sans-serif"> </text></g><g class="node" aria-label="graph-node2834" transform="translate(-138.36078919297637,45.814535075278144)" style="touch-action: none; -webkit-tap-highlight-color: rgba(0, 0, 0, 0);"><circle class="b-outline" cx="0" cy="0" r="25" fill="#F79767" stroke="#f36924" stroke-width="2px"/><text class="caption" text-anchor="middle" pointer-events="none" x="0" y="5" font-size="10px" fill="#FFFFFF" font-family="Helvetica Neue, Helvetica, Arial, sans-serif"> </text></g></g></svg>