<svg xmlns="http://www.w3.org/2000/svg" width="550.1033325195312" height="549.6943969726562" viewBox="-282.22900390625 -289.6633605957031 550.1033325195312 549.6943969726562"><title>Neo4j Graph Visualization</title><desc>Created using Neo4j (http://www.neo4j.com/)</desc><g class="layer relationships"><g class="relationship" transform="translate(23.584331133776086 -31.6195421674176) rotate(434.3518581511462)"><path class="b-outline" fill="#A5ABB6" stroke="none" d="M 24.018736134675446,6.953439040707552 L 24.277555179777966,5.987513214418485 A 182.69320814215376 182.69320814215376 0 0 0 61.08987820056724,11.91224903875542 L 61.032557193597285,12.910604838137544 A 183.69320814215376 183.69320814215376 0 0 1 24.018736134675446,6.953439040707552 Z M 77.73516472603305,13.108878065308886 L 77.70155908578853,12.109442894352924 A 182.69320814215376 182.69320814215376 0 0 0 114.64415152268448,7.060236539240798 L 113.93670133715844,4.144843901018776 L 121.56464270945688,5.8954182127170345 L 115.58741843671922,10.947426723536829 L 114.87996825119318,8.032034085314805 A 183.69320814215376 183.69320814215376 0 0 1 77.73516472603305,13.108878065308886"/><text text-anchor="middle" pointer-events="none" font-size="8px" fill="#000000" x="69.38754107441342" y="15.699727282458127" font-family="Helvetica Neue, Helvetica, Arial, sans-serif">DF</text></g><g class="relationship" transform="translate(23.584331133776086 -31.6195421674176) rotate(267.62054922313996)"><path class="b-outline" fill="#A5ABB6" stroke="none" d="M 21.40063509461097,12.933012701892217 L 21.90063509461097,12.06698729810778 A 51.75078231029972 51.75078231029972 0 0 0 37.87097934495444,18.0435254656902 L 37.679580365796696,19.025037783889715 A 52.75078231029972 52.75078231029972 0 0 1 21.40063509461097,12.933012701892217 Z M 54.422707029634395,19.57985602333872 L 54.296705471197306,18.58782597980605 A 51.75078231029972 51.75078231029972 0 0 0 70.62767074454548,13.6816587197399 L 69.30295775618337,10.98997978300455 L 77.12904042832164,11.039274903017546 L 72.3939547290283,17.270563968720367 L 71.06924174066619,14.578885031985017 A 52.75078231029972 52.75078231029972 0 0 1 54.422707029634395,19.57985602333872"/><text text-anchor="middle" pointer-events="none" font-size="8px" fill="#000000" x="46.04553800595721" y="22.47161366936684" transform="rotate(180 46.04553800595721 19.47161366936684)" font-family="Helvetica Neue, Helvetica, Arial, sans-serif">DF</text></g><g class="relationship" transform="translate(23.584331133776086 -31.6195421674176) rotate(402.12849108137385)"><path class="b-outline" fill="#A5ABB6" stroke="none" d="M 17.324116139070416,18.03122292025696 L 18.031222920256962,17.324116139070412 A 103.94490226603668 103.94490226603668 0 0 0 80.5548122775432,47.187687565019516 L 80.44921252550623,48.182096279970125 A 104.94490226603668 104.94490226603668 0 0 1 17.324116139070416,18.03122292025696 Z M 97.16963265765433,48.617303133069 L 97.11590670857471,47.61874741484618 A 103.94490226603668 103.94490226603668 0 0 0 161.1083896248694,21.048195018649203 L 159.1002963006451,18.819392380189303 L 166.64361133531324,16.734111035202496 L 163.7858473905018,24.01993186992907 L 161.7777540662775,21.79112923146917 A 104.94490226603668 104.94490226603668 0 0 1 97.16963265765433,48.617303133069"/><text text-anchor="middle" pointer-events="none" font-size="8px" fill="#000000" x="88.81374821807158" y="51.233511394560836" font-family="Helvetica Neue, Helvetica, Arial, sans-serif">DF</text></g><g class="relationship" transform="translate(23.584331133776086 -31.6195421674176) rotate(210.02832029105593)"><path class="b-outline" fill="#A5ABB6" stroke="none" d="M 24.018736134675446,6.953439040707552 L 24.277555179777966,5.987513214418485 A 141.08800073341519 141.08800073341519 0 0 0 50.55719188528518,10.42312162429883 L 50.484636991413794,11.420486044846967 A 142.08800073341519 142.08800073341519 0 0 1 24.018736134675446,6.953439040707552 Z M 67.19631146403883,11.650648549436625 L 67.15125139826293,10.651664270044648 A 141.08800073341519 141.08800073341519 0 0 0 93.54307655180784,6.941476619271067 L 92.84671840136535,4.023414706577592 L 100.46794737316637,5.802984587020816 L 94.47155408573117,10.8322258361957 L 93.77519593528868,7.914163923502225 A 142.08800073341519 142.08800073341519 0 0 1 67.19631146403883,11.650648549436625"/><text text-anchor="middle" pointer-events="none" font-size="8px" fill="#000000" x="58.84397278206241" y="14.28154372673501" transform="rotate(180 58.84397278206241 11.28154372673501)" font-family="Helvetica Neue, Helvetica, Arial, sans-serif">DF</text></g><g class="relationship" transform="translate(23.584331133776086 -31.6195421674176) rotate(369.56769467304605)"><path class="b-outline" fill="#A5ABB6" stroke="none" d="M 21.40063509461097,12.933012701892217 L 21.90063509461097,12.06698729810778 A 107.74725718568223 107.74725718568223 0 0 0 65.14437347369567,25.976750375275586 L 65.04571768893229,26.9718719940402 A 108.74725718568223 108.74725718568223 0 0 1 21.40063509461097,12.933012701892217 Z M 81.7662362145963,27.337178281061654 L 81.71113622695329,26.33869743930167 A 107.74725718568223 107.74725718568223 0 0 0 125.52111664438934,14.330865258365066 L 124.13601819484252,11.669756037558265 L 131.9612212345297,11.542487079556931 L 127.36791457711844,17.879010886107466 L 125.98281612757162,15.217901665300666 A 108.74725718568223 108.74725718568223 0 0 1 81.7662362145963,27.337178281061654"/><text text-anchor="middle" pointer-events="none" font-size="8px" fill="#000000" x="73.4098651565043" y="29.976557219404953" font-family="Helvetica Neue, Helvetica, Arial, sans-serif">DF</text></g><g class="relationship" transform="translate(23.584331133776086 -31.6195421674176) rotate(238.59075516690052)"><path class="b-outline" fill="#A5ABB6" stroke="none" d="M 21.40063509461097,12.933012701892217 L 21.90063509461097,12.06698729810778 A 143.10967300936568 143.10967300936568 0 0 0 82.59564555681555,30.827406053193485 L 82.51976091663637,31.82452265689882 A 144.10967300936568 144.10967300936568 0 0 1 21.40063509461097,12.933012701892217 Z M 99.2297729776409,32.12431682581534 L 99.18970417963612,31.125119902568244 A 143.10967300936568 143.10967300936568 0 0 0 160.51859868408707,14.553930876574212 L 159.1127581352011,11.903721007317067 L 166.93672847050138,11.715337907383116 L 162.39305274926835,18.087544035583736 L 160.98721220038237,15.437334166326592 A 144.10967300936568 144.10967300936568 0 0 1 99.2297729776409,32.12431682581534"/><text text-anchor="middle" pointer-events="none" font-size="8px" fill="#000000" x="90.87938636986142" y="34.716941052923815" transform="rotate(180 90.87938636986142 31.716941052923815)" font-family="Helvetica Neue, Helvetica, Arial, sans-serif">DF</text></g><g class="relationship" transform="translate(23.584331133776086 -31.6195421674176) rotate(267.62054922313996)"><path class="b-outline" fill="#A5ABB6" stroke="none" d="M 25 0.5 L 37.94781786722478 0.5 L 37.94781786722478 -0.5 L 25 -0.5 Z M 54.61188036722478 0.5 L 67.55969823444956 0.5 L 67.55969823444956 3.5 L 74.55969823444956 0 L 67.55969823444956 -3.5 L 67.55969823444956 -0.5 L 54.61188036722478 -0.5 Z"/><text text-anchor="middle" pointer-events="none" font-size="8px" fill="#000000" x="46.27984911722478" y="3" transform="rotate(180 46.27984911722478 0)" font-family="Helvetica Neue, Helvetica, Arial, sans-serif">DF</text></g><g class="relationship" transform="translate(23.584331133776086 -31.6195421674176) rotate(402.12849108137385)"><path class="b-outline" fill="#A5ABB6" stroke="none" d="M 24.018736134675446,6.953439040707552 L 24.277555179777966,5.987513214418485 A 259.84877958237746 259.84877958237746 0 0 0 80.76625595485599,14.618559362368217 L 80.72482758161217,15.61770083878207 A 260.84877958237746 260.84877958237746 0 0 1 24.018736134675446,6.953439040707552 Z M 97.41730021233568,15.77523054688254 L 97.39473567498412,14.775485158468996 A 259.84877958237746 259.84877958237746 0 0 0 154.03626635669343,7.2120682786919135 L 153.31463628083003,4.300153095584864 L 160.95100679658714,6.013583965528449 L 154.998439791178,11.09462185616798 L 154.27680971531458,8.18270667306093 A 260.84877958237746 260.84877958237746 0 0 1 97.41730021233568,15.77523054688254"/><text text-anchor="middle" pointer-events="none" font-size="8px" fill="#000000" x="89.07452179515474" y="18.330053087622105" font-family="Helvetica Neue, Helvetica, Arial, sans-serif">DF</text></g><g class="relationship" transform="translate(23.584331133776086 -31.6195421674176) rotate(199.8017601915294)"><path class="b-outline" fill="#A5ABB6" stroke="none" d="M 24.018736134675446,6.953439040707552 L 24.277555179777966,5.987513214418485 A 327.4761730735798 327.4761730735798 0 0 0 98.0996411791537,16.963373471474767 L 98.06624948440314,17.96281581334432 A 328.4761730735798 328.4761730735798 0 0 1 24.018736134675446,6.953439040707552 Z M 114.75338810203267,18.09620768804058 L 114.73597812535152,17.09635925317059 A 327.4761730735798 327.4761730735798 0 0 0 188.72409450987448,7.3020484784440765 L 187.99406152909216,4.392228579039635 L 195.63534643861524,6.083608173186056 L 189.69747181758424,11.181808344316664 L 188.96743883680193,8.271988444912223 A 328.4761730735798 328.4761730735798 0 0 1 114.75338810203267,18.09620768804058"/><text text-anchor="middle" pointer-events="none" font-size="8px" fill="#000000" x="106.412968282346" y="20.63551502656827" transform="rotate(180 106.412968282346 17.63551502656827)" font-family="Helvetica Neue, Helvetica, Arial, sans-serif">DF</text></g><g class="relationship" transform="translate(23.584331133776086 -31.6195421674176) rotate(369.56769467304605)"><path class="b-outline" fill="#A5ABB6" stroke="none" d="M 25 0.5 L 65.23653445395986 0.5 L 65.23653445395986 -0.5 L 25 -0.5 Z M 81.90059695395986 0.5 L 122.13713140791972 0.5 L 122.13713140791972 3.5 L 129.13713140791972 0 L 122.13713140791972 -3.5 L 122.13713140791972 -0.5 L 81.90059695395986 -0.5 Z"/><text text-anchor="middle" pointer-events="none" font-size="8px" fill="#000000" x="73.56856570395986" y="3" font-family="Helvetica Neue, Helvetica, Arial, sans-serif">DF</text></g><g class="relationship" transform="translate(23.584331133776086 -31.6195421674176) rotate(210.02832029105593)"><path class="b-outline" fill="#A5ABB6" stroke="none" d="M 24.018736134675446,-6.953439040707552 L 24.277555179777966,-5.987513214418485 A 141.08800073341519 141.08800073341519 0 0 1 50.557191885285135,-10.42312162429883 L 50.48463699141375,-11.420486044846967 A 142.08800073341519 142.08800073341519 0 0 0 24.018736134675446,-6.953439040707552 Z M 67.1963114640388,-11.650648549436625 L 67.15125139826289,-10.651664270044648 A 141.08800073341519 141.08800073341519 0 0 1 93.54307655180784,-6.941476619271067 L 92.84671840136535,-4.023414706577592 L 100.46794737316637,-5.802984587020816 L 94.47155408573117,-10.8322258361957 L 93.77519593528868,-7.914163923502225 A 142.08800073341519 142.08800073341519 0 0 0 67.1963114640388,-11.650648549436625"/><text text-anchor="middle" pointer-events="none" font-size="8px" fill="#000000" x="58.843972782062366" y="-8.28154372673501" transform="rotate(180 58.843972782062366 -11.28154372673501)" font-family="Helvetica Neue, Helvetica, Arial, sans-serif">DF</text></g><g class="relationship" transform="translate(23.584331133776086 -31.6195421674176) rotate(369.56769467304605)"><path class="b-outline" fill="#A5ABB6" stroke="none" d="M 21.40063509461097,-12.933012701892217 L 21.90063509461097,-12.06698729810778 A 107.74725718568223 107.74725718568223 0 0 1 65.14437347369572,-25.976750375275586 L 65.04571768893233,-26.9718719940402 A 108.74725718568223 108.74725718568223 0 0 0 21.40063509461097,-12.933012701892217 Z M 81.76623621459632,-27.337178281061654 L 81.71113622695329,-26.33869743930167 A 107.74725718568223 107.74725718568223 0 0 1 125.52111664438934,-14.330865258365066 L 124.13601819484252,-11.669756037558265 L 131.9612212345297,-11.542487079556931 L 127.36791457711844,-17.879010886107466 L 125.98281612757162,-15.217901665300666 A 108.74725718568223 108.74725718568223 0 0 0 81.76623621459632,-27.337178281061654"/><text text-anchor="middle" pointer-events="none" font-size="8px" fill="#000000" x="73.40986515650432" y="-23.976557219404953" font-family="Helvetica Neue, Helvetica, Arial, sans-serif">DF</text></g><g class="relationship" transform="translate(23.584331133776086 -31.6195421674176) rotate(470.5360455187604)"><path class="b-outline" fill="#A5ABB6" stroke="none" d="M 24.018736134675446,6.953439040707552 L 24.277555179777966,5.987513214418485 A 320.96840812542604 320.96840812542604 0 0 0 96.42927886917114,16.738397892021 L 96.39525367250619,17.737818867382202 A 321.96840812542604 321.96840812542604 0 0 1 24.018736134675446,6.953439040707552 Z M 113.08281701713065,17.87320975144405 L 113.06501239781525,16.873368266241982 A 320.96840812542604 320.96840812542604 0 0 0 185.38167629737205,7.294596155988307 L 184.6523392450974,4.384601746340873 L 192.2932194285952,6.077808768955361 L 186.35412570040492,11.174588702184888 L 185.62478864813028,8.264594292537453 A 321.96840812542604 321.96840812542604 0 0 1 113.08281701713065,17.87320975144405"/><text text-anchor="middle" pointer-events="none" font-size="8px" fill="#000000" x="104.74221451483324" y="20.41366665014732" transform="rotate(180 104.74221451483324 17.41366665014732)" font-family="Helvetica Neue, Helvetica, Arial, sans-serif">DF</text></g><g class="relationship" transform="translate(23.584331133776086 -31.6195421674176) rotate(267.62054922313996)"><path class="b-outline" fill="#A5ABB6" stroke="none" d="M 21.40063509461097,-12.933012701892217 L 21.90063509461097,-12.06698729810778 A 51.75078231029972 51.75078231029972 0 0 1 37.87097934495445,-18.0435254656902 L 37.679580365796696,-19.025037783889715 A 52.75078231029972 52.75078231029972 0 0 0 21.40063509461097,-12.933012701892217 Z M 54.42270702963442,-19.579856023338714 L 54.29670547119732,-18.58782597980605 A 51.75078231029972 51.75078231029972 0 0 1 70.62767074454548,-13.6816587197399 L 69.30295775618337,-10.98997978300455 L 77.12904042832164,-11.039274903017546 L 72.3939547290283,-17.270563968720367 L 71.06924174066619,-14.578885031985017 A 52.75078231029972 52.75078231029972 0 0 0 54.42270702963442,-19.579856023338714"/><text text-anchor="middle" pointer-events="none" font-size="8px" fill="#000000" x="46.045538005957226" y="-16.47161366936684" transform="rotate(180 46.045538005957226 -19.47161366936684)" font-family="Helvetica Neue, Helvetica, Arial, sans-serif">DF</text></g><g class="relationship" transform="translate(23.584331133776086 -31.6195421674176) rotate(434.3518581511462)"><path class="b-outline" fill="#A5ABB6" stroke="none" d="M 24.018736134675446,-6.953439040707552 L 24.277555179777966,-5.987513214418485 A 182.69320814215376 182.69320814215376 0 0 1 61.08987820056723,-11.91224903875542 L 61.03255719359728,-12.910604838137544 A 183.69320814215376 183.69320814215376 0 0 0 24.018736134675446,-6.953439040707552 Z M 77.73516472603298,-13.108878065308886 L 77.70155908578846,-12.109442894352924 A 182.69320814215376 182.69320814215376 0 0 1 114.64415152268448,-7.060236539240798 L 113.93670133715844,-4.144843901018776 L 121.56464270945688,-5.8954182127170345 L 115.58741843671922,-10.947426723536829 L 114.87996825119318,-8.032034085314805 A 183.69320814215376 183.69320814215376 0 0 0 77.73516472603298,-13.108878065308886"/><text text-anchor="middle" pointer-events="none" font-size="8px" fill="#000000" x="69.38754107441338" y="-9.699727282458127" font-family="Helvetica Neue, Helvetica, Arial, sans-serif">DF</text></g><g class="relationship" transform="translate(23.584331133776086 -31.6195421674176) rotate(532.4967279331481)"><path class="b-outline" fill="#A5ABB6" stroke="none" d="M 24.018736134675446,6.953439040707552 L 24.277555179777966,5.987513214418485 A 255.1128175022308 255.1128175022308 0 0 0 79.55481960652813,14.453644731979125 L 79.51267828451283,15.45275639189444 A 256.11281750223077 256.11281750223077 0 0 1 24.018736134675446,6.953439040707552 Z M 96.20561804131582,15.61230416053354 L 96.18258129095035,14.612569541680841 A 255.1128175022308 255.1128175022308 0 0 0 151.61156770500742,7.204546155664443 L 150.89064010945037,4.29245697400047 L 158.52659706148285,6.007729962975344 L 152.57280449908347,11.087331731216405 L 151.85187690352643,8.175242549552433 A 256.11281750223077 256.11281750223077 0 0 1 96.20561804131582,15.61230416053354"/><text text-anchor="middle" pointer-events="none" font-size="8px" fill="#000000" x="87.86262656258496" y="18.16859716296861" transform="rotate(180 87.86262656258496 15.16859716296861)" font-family="Helvetica Neue, Helvetica, Arial, sans-serif">DF</text></g><g class="relationship" transform="translate(23.584331133776086 -31.6195421674176) rotate(238.59075516690052)"><path class="b-outline" fill="#A5ABB6" stroke="none" d="M 25 0.5 L 82.67887410715542 0.5 L 82.67887410715542 -0.5 L 25 -0.5 Z M 99.34293660715542 0.5 L 157.02181071431085 0.5 L 157.02181071431085 3.5 L 164.02181071431085 0 L 157.02181071431085 -3.5 L 157.02181071431085 -0.5 L 99.34293660715542 -0.5 Z"/><text text-anchor="middle" pointer-events="none" font-size="8px" fill="#000000" x="91.01090535715542" y="3" transform="rotate(180 91.01090535715542 0)" font-family="Helvetica Neue, Helvetica, Arial, sans-serif">DF</text></g><g class="relationship" transform="translate(23.584331133776086 -31.6195421674176) rotate(238.59075516690052)"><path class="b-outline" fill="#A5ABB6" stroke="none" d="M 21.40063509461097,-12.933012701892217 L 21.90063509461097,-12.06698729810778 A 143.10967300936568 143.10967300936568 0 0 1 82.59564555681558,-30.827406053193485 L 82.51976091663639,-31.82452265689882 A 144.10967300936568 144.10967300936568 0 0 0 21.40063509461097,-12.933012701892217 Z M 99.22977297764089,-32.12431682581534 L 99.18970417963611,-31.125119902568244 A 143.10967300936568 143.10967300936568 0 0 1 160.51859868408707,-14.553930876574212 L 159.1127581352011,-11.903721007317067 L 166.93672847050138,-11.715337907383116 L 162.39305274926835,-18.087544035583736 L 160.98721220038237,-15.437334166326592 A 144.10967300936568 144.10967300936568 0 0 0 99.22977297764089,-32.12431682581534"/><text text-anchor="middle" pointer-events="none" font-size="8px" fill="#000000" x="90.87938636986142" y="-28.716941052923815" transform="rotate(180 90.87938636986142 -31.716941052923815)" font-family="Helvetica Neue, Helvetica, Arial, sans-serif">DF</text></g><g class="relationship" transform="translate(23.584331133776086 -31.6195421674176) rotate(402.12849108137385)"><path class="b-outline" fill="#A5ABB6" stroke="none" d="M 24.018736134675446,-6.953439040707552 L 24.277555179777966,-5.987513214418485 A 259.84877958237746 259.84877958237746 0 0 1 80.76625595485591,-14.618559362368217 L 80.72482758161209,-15.61770083878207 A 260.84877958237746 260.84877958237746 0 0 0 24.018736134675446,-6.953439040707552 Z M 97.41730021233553,-15.77523054688254 L 97.39473567498399,-14.775485158469053 A 259.84877958237746 259.84877958237746 0 0 1 154.03626635669343,-7.2120682786919135 L 153.31463628083003,-4.300153095584864 L 160.95100679658714,-6.013583965528449 L 154.998439791178,-11.09462185616798 L 154.27680971531458,-8.18270667306093 A 260.84877958237746 260.84877958237746 0 0 0 97.41730021233553,-15.77523054688254"/><text text-anchor="middle" pointer-events="none" font-size="8px" fill="#000000" x="89.07452179515464" y="-12.330053087622105" font-family="Helvetica Neue, Helvetica, Arial, sans-serif">DF</text></g><g class="relationship" transform="translate(-25.405066784282436 54.36457476676305) rotate(283.59677227156686)"><path class="b-outline" fill="#A5ABB6" stroke="none" d="M 12.066987298107785,21.900635094610966 L 12.933012701892222,21.400635094610966 A 94.02049765452188 94.02049765452188 0 0 0 83.1633957033931,67.74216073297816 L 83.04433914952438,68.73504820745899 A 95.02049765452188 95.02049765452188 0 0 1 12.066987298107785,21.900635094610966 Z M 99.76672831318841,69.25677367731188 L 99.7097976898013,68.25839554047155 A 94.02049765452188 94.02049765452188 0 0 0 172.6924171604261,26.385003628244945 L 170.19290055604355,24.725962717231614 L 176.9800987201876,20.82930503652122 L 176.02510596626948,28.597058176262717 L 173.52558936188694,26.938017265249385 A 95.02049765452188 95.02049765452188 0 0 1 99.76672831318841,69.25677367731188"/><text text-anchor="middle" pointer-events="none" font-size="8px" fill="#000000" x="91.40962070961885" y="71.86491476727512" font-family="Helvetica Neue, Helvetica, Arial, sans-serif">DF</text></g><g class="relationship" transform="translate(-25.405066784282436 54.36457476676305) rotate(400.80817040569195)"><path class="b-outline" fill="#A5ABB6" stroke="none" d="M 24.018736134675446,6.953439040707552 L 24.277555179777966,5.987513214418485 A 290.189915963738 290.189915963738 0 0 0 88.53561894683725,15.672638773016104 L 88.49823441834656,16.67193972719832 A 291.189915963738 291.189915963738 0 0 1 24.018736134675446,6.953439040707552 Z M 105.18803822042055,16.817650249785117 L 105.1681068774229,15.817848898732677 A 290.189915963738 290.189915963738 0 0 0 169.58547496611365,7.2561256666171 L 168.8597304900686,4.345233199436271 L 176.49851480220977,6.047870633708781 L 170.55313426750706,11.137315622858203 L 169.82738979146202,8.226423155677375 A 291.189915963738 291.189915963738 0 0 1 105.18803822042055,16.817650249785117"/><text text-anchor="middle" pointer-events="none" font-size="8px" fill="#000000" x="96.8464572137991" y="19.364416994790133" font-family="Helvetica Neue, Helvetica, Arial, sans-serif">DF</text></g><g class="relationship" transform="translate(-25.405066784282436 54.36457476676305) rotate(463.00383802990774)"><path class="b-outline" fill="#A5ABB6" stroke="none" d="M 24.018736134675446,6.953439040707552 L 24.277555179777966,5.987513214418485 A 131.34383386689754 131.34383386689754 0 0 0 48.10260287645917,10.068679709162865 L 48.025178320882716,11.065677922899368 A 132.34383386689754 132.34383386689754 0 0 1 24.018736134675446,6.953439040707552 Z M 64.739594622092,11.304809080527605 L 64.69072378624116,10.30600397371083 A 131.34383386689754 131.34383386689754 0 0 0 88.62277375708804,6.908092571121531 L 87.92953376198025,3.989288310952147 L 95.54885703000124,5.776999959231584 L 89.5470937505651,10.79983158468071 L 88.85385375545731,7.881027324511327 A 132.34383386689754 132.34383386689754 0 0 1 64.739594622092,11.304809080527605"/><text text-anchor="middle" pointer-events="none" font-size="8px" fill="#000000" x="56.38575987588164" y="13.94945454824716" transform="rotate(180 56.38575987588164 10.94945454824716)" font-family="Helvetica Neue, Helvetica, Arial, sans-serif">DF</text></g><g class="relationship" transform="translate(-25.405066784282436 54.36457476676305) rotate(391.6598066926795)"><path class="b-outline" fill="#A5ABB6" stroke="none" d="M 12.066987298107785,21.900635094610966 L 12.933012701892222,21.400635094610966 A 42.761503403405946 42.761503403405946 0 0 0 39.425685748658026,41.4620986328175 L 39.17920528455538,42.43124639287049 A 43.761503403405946 43.761503403405946 0 0 1 12.066987298107785,21.900635094610966 Z M 55.90516052193775,43.37643234563289 L 55.769433933343926,42.38568601425 A 42.761503403405946 42.761503403405946 0 0 0 84.35357688490133,25.436620665902595 L 81.941031965194,23.65346980004902 L 88.91635305851091,20.104540997561095 L 87.57030344451111,27.814155153707365 L 85.15775852480378,26.03100428785379 A 43.761503403405946 43.761503403405946 0 0 1 55.90516052193775,43.37643234563289"/><text text-anchor="middle" pointer-events="none" font-size="8px" fill="#000000" x="47.52474179156912" y="46.212476259542456" font-family="Helvetica Neue, Helvetica, Arial, sans-serif">DF</text></g><g class="relationship" transform="translate(-25.405066784282436 54.36457476676305) rotate(283.59677227156686)"><path class="b-outline" fill="#A5ABB6" stroke="none" d="M 21.40063509461097,12.933012701892217 L 21.90063509461097,12.06698729810778 A 144.91303410510506 144.91303410510506 0 0 0 83.48793066652573,31.07345390654818 L 83.41292553294502,32.070637054187856 A 145.91303410510506 145.91303410510506 0 0 1 21.40063509461097,12.933012701892217 Z M 100.12249820580638,32.367707263631516 L 100.08298599845628,31.368488175808253 A 144.91303410510506 144.91303410510506 0 0 0 162.30695898187423,14.563193326891765 L 160.90025721924133,11.913440479736863 L 168.72416591900782,11.722514688607491 L 164.18256133205142,18.0961971230983 L 162.77585956941851,15.446444275943398 A 145.91303410510506 145.91303410510506 0 0 1 100.12249820580638,32.367707263631516"/><text text-anchor="middle" pointer-events="none" font-size="8px" fill="#000000" x="91.77234306094547" y="34.95867740165393" font-family="Helvetica Neue, Helvetica, Arial, sans-serif">DF</text></g><g class="relationship" transform="translate(-25.405066784282436 54.36457476676305) rotate(205.15997903982122)"><path class="b-outline" fill="#A5ABB6" stroke="none" d="M 17.324116139070416,18.03122292025696 L 18.031222920256962,17.324116139070412 A 75.87779812330363 75.87779812330363 0 0 0 60.957963373982835,38.78613770547079 L 60.81659178168472,39.77609430698982 A 76.87779812330363 76.87779812330363 0 0 1 17.324116139070416,18.03122292025696 Z M 77.5475150705642,40.32434666767007 L 77.47125655771747,39.3272585877 A 75.87779812330363 75.87779812330363 0 0 0 121.71096774270403,20.7215774669467 L 119.73307537634959,18.465930821942916 L 127.3037919754386,16.482436386286974 L 124.34815756450995,23.729106326951747 L 122.37026519815551,21.47345968194796 A 76.87779812330363 76.87779812330363 0 0 1 77.5475150705642,40.32434666767007"/><text text-anchor="middle" pointer-events="none" font-size="8px" fill="#000000" x="69.18346202127488" y="43.00723463063905" transform="rotate(180 69.18346202127488 40.00723463063905)" font-family="Helvetica Neue, Helvetica, Arial, sans-serif">DF</text></g><g class="relationship" transform="translate(62.92689122063756 108.83393924442731) rotate(410.3363510813538)"><path class="b-outline" fill="#A5ABB6" stroke="none" d="M 21.40063509461097,-12.933012701892217 L 21.90063509461097,-12.06698729810778 A 51.87085639134842 51.87085639134842 0 0 1 37.9284887559897,-18.06137688423901 L 37.73748411053819,-19.04296601692944 A 52.87085639134842 52.87085639134842 0 0 0 21.40063509461097,-12.933012701892217 Z M 54.480592504090595,-19.597177959467203 L 54.35491780034411,-18.605106455573342 A 51.87085639134842 51.87085639134842 0 0 1 70.74409248208926,-13.683749655651797 L 69.41918496452463,-10.992166465426989 L 77.24527117887457,-11.040895979705155 L 72.51063583884208,-17.27252724261821 L 71.18572832127745,-14.5809440523934 A 52.87085639134842 52.87085639134842 0 0 0 54.480592504090595,-19.597177959467203"/><text text-anchor="middle" pointer-events="none" font-size="8px" fill="#000000" x="46.10348975818102" y="-16.487697317853957" font-family="Helvetica Neue, Helvetica, Arial, sans-serif">DF</text></g><g class="relationship" transform="translate(62.92689122063756 108.83393924442731) rotate(410.3363510813538)"><path class="b-outline" fill="#A5ABB6" stroke="none" d="M 25 0.5 L 38.005534298707325 0.5 L 38.005534298707325 -0.5 L 25 -0.5 Z M 54.669596798707325 0.5 L 67.67513109741465 0.5 L 67.67513109741465 3.5 L 74.67513109741465 0 L 67.67513109741465 -3.5 L 67.67513109741465 -0.5 L 54.669596798707325 -0.5 Z"/><text text-anchor="middle" pointer-events="none" font-size="8px" fill="#000000" x="46.337565548707325" y="3" font-family="Helvetica Neue, Helvetica, Arial, sans-serif">DF</text></g><g class="relationship" transform="translate(62.92689122063756 108.83393924442731) rotate(410.3363510813538)"><path class="b-outline" fill="#A5ABB6" stroke="none" d="M 21.40063509461097,12.933012701892217 L 21.90063509461097,12.06698729810778 A 51.87085639134842 51.87085639134842 0 0 0 37.9284887559897,18.06137688423901 L 37.73748411053819,19.04296601692944 A 52.87085639134842 52.87085639134842 0 0 1 21.40063509461097,12.933012701892217 Z M 54.48059250409057,19.59717795946721 L 54.35491780034409,18.605106455573342 A 51.87085639134842 51.87085639134842 0 0 0 70.74409248208926,13.683749655651797 L 69.41918496452463,10.992166465426989 L 77.24527117887457,11.040895979705155 L 72.51063583884208,17.27252724261821 L 71.18572832127745,14.5809440523934 A 52.87085639134842 52.87085639134842 0 0 1 54.48059250409057,19.59717795946721"/><text text-anchor="middle" pointer-events="none" font-size="8px" fill="#000000" x="46.103489758181006" y="22.487697317853957" font-family="Helvetica Neue, Helvetica, Arial, sans-serif">DF</text></g><g class="relationship" transform="translate(160.94908139384188 92.62316435159737) rotate(222.12849108137385)"><path class="b-outline" fill="#A5ABB6" stroke="none" d="M 17.324116139070416,18.03122292025696 L 18.031222920256962,17.324116139070412 A 103.94490226603668 103.94490226603668 0 0 0 73.97696421636005,46.275840593913685 L 73.80808239932726,47.26147690202926 A 104.94490226603668 104.94490226603668 0 0 1 17.324116139070416,18.03122292025696 Z M 103.84966256848062,48.04341308929031 L 103.7322838857609,47.05032586006874 A 103.94490226603668 103.94490226603668 0 0 0 161.1083896248694,21.048195018649203 L 159.1002963006451,18.819392380189303 L 166.64361133531324,16.734111035202496 L 163.7858473905018,24.01993186992907 L 161.7777540662775,21.79112923146917 A 104.94490226603668 104.94490226603668 0 0 1 103.84966256848062,48.04341308929031"/><text text-anchor="middle" pointer-events="none" font-size="8px" fill="#000000" x="88.81374821807158" y="51.233511394560836" transform="rotate(180 88.81374821807158 48.233511394560836)" font-family="Helvetica Neue, Helvetica, Arial, sans-serif">Assign</text></g><g class="relationship" transform="translate(160.94908139384188 92.62316435159737) rotate(191.60164523708914)"><path class="b-outline" fill="#A5ABB6" stroke="none" d="M 17.324116139070416,-18.03122292025696 L 18.031222920256962,-17.324116139070412 A 107.53756435693491 107.53756435693491 0 0 1 76.48825057417744,-47.37385654567626 L 76.32474014467961,-48.360398151208145 A 108.53756435693491 108.53756435693491 0 0 0 17.324116139070416,-18.03122292025696 Z M 106.3688455991991,-49.1222725570432 L 106.25554766624174,-48.12871149782863 A 107.53756435693491 107.53756435693491 0 0 1 166.1604966427374,-21.08045704843597 L 164.14942079688322,-18.854345204385467 L 171.68993691983093,-16.75896538211799 L 168.8419311038763,-24.04860617383664 L 166.83085525802213,-21.822494329786135 A 108.53756435693491 108.53756435693491 0 0 0 106.3688455991991,-49.1222725570432"/><text text-anchor="middle" pointer-events="none" font-size="8px" fill="#000000" x="91.33297034596387" y="-46.28641919586509" transform="rotate(180 91.33297034596387 -49.28641919586509)" font-family="Helvetica Neue, Helvetica, Arial, sans-serif">Assign</text></g><g class="relationship" transform="translate(160.94908139384188 92.62316435159737) rotate(278.4369077860602)"><path class="b-outline" fill="#A5ABB6" stroke="none" d="M 21.40063509461097,-12.933012701892217 L 21.90063509461097,-12.06698729810778 A 51.89892764987124 51.89892764987124 0 0 1 37.94193449089573,-18.065549211665385 L 37.75102179043505,-19.04715623120162 A 52.89892764987124 52.89892764987124 0 0 0 21.40063509461097,-12.933012701892217 Z M 54.494125819926595,-19.601226611920133 L 54.36852730223346,-18.609145459819516 A 51.89892764987124 51.89892764987124 0 0 1 70.77131109905869,-13.684237839707475 L 69.44635816356761,-10.992677006522841 L 77.27244519907134,-11.041274462425717 L 72.5379150130468,-17.272985617286984 L 71.21296207755572,-14.581424784102353 A 52.89892764987124 52.89892764987124 0 0 0 54.494125819926595,-19.601226611920133"/><text text-anchor="middle" pointer-events="none" font-size="8px" fill="#000000" x="46.117038563298124" y="-16.491457411398045" font-family="Helvetica Neue, Helvetica, Arial, sans-serif">DF</text></g><g class="relationship" transform="translate(160.94908139384188 92.62316435159737) rotate(278.4369077860602)"><path class="b-outline" fill="#A5ABB6" stroke="none" d="M 25 0.5 L 38.019028154471656 0.5 L 38.019028154471656 -0.5 L 25 -0.5 Z M 54.683090654471656 0.5 L 67.70211880894331 0.5 L 67.70211880894331 3.5 L 74.70211880894331 0 L 67.70211880894331 -3.5 L 67.70211880894331 -0.5 L 54.683090654471656 -0.5 Z"/><text text-anchor="middle" pointer-events="none" font-size="8px" fill="#000000" x="46.351059404471656" y="3" font-family="Helvetica Neue, Helvetica, Arial, sans-serif">DF</text></g><g class="relationship" transform="translate(160.94908139384188 92.62316435159737) rotate(278.4369077860602)"><path class="b-outline" fill="#A5ABB6" stroke="none" d="M 21.40063509461097,12.933012701892217 L 21.90063509461097,12.06698729810778 A 51.89892764987124 51.89892764987124 0 0 0 37.94193449089575,18.06554921166539 L 37.751021790435054,19.047156231201626 A 52.89892764987124 52.89892764987124 0 0 1 21.40063509461097,12.933012701892217 Z M 54.494125819926595,19.601226611920133 L 54.36852730223346,18.609145459819516 A 51.89892764987124 51.89892764987124 0 0 0 70.77131109905869,13.684237839707475 L 69.44635816356761,10.992677006522841 L 77.27244519907134,11.041274462425717 L 72.5379150130468,17.272985617286984 L 71.21296207755572,14.581424784102353 A 52.89892764987124 52.89892764987124 0 0 1 54.494125819926595,19.601226611920133"/><text text-anchor="middle" pointer-events="none" font-size="8px" fill="#000000" x="46.11703856329813" y="22.491457411398045" font-family="Helvetica Neue, Helvetica, Arial, sans-serif">DF</text></g><g class="relationship" transform="translate(160.94908139384188 92.62316435159737) rotate(309.11250157889083)"><path class="b-outline" fill="#A5ABB6" stroke="none" d="M 6.953439040707552 24.018736134675446 L 17.306200844808384 62.65576918623819 A 17.916697508022974 17.916697508022974 0 1 1 -17.306200844808384 62.65576918623819 L -8.765172356425198 30.780216918698923 L -4.901469051268926 31.815493099109005 L -6.4704761275630185 24.148145657226706 L -11.662949835292403 30.00375978339136 L -7.79924653013613 31.039035963801442 L -16.340275018519314 62.91458823134071 A 16.916697508022974 16.916697508022974 0 1 0 16.340275018519314 62.91458823134071 L 5.987513214418485 24.277555179777966 Z"/><text text-anchor="middle" pointer-events="none" font-size="8px" fill="#000000" x="0" y="94.20964923467838" font-family="Helvetica Neue, Helvetica, Arial, sans-serif">DF</text></g><g class="relationship" transform="translate(175.5774012146383 -5.999980772724947) rotate(523.2824980672285)"><path class="b-outline" fill="#A5ABB6" stroke="none" d="M 17.324116139070416,-18.03122292025696 L 18.031222920256962,-17.324116139070412 A 121.5432710201942 121.5432710201942 0 0 1 86.29361422340874,-51.630304569632855 L 86.14813780423384,-52.619666288855925 A 122.5432710201942 122.5432710201942 0 0 0 17.324116139070416,-18.03122292025696 Z M 116.19896251462578,-53.31213757742201 L 116.09921270097522,-52.31712502741236 A 121.5432710201942 121.5432710201942 0 0 1 185.86936749804602,-21.191667108682317 L 183.84801149673658,-18.974885676973184 L 191.3787501722522,-16.8446333442452 L 188.56450883312525,-24.1473756842945 L 186.5431528318158,-21.930594252585365 A 122.5432710201942 122.5432710201942 0 0 0 116.19896251462578,-53.31213757742201"/><text text-anchor="middle" pointer-events="none" font-size="8px" fill="#000000" x="101.16375617028442" y="-50.390926704394204" transform="rotate(180 101.16375617028442 -53.390926704394204)" font-family="Helvetica Neue, Helvetica, Arial, sans-serif">Assign</text></g><g class="relationship" transform="translate(175.5774012146383 -5.999980772724947) rotate(494.4500883513125)"><path class="b-outline" fill="#A5ABB6" stroke="none" d="M 21.40063509461097,12.933012701892217 L 21.90063509461097,12.06698729810778 A 114.58155342645941 114.58155342645941 0 0 0 68.50898543318205,26.918957125477903 L 68.4157555366131,27.914601733953106 A 115.58155342645941 115.58155342645941 0 0 1 21.40063509461097,12.933012701892217 Z M 85.13392656884133,28.265139214393244 L 85.08251252754467,27.26646179081868 A 114.58155342645941 114.58155342645941 0 0 0 132.27244192706428,14.381203069922211 L 130.88266245911637,11.722535540788417 L 138.7076294063678,11.581495566232695 L 134.1254812176615,17.92609310876727 L 132.7357017497136,15.267425579633475 A 115.58155342645941 115.58155342645941 0 0 1 85.13392656884133,28.265139214393244"/><text text-anchor="middle" pointer-events="none" font-size="8px" fill="#000000" x="76.77897487795339" y="30.892716101232338" transform="rotate(180 76.77897487795339 27.892716101232338)" font-family="Helvetica Neue, Helvetica, Arial, sans-serif">DF</text></g><g class="relationship" transform="translate(175.5774012146383 -5.999980772724947) rotate(494.4500883513125)"><path class="b-outline" fill="#A5ABB6" stroke="none" d="M 25 0.5 L 68.59956482457473 0.5 L 68.59956482457473 -0.5 L 25 -0.5 Z M 85.26362732457473 0.5 L 128.86319214914946 0.5 L 128.86319214914946 3.5 L 135.86319214914946 0 L 128.86319214914946 -3.5 L 128.86319214914946 -0.5 L 85.26362732457473 -0.5 Z"/><text text-anchor="middle" pointer-events="none" font-size="8px" fill="#000000" x="76.93159607457473" y="3" transform="rotate(180 76.93159607457473 0)" font-family="Helvetica Neue, Helvetica, Arial, sans-serif">DF</text></g><g class="relationship" transform="translate(175.5774012146383 -5.999980772724947) rotate(464.356375562243)"><path class="b-outline" fill="#A5ABB6" stroke="none" d="M 24.018736134675446,-6.953439040707552 L 24.277555179777966,-5.987513214418485 A 284.3035326320736 284.3035326320736 0 0 1 87.02727956884885,-15.468440880294395 L 86.9891743636629,-16.46771461323135 A 285.3035326320736 285.3035326320736 0 0 0 24.018736134675446,-6.953439040707552 Z M 103.67945612052293,-16.61557882081189 L 103.65906123773982,-15.615786818065146 A 284.3035326320736 284.3035326320736 0 0 1 166.5669118753666,-7.2480972645522765 L 165.84191714289454,-4.3370179736555485 L 173.4802626762043,-6.041622770600305 L 167.53357151866265,-11.129536319081247 L 166.8085767861906,-8.218457028184519 A 285.3035326320736 285.3035326320736 0 0 0 103.67945612052293,-16.61557882081189"/><text text-anchor="middle" pointer-events="none" font-size="8px" fill="#000000" x="95.33766318562682" y="-13.163745115265385" transform="rotate(180 95.33766318562682 -16.163745115265385)" font-family="Helvetica Neue, Helvetica, Arial, sans-serif">DF</text></g><g class="relationship" transform="translate(175.5774012146383 -5.999980772724947) rotate(464.356375562243)"><path class="b-outline" fill="#A5ABB6" stroke="none" d="M 24.018736134675446,6.953439040707552 L 24.277555179777966,5.987513214418485 A 284.3035326320736 284.3035326320736 0 0 0 87.027279568849,15.468440880294395 L 86.98917436366304,16.46771461323135 A 285.3035326320736 285.3035326320736 0 0 1 24.018736134675446,6.953439040707552 Z M 103.67945612052301,16.61557882081189 L 103.6590612377399,15.615786818065146 A 284.3035326320736 284.3035326320736 0 0 0 166.5669118753666,7.2480972645522765 L 165.84191714289454,4.3370179736555485 L 173.4802626762043,6.041622770600305 L 167.53357151866265,11.129536319081247 L 166.8085767861906,8.218457028184519 A 285.3035326320736 285.3035326320736 0 0 1 103.67945612052301,16.61557882081189"/><text text-anchor="middle" pointer-events="none" font-size="8px" fill="#000000" x="95.33766318562694" y="19.163745115265385" transform="rotate(180 95.33766318562694 16.163745115265385)" font-family="Helvetica Neue, Helvetica, Arial, sans-serif">DF</text></g><g class="relationship" transform="translate(175.5774012146383 -5.999980772724947) rotate(494.4500883513125)"><path class="b-outline" fill="#A5ABB6" stroke="none" d="M 21.40063509461097,-12.933012701892217 L 21.90063509461097,-12.06698729810778 A 114.58155342645941 114.58155342645941 0 0 1 68.50898543318205,-26.918957125477903 L 68.41575553661309,-27.914601733953106 A 115.58155342645941 115.58155342645941 0 0 0 21.40063509461097,-12.933012701892217 Z M 85.13392656884128,-28.265139214393244 L 85.08251252754461,-27.26646179081868 A 114.58155342645941 114.58155342645941 0 0 1 132.27244192706428,-14.381203069922211 L 130.88266245911637,-11.722535540788417 L 138.7076294063678,-11.581495566232695 L 134.1254812176615,-17.92609310876727 L 132.7357017497136,-15.267425579633475 A 115.58155342645941 115.58155342645941 0 0 0 85.13392656884128,-28.265139214393244"/><text text-anchor="middle" pointer-events="none" font-size="8px" fill="#000000" x="76.77897487795336" y="-24.892716101232338" transform="rotate(180 76.77897487795336 -27.892716101232338)" font-family="Helvetica Neue, Helvetica, Arial, sans-serif">DF</text></g><g class="relationship" transform="translate(175.5774012146383 -5.999980772724947) rotate(234.0023012295531)"><path class="b-outline" fill="#A5ABB6" stroke="none" d="M 6.953439040707552 24.018736134675446 L 17.306200844808384 62.65576918623819 A 17.916697508022974 17.916697508022974 0 1 1 -17.306200844808384 62.65576918623819 L -8.765172356425198 30.780216918698923 L -4.901469051268926 31.815493099109005 L -6.4704761275630185 24.148145657226706 L -11.662949835292403 30.00375978339136 L -7.79924653013613 31.039035963801442 L -16.340275018519314 62.91458823134071 A 16.916697508022974 16.916697508022974 0 1 0 16.340275018519314 62.91458823134071 L 5.987513214418485 24.277555179777966 Z"/><text text-anchor="middle" pointer-events="none" font-size="8px" fill="#000000" x="0" y="94.20964923467838" transform="rotate(180 0 91.20964923467838)" font-family="Helvetica Neue, Helvetica, Arial, sans-serif">DF</text></g><g class="relationship" transform="translate(-74.9238842055524 -192.94336693108121) rotate(438.67731933168415)"><path class="b-outline" fill="#A5ABB6" stroke="none" d="M 24.018736134675446,-6.953439040707552 L 24.277555179777966,-5.987513214418485 A 390.38810174164524 390.38810174164524 0 0 1 107.60585629196646,-18.887678740364663 L 107.56048714643936,-19.88664903053052 A 391.38810174164524 391.38810174164524 0 0 0 24.018736134675446,-6.953439040707552 Z M 137.6024795296664,-20.096813648121554 L 137.57109112367485,-19.097306385532022 A 390.38810174164524 390.38810174164524 0 0 1 221.07171891828938,-7.364225172755393 L 220.33587972955004,-4.455868129970679 L 227.9805252162436,-6.1319932394944106 L 222.05283783660846,-11.242034563135011 L 221.31699864786913,-8.333677520350298 A 391.38810174164524 391.38810174164524 0 0 0 137.6024795296664,-20.096813648121554"/><text text-anchor="middle" pointer-events="none" font-size="8px" fill="#000000" x="122.58296384233721" y="-16.780100576055418" font-family="Helvetica Neue, Helvetica, Arial, sans-serif">Assign</text></g><g class="relationship" transform="translate(-74.9238842055524 -192.94336693108121) rotate(474.0689300265765)"><path class="b-outline" fill="#A5ABB6" stroke="none" d="M 21.40063509461097,-12.933012701892217 L 21.90063509461097,-12.06698729810778 A 157.05994981116078 157.05994981116078 0 0 1 89.50253432561539,-32.72838706183556 L 89.43295531653182,-33.72596350577102 A 158.05994981116078 158.05994981116078 0 0 0 21.40063509461097,-12.933012701892217 Z M 106.13976422022667,-34.00588915743445 L 106.10364403780945,-33.006541704131976 A 157.05994981116078 157.05994981116078 0 0 1 174.3597741003872,-14.621468173794392 L 172.94765412602547,-11.974598857411603 L 180.77115583434065,-11.767666453014206 L 176.24260073286948,-18.150627262304777 L 174.83048075850775,-15.503757945921988 A 158.05994981116078 158.05994981116078 0 0 0 106.13976422022667,-34.00588915743445"/><text text-anchor="middle" pointer-events="none" font-size="8px" fill="#000000" x="97.79103458877036" y="-30.586918922066317" transform="rotate(180 97.79103458877036 -33.58691892206632)" font-family="Helvetica Neue, Helvetica, Arial, sans-serif">DF</text></g><g class="relationship" transform="translate(-74.9238842055524 -192.94336693108121) rotate(474.0689300265765)"><path class="b-outline" fill="#A5ABB6" stroke="none" d="M 25 0.5 L 89.58216881876525 0.5 L 89.58216881876525 -0.5 L 25 -0.5 Z M 106.24623131876525 0.5 L 170.8284001375305 0.5 L 170.8284001375305 3.5 L 177.8284001375305 0 L 170.8284001375305 -3.5 L 170.8284001375305 -0.5 L 106.24623131876525 -0.5 Z"/><text text-anchor="middle" pointer-events="none" font-size="8px" fill="#000000" x="97.91420006876525" y="3" transform="rotate(180 97.91420006876525 0)" font-family="Helvetica Neue, Helvetica, Arial, sans-serif">DF</text></g><g class="relationship" transform="translate(-74.9238842055524 -192.94336693108121) rotate(393.2394525103424)"><path class="b-outline" fill="#A5ABB6" stroke="none" d="M 24.018736134675446,-6.953439040707552 L 24.277555179777966,-5.987513214418485 A 117.35036891091319 117.35036891091319 0 0 1 44.588200642283,-9.553971703732557 L 44.502458560218614,-10.550289070520492 A 118.35036891091319 118.35036891091319 0 0 0 24.018736134675446,-6.953439040707552 Z M 61.2213649641579,-10.803556458826876 L 61.16584085028399,-9.805099112327525 A 117.35036891091319 117.35036891091319 0 0 1 81.57519536514947,-6.855490062619973 L 80.88686868979336,-3.9355232155490665 L 88.5031724542076,-5.736055627967546 L 82.49296426562428,-10.748779192047849 L 81.80463759026817,-7.828812344976942 A 118.35036891091319 118.35036891091319 0 0 0 61.2213649641579,-10.803556458826876"/><text text-anchor="middle" pointer-events="none" font-size="8px" fill="#000000" x="52.865006802075214" y="-7.472610308449006" font-family="Helvetica Neue, Helvetica, Arial, sans-serif">DF</text></g><g class="relationship" transform="translate(-74.9238842055524 -192.94336693108121) rotate(393.2394525103424)"><path class="b-outline" fill="#A5ABB6" stroke="none" d="M 24.018736134675446,6.953439040707552 L 24.277555179777966,5.987513214418485 A 117.35036891091319 117.35036891091319 0 0 0 44.58820064228306,9.553971703732572 L 44.50245856021867,10.550289070520506 A 118.35036891091319 118.35036891091319 0 0 1 24.018736134675446,6.953439040707552 Z M 61.22136496415792,10.803556458826861 L 61.16584085028401,9.805099112327511 A 117.35036891091319 117.35036891091319 0 0 0 81.57519536514947,6.855490062619973 L 80.88686868979336,3.9355232155490665 L 88.5031724542076,5.736055627967546 L 82.49296426562428,10.748779192047849 L 81.80463759026817,7.828812344976942 A 118.35036891091319 118.35036891091319 0 0 1 61.22136496415792,10.803556458826861"/><text text-anchor="middle" pointer-events="none" font-size="8px" fill="#000000" x="52.86500680207525" y="13.472610308449006" font-family="Helvetica Neue, Helvetica, Arial, sans-serif">DF</text></g><g class="relationship" transform="translate(-74.9238842055524 -192.94336693108121) rotate(474.0689300265765)"><path class="b-outline" fill="#A5ABB6" stroke="none" d="M 21.40063509461097,12.933012701892217 L 21.90063509461097,12.06698729810778 A 157.05994981116078 157.05994981116078 0 0 0 89.50253432561541,32.72838706183556 L 89.43295531653185,33.72596350577105 A 158.05994981116078 158.05994981116078 0 0 1 21.40063509461097,12.933012701892217 Z M 106.13976422022665,34.00588915743445 L 106.10364403780943,33.006541704131976 A 157.05994981116078 157.05994981116078 0 0 0 174.3597741003872,14.621468173794392 L 172.94765412602547,11.974598857411603 L 180.77115583434065,11.767666453014206 L 176.24260073286948,18.150627262304777 L 174.83048075850775,15.503757945921988 A 158.05994981116078 158.05994981116078 0 0 1 106.13976422022665,34.00588915743445"/><text text-anchor="middle" pointer-events="none" font-size="8px" fill="#000000" x="97.79103458877036" y="36.58691892206632" transform="rotate(180 97.79103458877036 33.58691892206632)" font-family="Helvetica Neue, Helvetica, Arial, sans-serif">DF</text></g><g class="relationship" transform="translate(-74.9238842055524 -192.94336693108121) rotate(537.2680287201808)"><path class="b-outline" fill="#A5ABB6" stroke="none" d="M 6.953439040707552 24.018736134675446 L 17.306200844808384 62.65576918623819 A 17.916697508022974 17.916697508022974 0 1 1 -17.306200844808384 62.65576918623819 L -8.765172356425198 30.780216918698923 L -4.901469051268926 31.815493099109005 L -6.4704761275630185 24.148145657226706 L -11.662949835292403 30.00375978339136 L -7.79924653013613 31.039035963801442 L -16.340275018519314 62.91458823134071 A 16.916697508022974 16.916697508022974 0 1 0 16.340275018519314 62.91458823134071 L 5.987513214418485 24.277555179777966 Z"/><text text-anchor="middle" pointer-events="none" font-size="8px" fill="#000000" x="0" y="94.20964923467838" transform="rotate(180 0 91.20964923467838)" font-family="Helvetica Neue, Helvetica, Arial, sans-serif">DF</text></g><g class="relationship" transform="translate(-183.29786229524692 -106.10889441309897) rotate(379.8017601915294)"><path class="b-outline" fill="#A5ABB6" stroke="none" d="M 24.018736134675446,6.953439040707552 L 24.277555179777966,5.987513214418485 A 327.4761730735798 327.4761730735798 0 0 0 91.44242675059209,16.673120546002224 L 91.38870620453586,17.67167655491278 A 328.4761730735798 328.4761730735798 0 0 1 24.018736134675446,6.953439040707552 Z M 121.43473231660022,17.91185528429827 L 121.39698191719663,16.91256808466801 A 327.4761730735798 327.4761730735798 0 0 0 188.72409450987448,7.3020484784440765 L 187.99406152909216,4.392228579039635 L 195.63534643861524,6.083608173186056 L 189.69747181758424,11.181808344316664 L 188.96743883680193,8.271988444912223 A 328.4761730735798 328.4761730735798 0 0 1 121.43473231660022,17.91185528429827"/><text text-anchor="middle" pointer-events="none" font-size="8px" fill="#000000" x="106.412968282346" y="20.63551502656827" font-family="Helvetica Neue, Helvetica, Arial, sans-serif">Assign</text></g><g class="relationship" transform="translate(-183.29786229524692 -106.10889441309897) rotate(321.2966049300194)"><path class="b-outline" fill="#A5ABB6" stroke="none" d="M 21.40063509461097,-12.933012701892217 L 21.90063509461097,-12.06698729810778 A 92.1965233771315 92.1965233771315 0 0 1 57.50854915018878,-23.820226242587196 L 57.394766685853575,-24.813731929943742 A 93.1965233771315 93.1965233771315 0 0 0 21.40063509461097,-12.933012701892217 Z M 74.1212867022117,-25.217661763871902 L 74.05559337270563,-24.21982190374483 A 92.1965233771315 92.1965233771315 0 0 1 110.18932880417135,-14.199076779539633 L 108.81648640809486,-11.531624107881719 L 116.64219210405257,-11.440353300637462 L 112.01978533227334,-17.755680341750185 L 110.64694293619685,-15.088227670092271 A 93.1965233771315 93.1965233771315 0 0 0 74.1212867022117,-25.217661763871902"/><text text-anchor="middle" pointer-events="none" font-size="8px" fill="#000000" x="65.76101477866247" y="-21.891961848466934" font-family="Helvetica Neue, Helvetica, Arial, sans-serif">DF</text></g><g class="relationship" transform="translate(-183.29786229524692 -106.10889441309897) rotate(321.2966049300194)"><path class="b-outline" fill="#A5ABB6" stroke="none" d="M 25 0.5 L 57.603450933934255 0.5 L 57.603450933934255 -0.5 L 25 -0.5 Z M 74.26751343393425 0.5 L 106.87096436786851 0.5 L 106.87096436786851 3.5 L 113.87096436786851 0 L 106.87096436786851 -3.5 L 106.87096436786851 -0.5 L 74.26751343393425 -0.5 Z"/><text text-anchor="middle" pointer-events="none" font-size="8px" fill="#000000" x="65.93548218393425" y="3" font-family="Helvetica Neue, Helvetica, Arial, sans-serif">DF</text></g><g class="relationship" transform="translate(-183.29786229524692 -106.10889441309897) rotate(321.2966049300194)"><path class="b-outline" fill="#A5ABB6" stroke="none" d="M 21.40063509461097,12.933012701892217 L 21.90063509461097,12.06698729810778 A 92.1965233771315 92.1965233771315 0 0 0 57.50854915018878,23.820226242587196 L 57.394766685853575,24.813731929943742 A 93.1965233771315 93.1965233771315 0 0 1 21.40063509461097,12.933012701892217 Z M 74.12128670221169,25.217661763871902 L 74.05559337270562,24.21982190374483 A 92.1965233771315 92.1965233771315 0 0 0 110.18932880417135,14.199076779539633 L 108.81648640809486,11.531624107881719 L 116.64219210405257,11.440353300637462 L 112.01978533227334,17.755680341750185 L 110.64694293619685,15.088227670092271 A 93.1965233771315 93.1965233771315 0 0 1 74.12128670221169,25.217661763871902"/><text text-anchor="middle" pointer-events="none" font-size="8px" fill="#000000" x="65.76101477866246" y="27.891961848466934" font-family="Helvetica Neue, Helvetica, Arial, sans-serif">DF</text></g><g class="relationship" transform="translate(-183.29786229524692 -106.10889441309897) rotate(440.5491825607744)"><path class="b-outline" fill="#A5ABB6" stroke="none" d="M 6.953439040707552 24.018736134675446 L 17.306200844808384 62.65576918623819 A 17.916697508022974 17.916697508022974 0 1 1 -17.306200844808384 62.65576918623819 L -8.765172356425198 30.780216918698923 L -4.901469051268926 31.815493099109005 L -6.4704761275630185 24.148145657226706 L -11.662949835292403 30.00375978339136 L -7.79924653013613 31.039035963801442 L -16.340275018519314 62.91458823134071 A 16.916697508022974 16.916697508022974 0 1 0 16.340275018519314 62.91458823134071 L 5.987513214418485 24.277555179777966 Z"/><text text-anchor="middle" pointer-events="none" font-size="8px" fill="#000000" x="0" y="94.20964923467838" font-family="Helvetica Neue, Helvetica, Arial, sans-serif">DF</text></g><g class="relationship" transform="translate(-52.37827430748154 171.16267667633662) rotate(290.5360455187604)"><path class="b-outline" fill="#A5ABB6" stroke="none" d="M 24.018736134675446,6.953439040707552 L 24.277555179777966,5.987513214418485 A 320.96840812542604 320.96840812542604 0 0 0 89.77252100764694,16.442563504107795 L 89.71775620641965,17.441062786304087 A 321.96840812542604 321.96840812542604 0 0 1 24.018736134675446,6.953439040707552 Z M 119.76425045800111,17.684838425423436 L 119.72569400939985,16.685582001740727 A 320.96840812542604 320.96840812542604 0 0 0 185.38167629737205,7.294596155988307 L 184.6523392450974,4.384601746340873 L 192.2932194285952,6.077808768955361 L 186.35412570040492,11.174588702184888 L 185.62478864813028,8.264594292537453 A 321.96840812542604 321.96840812542604 0 0 1 119.76425045800111,17.684838425423436"/><text text-anchor="middle" pointer-events="none" font-size="8px" fill="#000000" x="104.74221451483324" y="20.41366665014732" font-family="Helvetica Neue, Helvetica, Arial, sans-serif">Assign</text></g><g class="relationship" transform="translate(-52.37827430748154 171.16267667633662) rotate(283.00383802990774)"><path class="b-outline" fill="#A5ABB6" stroke="none" d="M 24.018736134675446,6.953439040707552 L 24.277555179777966,5.987513214418485 A 131.34383386689754 131.34383386689754 0 0 0 41.489897695256374,9.386410537666478 L 41.36212661798554,10.37821422379244 A 132.34383386689754 132.34383386689754 0 0 1 24.018736134675446,6.953439040707552 Z M 71.41958610182299,10.80824270652289 L 71.32024074604514,9.813189692716406 A 131.34383386689754 131.34383386689754 0 0 0 88.62277375708804,6.908092571121531 L 87.92953376198025,3.989288310952147 L 95.54885703000124,5.776999959231584 L 89.5470937505651,10.79983158468071 L 88.85385375545731,7.881027324511327 A 132.34383386689754 132.34383386689754 0 0 1 71.41958610182299,10.80824270652289"/><text text-anchor="middle" pointer-events="none" font-size="8px" fill="#000000" x="56.38575987588164" y="13.94945454824716" font-family="Helvetica Neue, Helvetica, Arial, sans-serif">Assign</text></g><g class="relationship" transform="translate(-52.37827430748154 171.16267667633662) rotate(331.6063572583469)"><path class="b-outline" fill="#A5ABB6" stroke="none" d="M 24.018736134675446,-6.953439040707552 L 24.277555179777966,-5.987513214418485 A 153.53172302455755 153.53172302455755 0 0 1 53.69933581168684,-10.87207192223363 L 53.632150000760966,-11.869812402924993 A 154.53172302455755 154.53172302455755 0 0 0 24.018736134675446,-6.953439040707552 Z M 70.34071030930392,-12.089434062803349 L 70.29977229955713,-11.090272374507634 A 153.53172302455755 153.53172302455755 0 0 1 99.83977383050447,-6.980722657824509 L 99.13975006996537,-4.063537930269412 L 106.76320882155622,-5.833531337825805 L 100.7731388445566,-10.870302294564638 L 100.0731150840175,-7.953117567009541 A 154.53172302455755 154.53172302455755 0 0 0 70.34071030930392,-12.089434062803349"/><text text-anchor="middle" pointer-events="none" font-size="8px" fill="#000000" x="61.990030996720115" y="-8.705675387586183" font-family="Helvetica Neue, Helvetica, Arial, sans-serif">DF</text></g><g class="relationship" transform="translate(-52.37827430748154 171.16267667633662) rotate(331.6063572583469)"><path class="b-outline" fill="#A5ABB6" stroke="none" d="M 24.018736134675446,6.953439040707552 L 24.277555179777966,5.987513214418485 A 153.53172302455755 153.53172302455755 0 0 0 53.69933581168686,10.87207192223363 L 53.63215000076098,11.869812402924993 A 154.53172302455755 154.53172302455755 0 0 1 24.018736134675446,6.953439040707552 Z M 70.3407103093039,12.089434062803349 L 70.29977229955713,11.090272374507634 A 153.53172302455755 153.53172302455755 0 0 0 99.83977383050447,6.980722657824509 L 99.13975006996537,4.063537930269412 L 106.76320882155622,5.833531337825805 L 100.7731388445566,10.870302294564638 L 100.0731150840175,7.953117567009541 A 154.53172302455755 154.53172302455755 0 0 1 70.3407103093039,12.089434062803349"/><text text-anchor="middle" pointer-events="none" font-size="8px" fill="#000000" x="61.99003099672012" y="14.705675387586183" font-family="Helvetica Neue, Helvetica, Arial, sans-serif">DF</text></g><g class="relationship" transform="translate(-52.37827430748154 171.16267667633662) rotate(339.7880953717214)"><path class="b-outline" fill="#A5ABB6" stroke="none" d="M 21.40063509461097,-12.933012701892217 L 21.90063509461097,-12.06698729810778 A 181.76933157291052 181.76933157291052 0 0 1 101.7572055097404,-36.08460985004376 L 101.69653468438226,-37.08276767872135 A 182.76933157291052 182.76933157291052 0 0 0 21.40063509461097,-12.933012701892217 Z M 118.39861292684866,-37.33324020266531 L 118.36790037788064,-36.333711944267435 A 181.76933157291052 181.76933157291052 0 0 1 198.90875826663213,-14.721487578003748 L 197.48733931811682,-12.07960034104574 L 205.31006497762004,-11.845157904294348 L 200.8039835313192,-18.24400389394776 L 199.3825645828039,-15.602116656989752 A 182.76933157291052 182.76933157291052 0 0 0 118.39861292684866,-37.33324020266531"/><text text-anchor="middle" pointer-events="none" font-size="8px" fill="#000000" x="110.05220826169842" y="-33.898967856055606" font-family="Helvetica Neue, Helvetica, Arial, sans-serif">DF</text></g><g class="relationship" transform="translate(-52.37827430748154 171.16267667633662) rotate(339.7880953717214)"><path class="b-outline" fill="#A5ABB6" stroke="none" d="M 25 0.5 L 101.8308647261351 0.5 L 101.8308647261351 -0.5 L 25 -0.5 Z M 118.4949272261351 0.5 L 195.3257919522702 0.5 L 195.3257919522702 3.5 L 202.3257919522702 0 L 195.3257919522702 -3.5 L 195.3257919522702 -0.5 L 118.4949272261351 -0.5 Z"/><text text-anchor="middle" pointer-events="none" font-size="8px" fill="#000000" x="110.1628959761351" y="3" font-family="Helvetica Neue, Helvetica, Arial, sans-serif">DF</text></g><g class="relationship" transform="translate(-52.37827430748154 171.16267667633662) rotate(339.7880953717214)"><path class="b-outline" fill="#A5ABB6" stroke="none" d="M 21.40063509461097,12.933012701892217 L 21.90063509461097,12.06698729810778 A 181.76933157291052 181.76933157291052 0 0 0 101.75720550974037,36.08460985004376 L 101.69653468438224,37.08276767872135 A 182.76933157291052 182.76933157291052 0 0 1 21.40063509461097,12.933012701892217 Z M 118.39861292684867,37.33324020266531 L 118.36790037788066,36.333711944267435 A 181.76933157291052 181.76933157291052 0 0 0 198.90875826663213,14.721487578003748 L 197.48733931811682,12.07960034104574 L 205.31006497762004,11.845157904294348 L 200.8039835313192,18.24400389394776 L 199.3825645828039,15.602116656989752 A 182.76933157291052 182.76933157291052 0 0 1 118.39861292684867,37.33324020266531"/><text text-anchor="middle" pointer-events="none" font-size="8px" fill="#000000" x="110.05220826169842" y="39.898967856055606" font-family="Helvetica Neue, Helvetica, Arial, sans-serif">DF</text></g><g class="relationship" transform="translate(-52.37827430748154 171.16267667633662) rotate(401.39596670081454)"><path class="b-outline" fill="#A5ABB6" stroke="none" d="M 6.953439040707552 24.018736134675446 L 17.306200844808384 62.65576918623819 A 17.916697508022974 17.916697508022974 0 1 1 -17.306200844808384 62.65576918623819 L -8.765172356425198 30.780216918698923 L -4.901469051268926 31.815493099109005 L -6.4704761275630185 24.148145657226706 L -11.662949835292403 30.00375978339136 L -7.79924653013613 31.039035963801442 L -16.340275018519314 62.91458823134071 A 16.916697508022974 16.916697508022974 0 1 0 16.340275018519314 62.91458823134071 L 5.987513214418485 24.277555179777966 Z"/><text text-anchor="middle" pointer-events="none" font-size="8px" fill="#000000" x="0" y="94.20964923467838" font-family="Helvetica Neue, Helvetica, Arial, sans-serif">DF</text></g><g class="relationship" transform="translate(-157.64448483918846 -7.749786769239025) rotate(352.4967279331481)"><path class="b-outline" fill="#A5ABB6" stroke="none" d="M 24.018736134675446,6.953439040707552 L 24.277555179777966,5.987513214418485 A 255.1128175022308 255.1128175022308 0 0 0 72.9043832676547,14.08611149830088 L 72.8361733364492,15.083782488800693 A 256.11281750223077 256.11281750223077 0 0 1 24.018736134675446,6.953439040707552 Z M 102.8879557957396,15.37101139544393 L 102.83882766182062,14.372218911262365 A 255.1128175022308 255.1128175022308 0 0 0 151.61156770500742,7.204546155664443 L 150.89064010945037,4.29245697400047 L 158.52659706148285,6.007729962975344 L 152.57280449908347,11.087331731216405 L 151.85187690352643,8.175242549552433 A 256.11281750223077 256.11281750223077 0 0 1 102.8879557957396,15.37101139544393"/><text text-anchor="middle" pointer-events="none" font-size="8px" fill="#000000" x="87.86262656258496" y="18.16859716296861" font-family="Helvetica Neue, Helvetica, Arial, sans-serif">Assign</text></g><g class="relationship" transform="translate(-157.64448483918846 -7.749786769239025) rotate(385.1599790398212)"><path class="b-outline" fill="#A5ABB6" stroke="none" d="M 24.018736134675446,-6.953439040707552 L 24.277555179777966,-5.987513214418485 A 183.16802504310434 183.16802504310434 0 0 1 54.57408777480407,-11.427847149679081 L 54.48067168465451,-12.42347430584806 A 184.16802504310434 184.16802504310434 0 0 0 24.018736134675446,-6.953439040707552 Z M 84.538512349599,-12.779721603634215 L 84.46871964898313,-11.782160087265055 A 183.16802504310434 183.16802504310434 0 0 1 114.88568205684409,-7.061406070436748 L 114.17812264195283,-4.146039940016978 L 121.80612959697208,-5.896328457427115 L 115.82909461003243,-10.948560910996441 L 115.12153519514116,-8.033194780576672 A 184.16802504310434 184.16802504310434 0 0 0 84.538512349599,-12.779721603634215"/><text text-anchor="middle" pointer-events="none" font-size="8px" fill="#000000" x="69.50823714096599" y="-9.715913633805286" font-family="Helvetica Neue, Helvetica, Arial, sans-serif">Assign</text></g><g class="relationship" transform="translate(-157.64448483918846 -7.749786769239025) rotate(325.1435096631576)"><path class="b-outline" fill="#A5ABB6" stroke="none" d="M 21.40063509461097,12.933012701892217 L 21.90063509461097,12.06698729810778 A 170.1656263589444 170.1656263589444 0 0 0 95.99942393079957,34.509984339998965 L 95.93487491124544,35.50789887745924 A 171.1656263589444 171.1656263589444 0 0 1 21.40063509461097,12.933012701892217 Z M 112.63904174141904,35.77139781417276 L 112.60600009872685,34.77194383831986 A 170.1656263589444 170.1656263589444 0 0 0 187.37579708764355,14.677265899905304 L 185.95848942333333,12.033170783483145 L 193.78157030334697,11.810897202585151 L 189.26554064005717,18.20272605513485 L 187.84823297574695,15.558630938712689 A 171.1656263589444 171.1656263589444 0 0 1 112.63904174141904,35.77139781417276"/><text text-anchor="middle" pointer-events="none" font-size="8px" fill="#000000" x="104.29162787128197" y="38.34362871539844" font-family="Helvetica Neue, Helvetica, Arial, sans-serif">DF</text></g><g class="relationship" transform="translate(-157.64448483918846 -7.749786769239025) rotate(325.1435096631576)"><path class="b-outline" fill="#A5ABB6" stroke="none" d="M 25 0.5 L 96.0758168867658 0.5 L 96.0758168867658 -0.5 L 25 -0.5 Z M 112.7398793867658 0.5 L 183.8156962735316 0.5 L 183.8156962735316 3.5 L 190.8156962735316 0 L 183.8156962735316 -3.5 L 183.8156962735316 -0.5 L 112.7398793867658 -0.5 Z"/><text text-anchor="middle" pointer-events="none" font-size="8px" fill="#000000" x="104.4078481367658" y="3" font-family="Helvetica Neue, Helvetica, Arial, sans-serif">DF</text></g><g class="relationship" transform="translate(-157.64448483918846 -7.749786769239025) rotate(310.2967237901586)"><path class="b-outline" fill="#A5ABB6" stroke="none" d="M 24.018736134675446,-6.953439040707552 L 24.277555179777966,-5.987513214418485 A 118.0162729058138 118.0162729058138 0 0 1 44.75512555575319,-9.578644978780417 L 44.66982131392121,-10.574999928748284 A 119.0162729058138 119.0162729058138 0 0 0 24.018736134675446,-6.953439040707552 Z M 61.38849765455805,-10.827557979324354 L 61.33332802729258,-9.829080982980727 A 118.0162729058138 118.0162729058138 0 0 1 81.9100274865305,-6.858129078922873 L 81.22145431149906,-3.938220350447424 L 88.83791004881179,-5.7381097919287365 L 82.82812505323909,-10.751340716890137 L 82.13955187820766,-7.831431988414688 A 119.0162729058138 119.0162729058138 0 0 0 61.38849765455805,-10.827557979324354"/><text text-anchor="middle" pointer-events="none" font-size="8px" fill="#000000" x="53.03227107721942" y="-7.495299711583812" font-family="Helvetica Neue, Helvetica, Arial, sans-serif">DF</text></g><g class="relationship" transform="translate(-157.64448483918846 -7.749786769239025) rotate(310.2967237901586)"><path class="b-outline" fill="#A5ABB6" stroke="none" d="M 24.018736134675446,6.953439040707552 L 24.277555179777966,5.987513214418485 A 118.0162729058138 118.0162729058138 0 0 0 44.755125555753224,9.578644978780417 L 44.66982131392125,10.574999928748284 A 119.0162729058138 119.0162729058138 0 0 1 24.018736134675446,6.953439040707552 Z M 61.388497654558115,10.82755797932434 L 61.33332802729265,9.829080982980713 A 118.0162729058138 118.0162729058138 0 0 0 81.9100274865305,6.858129078922873 L 81.22145431149906,3.938220350447424 L 88.83791004881179,5.7381097919287365 L 82.82812505323909,10.751340716890137 L 82.13955187820766,7.831431988414688 A 119.0162729058138 119.0162729058138 0 0 1 61.388497654558115,10.82755797932434"/><text text-anchor="middle" pointer-events="none" font-size="8px" fill="#000000" x="53.03227107721948" y="13.495299711583812" font-family="Helvetica Neue, Helvetica, Arial, sans-serif">DF</text></g><g class="relationship" transform="translate(-157.64448483918846 -7.749786769239025) rotate(325.1435096631576)"><path class="b-outline" fill="#A5ABB6" stroke="none" d="M 21.40063509461097,-12.933012701892217 L 21.90063509461097,-12.06698729810778 A 170.1656263589444 170.1656263589444 0 0 1 95.99942393079964,-34.509984339998965 L 95.93487491124552,-35.50789887745927 A 171.1656263589444 171.1656263589444 0 0 0 21.40063509461097,-12.933012701892217 Z M 112.63904174141905,-35.77139781417276 L 112.60600009872687,-34.77194383831986 A 170.1656263589444 170.1656263589444 0 0 1 187.37579708764355,-14.677265899905304 L 185.95848942333333,-12.033170783483145 L 193.78157030334697,-11.810897202585151 L 189.26554064005717,-18.20272605513485 L 187.84823297574695,-15.558630938712689 A 171.1656263589444 171.1656263589444 0 0 0 112.63904174141905,-35.77139781417276"/><text text-anchor="middle" pointer-events="none" font-size="8px" fill="#000000" x="104.29162787128202" y="-32.34362871539844" font-family="Helvetica Neue, Helvetica, Arial, sans-serif">DF</text></g><g class="relationship" transform="translate(-157.64448483918846 -7.749786769239025) rotate(429.61445453319885)"><path class="b-outline" fill="#A5ABB6" stroke="none" d="M 6.953439040707552 24.018736134675446 L 17.306200844808384 62.65576918623819 A 17.916697508022974 17.916697508022974 0 1 1 -17.306200844808384 62.65576918623819 L -8.765172356425198 30.780216918698923 L -4.901469051268926 31.815493099109005 L -6.4704761275630185 24.148145657226706 L -11.662949835292403 30.00375978339136 L -7.79924653013613 31.039035963801442 L -16.340275018519314 62.91458823134071 A 16.916697508022974 16.916697508022974 0 1 0 16.340275018519314 62.91458823134071 L 5.987513214418485 24.277555179777966 Z"/><text text-anchor="middle" pointer-events="none" font-size="8px" fill="#000000" x="0" y="94.20964923467838" font-family="Helvetica Neue, Helvetica, Arial, sans-serif">DF</text></g><g class="relationship" transform="translate(-25.405066784282436 54.36457476676305) rotate(371.60164523708914)"><path class="b-outline" fill="#A5ABB6" stroke="none" d="M 24.018736134675446,6.953439040707552 L 24.277555179777966,5.987513214418485 A 269.6641149491393 269.6641149491393 0 0 0 83.27813934957564,14.959994739919807 L 83.23811316899989,15.959193371258209 A 270.6641149491393 270.6641149491393 0 0 1 24.018736134675446,6.953439040707552 Z M 99.92966404488318,16.112697321099972 L 99.90802135266055,15.112931551595238 A 269.6641149491393 269.6641149491393 0 0 0 159.06364333825894,7.227074299538668 L 158.34061187994436,4.315506764638008 L 165.97780616274625,6.025262152621438 L 160.0276852826784,11.10916434607288 L 159.3046538243638,8.19759681117222 A 270.6641149491393 270.6641149491393 0 0 1 99.92966404488318,16.112697321099972"/><text text-anchor="middle" pointer-events="none" font-size="8px" fill="#000000" x="91.58730303215323" y="18.664671172506644" font-family="Helvetica Neue, Helvetica, Arial, sans-serif">DF</text></g><g class="relationship" transform="translate(-25.405066784282436 54.36457476676305) rotate(283.59677227156686)"><path class="b-outline" fill="#A5ABB6" stroke="none" d="M 25 0.5 L 83.57068857264935 0.5 L 83.57068857264935 -0.5 L 25 -0.5 Z M 100.23475107264935 0.5 L 158.8054396452987 0.5 L 158.8054396452987 3.5 L 165.8054396452987 0 L 158.8054396452987 -3.5 L 158.8054396452987 -0.5 L 100.23475107264935 -0.5 Z"/><text text-anchor="middle" pointer-events="none" font-size="8px" fill="#000000" x="91.90271982264935" y="3" font-family="Helvetica Neue, Helvetica, Arial, sans-serif">DF</text></g><g class="relationship" transform="translate(-25.405066784282436 54.36457476676305) rotate(400.80817040569195)"><path class="b-outline" fill="#A5ABB6" stroke="none" d="M 24.018736134675446,-6.953439040707552 L 24.277555179777966,-5.987513214418485 A 290.189915963738 290.189915963738 0 0 1 88.53561894683708,-15.672638773016104 L 88.4982344183464,-16.67193972719832 A 291.189915963738 291.189915963738 0 0 0 24.018736134675446,-6.953439040707552 Z M 105.18803822042044,-16.817650249785117 L 105.1681068774228,-15.817848898732677 A 290.189915963738 290.189915963738 0 0 1 169.58547496611365,-7.2561256666171 L 168.8597304900686,-4.345233199436271 L 176.49851480220977,-6.047870633708781 L 170.55313426750706,-11.137315622858203 L 169.82738979146202,-8.226423155677375 A 291.189915963738 291.189915963738 0 0 0 105.18803822042044,-16.817650249785117"/><text text-anchor="middle" pointer-events="none" font-size="8px" fill="#000000" x="96.84645721379896" y="-13.364416994790133" font-family="Helvetica Neue, Helvetica, Arial, sans-serif">DF</text></g><g class="relationship" transform="translate(-25.405066784282436 54.36457476676305) rotate(391.6598066926795)"><path class="b-outline" fill="#A5ABB6" stroke="none" d="M 21.40063509461097,12.933012701892217 L 21.90063509461097,12.06698729810778 A 56.12985171729104 56.12985171729104 0 0 0 39.97267373738129,18.69027428409256 L 39.79464213904025,19.674299055118233 A 57.12985171729104 57.12985171729104 0 0 1 21.40063509461097,12.933012701892217 Z M 56.5367501882976,20.207787587218874 L 56.42172819826061,19.214424641560072 A 56.12985171729104 56.12985171729104 0 0 0 74.87877889989316,13.755139834750295 L 73.54722979450177,11.066836098203511 L 81.37341246940089,11.096242544928195 L 76.65417770708167,17.339544816812676 L 75.32262860169028,14.65124108026589 A 57.12985171729104 57.12985171729104 0 0 1 56.5367501882976,20.207787587218874"/><text text-anchor="middle" pointer-events="none" font-size="8px" fill="#000000" x="48.16196190896543" y="23.0582328987647" font-family="Helvetica Neue, Helvetica, Arial, sans-serif">DF</text></g><g class="relationship" transform="translate(-25.405066784282436 54.36457476676305) rotate(391.6598066926795)"><path class="b-outline" fill="#A5ABB6" stroke="none" d="M 25 0.5 L 40.055940553645364 0.5 L 40.055940553645364 -0.5 L 25 -0.5 Z M 56.720003053645364 0.5 L 71.77594360729073 0.5 L 71.77594360729073 3.5 L 78.77594360729073 0 L 71.77594360729073 -3.5 L 71.77594360729073 -0.5 L 56.720003053645364 -0.5 Z"/><text text-anchor="middle" pointer-events="none" font-size="8px" fill="#000000" x="48.387971803645364" y="3" font-family="Helvetica Neue, Helvetica, Arial, sans-serif">DF</text></g><g class="relationship" transform="translate(-25.405066784282436 54.36457476676305) rotate(283.59677227156686)"><path class="b-outline" fill="#A5ABB6" stroke="none" d="M 21.40063509461097,-12.933012701892217 L 21.90063509461097,-12.06698729810778 A 144.91303410510506 144.91303410510506 0 0 1 83.48793066652571,-31.07345390654818 L 83.41292553294501,-32.070637054187856 A 145.91303410510506 145.91303410510506 0 0 0 21.40063509461097,-12.933012701892217 Z M 100.12249820580637,-32.367707263631516 L 100.08298599845627,-31.368488175808253 A 144.91303410510506 144.91303410510506 0 0 1 162.30695898187423,-14.563193326891765 L 160.90025721924133,-11.913440479736863 L 168.72416591900782,-11.722514688607491 L 164.18256133205142,-18.0961971230983 L 162.77585956941851,-15.446444275943398 A 145.91303410510506 145.91303410510506 0 0 0 100.12249820580637,-32.367707263631516"/><text text-anchor="middle" pointer-events="none" font-size="8px" fill="#000000" x="91.77234306094546" y="-28.95867740165393" font-family="Helvetica Neue, Helvetica, Arial, sans-serif">DF</text></g><g class="relationship" transform="translate(-25.405066784282436 54.36457476676305) rotate(371.60164523708914)"><path class="b-outline" fill="#A5ABB6" stroke="none" d="M 24.018736134675446,-6.953439040707552 L 24.277555179777966,-5.987513214418485 A 269.6641149491393 269.6641149491393 0 0 1 83.27813934957558,-14.959994739919807 L 83.23811316899982,-15.959193371258209 A 270.6641149491393 270.6641149491393 0 0 0 24.018736134675446,-6.953439040707552 Z M 99.92966404488311,-16.112697321099972 L 99.90802135266048,-15.112931551595238 A 269.6641149491393 269.6641149491393 0 0 1 159.06364333825894,-7.227074299538668 L 158.34061187994436,-4.315506764638008 L 165.97780616274625,-6.025262152621438 L 160.0276852826784,-11.10916434607288 L 159.3046538243638,-8.19759681117222 A 270.6641149491393 270.6641149491393 0 0 0 99.92966404488311,-16.112697321099972"/><text text-anchor="middle" pointer-events="none" font-size="8px" fill="#000000" x="91.58730303215316" y="-12.664671172506644" font-family="Helvetica Neue, Helvetica, Arial, sans-serif">DF</text></g><g class="relationship" transform="translate(-25.405066784282436 54.36457476676305) rotate(248.30688666201308)"><path class="b-outline" fill="#A5ABB6" stroke="none" d="M 24.018736134675446,6.953439040707552 L 24.277555179777966,5.987513214418485 A 209.9744007757831 209.9744007757831 0 0 0 68.03055854994695,12.874875819993946 L 67.98011254083603,13.873602609543894 A 210.9744007757831 210.9744007757831 0 0 1 24.018736134675446,6.953439040707552 Z M 84.67841104431248,14.05529593467756 L 84.64970859540159,13.055707934836363 A 209.9744007757831 209.9744007757831 0 0 0 128.54221724661622,7.1220116269914655 L 127.82899761635213,4.208025052038527 L 135.46038919321708,5.943496918867407 L 129.493176753635,11.00732706026205 L 128.7799571233709,8.093340485309112 A 210.9744007757831 210.9744007757831 0 0 1 84.67841104431248,14.05529593467756"/><text text-anchor="middle" pointer-events="none" font-size="8px" fill="#000000" x="76.3329035405498" y="16.62975896510443" transform="rotate(180 76.3329035405498 13.629758965104429)" font-family="Helvetica Neue, Helvetica, Arial, sans-serif">DF</text></g><g class="relationship" transform="translate(-25.405066784282436 54.36457476676305) rotate(248.30688666201308)"><path class="b-outline" fill="#A5ABB6" stroke="none" d="M 24.018736134675446,-6.953439040707552 L 24.277555179777966,-5.987513214418485 A 209.9744007757831 209.9744007757831 0 0 1 68.03055854994689,-12.874875819993918 L 67.98011254083599,-13.873602609543866 A 210.9744007757831 210.9744007757831 0 0 0 24.018736134675446,-6.953439040707552 Z M 84.67841104431237,-14.05529593467756 L 84.64970859540148,-13.055707934836363 A 209.9744007757831 209.9744007757831 0 0 1 128.54221724661622,-7.1220116269914655 L 127.82899761635213,-4.208025052038527 L 135.46038919321708,-5.943496918867407 L 129.493176753635,-11.00732706026205 L 128.7799571233709,-8.093340485309112 A 210.9744007757831 210.9744007757831 0 0 0 84.67841104431237,-14.05529593467756"/><text text-anchor="middle" pointer-events="none" font-size="8px" fill="#000000" x="76.33290354054972" y="-10.629758965104429" transform="rotate(180 76.33290354054972 -13.629758965104429)" font-family="Helvetica Neue, Helvetica, Arial, sans-serif">DF</text></g><g class="relationship" transform="translate(-25.405066784282436 54.36457476676305) rotate(205.15997903982122)"><path class="b-outline" fill="#A5ABB6" stroke="none" d="M 24.018736134675446,-6.953439040707552 L 24.277555179777966,-5.987513214418485 A 183.16802504310434 183.16802504310434 0 0 1 61.210480191200986,-11.929076845608137 L 61.15329527412234,-12.927440449341105 A 184.16802504310434 184.16802504310434 0 0 0 24.018736134675446,-6.953439040707552 Z M 77.85581872607585,-13.125399740971375 L 77.82231187704555,-12.12596125308528 A 183.16802504310434 183.16802504310434 0 0 1 114.88568205684409,-7.061406070436748 L 114.17812264195283,-4.146039940016978 L 121.80612959697208,-5.896328457427115 L 115.82909461003243,-10.948560910996441 L 115.12153519514116,-8.033194780576672 A 184.16802504310434 184.16802504310434 0 0 0 77.85581872607585,-13.125399740971375"/><text text-anchor="middle" pointer-events="none" font-size="8px" fill="#000000" x="69.50823714096599" y="-9.715913633805286" transform="rotate(180 69.50823714096599 -12.715913633805286)" font-family="Helvetica Neue, Helvetica, Arial, sans-serif">DF</text></g><g class="relationship" transform="translate(-25.405066784282436 54.36457476676305) rotate(391.6598066926795)"><path class="b-outline" fill="#A5ABB6" stroke="none" d="M 21.40063509461097,-12.933012701892217 L 21.90063509461097,-12.06698729810778 A 56.12985171729104 56.12985171729104 0 0 1 39.97267373738129,-18.69027428409256 L 39.79464213904025,-19.674299055118233 A 57.12985171729104 57.12985171729104 0 0 0 21.40063509461097,-12.933012701892217 Z M 56.53675018829758,-20.207787587218874 L 56.42172819826059,-19.214424641560072 A 56.12985171729104 56.12985171729104 0 0 1 74.87877889989316,-13.755139834750295 L 73.54722979450177,-11.066836098203511 L 81.37341246940089,-11.096242544928195 L 76.65417770708167,-17.339544816812676 L 75.32262860169028,-14.65124108026589 A 57.12985171729104 57.12985171729104 0 0 0 56.53675018829758,-20.207787587218874"/><text text-anchor="middle" pointer-events="none" font-size="8px" fill="#000000" x="48.161961908965424" y="-17.0582328987647" font-family="Helvetica Neue, Helvetica, Arial, sans-serif">DF</text></g><g class="relationship" transform="translate(-25.405066784282436 54.36457476676305) rotate(283.59677227156686)"><path class="b-outline" fill="#A5ABB6" stroke="none" d="M 12.066987298107785,-21.900635094610966 L 12.933012701892222,-21.400635094610966 A 94.02049765452188 94.02049765452188 0 0 1 83.16339570339309,-67.74216073297816 L 83.04433914952436,-68.73504820745899 A 95.02049765452188 95.02049765452188 0 0 0 12.066987298107785,-21.900635094610966 Z M 99.76672831318835,-69.25677367731188 L 99.70979768980125,-68.25839554047155 A 94.02049765452188 94.02049765452188 0 0 1 172.6924171604261,-26.385003628244945 L 170.19290055604355,-24.725962717231614 L 176.9800987201876,-20.82930503652122 L 176.02510596626948,-28.597058176262717 L 173.52558936188694,-26.938017265249385 A 95.02049765452188 95.02049765452188 0 0 0 99.76672831318835,-69.25677367731188"/><text text-anchor="middle" pointer-events="none" font-size="8px" fill="#000000" x="91.40962070961882" y="-65.86491476727512" font-family="Helvetica Neue, Helvetica, Arial, sans-serif">DF</text></g><g class="relationship" transform="translate(-25.405066784282436 54.36457476676305) rotate(343.2824980672285)"><path class="b-outline" fill="#A5ABB6" stroke="none" d="M 24.018736134675446,6.953439040707552 L 24.277555179777966,5.987513214418485 A 307.928417149069 307.928417149069 0 0 0 93.08361938515212,16.28723567826438 L 93.04824858442538,17.28660993571549 A 308.928417149069 308.928417149069 0 0 1 24.018736134675446,6.953439040707552 Z M 109.73671178191135,17.426190605376235 L 109.71806209675499,16.426364525878625 A 307.928417149069 307.928417149069 0 0 0 178.68678002446742,7.2789768291662735 L 177.95890157807446,4.368617235013593 L 185.5989321518892,6.065653719941459 L 179.65728461965807,11.159456288036514 L 178.9294061732651,8.249096693883834 A 308.928417149069 308.928417149069 0 0 1 109.73671178191135,17.426190605376235"/><text text-anchor="middle" pointer-events="none" font-size="8px" fill="#000000" x="101.39571925596795" y="19.969132124167857" font-family="Helvetica Neue, Helvetica, Arial, sans-serif">DF</text></g><g class="relationship" transform="translate(-25.405066784282436 54.36457476676305) rotate(343.2824980672285)"><path class="b-outline" fill="#A5ABB6" stroke="none" d="M 24.018736134675446,-6.953439040707552 L 24.277555179777966,-5.987513214418485 A 307.928417149069 307.928417149069 0 0 1 93.08361938515216,-16.28723567826438 L 93.04824858442542,-17.28660993571549 A 308.928417149069 308.928417149069 0 0 0 24.018736134675446,-6.953439040707552 Z M 109.73671178191138,-17.426190605376178 L 109.71806209675503,-16.42636452587857 A 307.928417149069 307.928417149069 0 0 1 178.68678002446742,-7.2789768291662735 L 177.95890157807446,-4.368617235013593 L 185.5989321518892,-6.065653719941459 L 179.65728461965807,-11.159456288036514 L 178.9294061732651,-8.249096693883834 A 308.928417149069 308.928417149069 0 0 0 109.73671178191138,-17.426190605376178"/><text text-anchor="middle" pointer-events="none" font-size="8px" fill="#000000" x="101.39571925596798" y="-13.969132124167857" font-family="Helvetica Neue, Helvetica, Arial, sans-serif">DF</text></g><g class="relationship" transform="translate(-25.405066784282436 54.36457476676305) rotate(205.15997903982122)"><path class="b-outline" fill="#A5ABB6" stroke="none" d="M 17.324116139070416,-18.03122292025696 L 18.031222920256962,-17.324116139070412 A 75.87779812330363 75.87779812330363 0 0 1 60.957963373982835,-38.78613770547079 L 60.81659178168472,-39.77609430698982 A 76.87779812330363 76.87779812330363 0 0 0 17.324116139070416,-18.03122292025696 Z M 77.5475150705642,-40.32434666767007 L 77.47125655771745,-39.3272585877 A 75.87779812330363 75.87779812330363 0 0 1 121.71096774270403,-20.7215774669467 L 119.73307537634959,-18.465930821942916 L 127.3037919754386,-16.482436386286974 L 124.34815756450995,-23.729106326951747 L 122.37026519815551,-21.47345968194796 A 76.87779812330363 76.87779812330363 0 0 0 77.5475150705642,-40.32434666767007"/><text text-anchor="middle" pointer-events="none" font-size="8px" fill="#000000" x="69.18346202127488" y="-37.00723463063905" transform="rotate(180 69.18346202127488 -40.00723463063905)" font-family="Helvetica Neue, Helvetica, Arial, sans-serif">DF</text></g><g class="relationship" transform="translate(-25.405066784282436 54.36457476676305) rotate(258.67731933168415)"><path class="b-outline" fill="#A5ABB6" stroke="none" d="M 24.018736134675446,-6.953439040707552 L 24.277555179777966,-5.987513214418485 A 390.38810174164524 390.38810174164524 0 0 1 114.26654230029217,-19.13322266721792 L 114.2382348581792,-20.132821931283786 A 391.38810174164524 391.38810174164524 0 0 0 24.018736134675446,-6.953439040707552 Z M 130.9219412680039,-20.249536053732584 L 130.90762169530578,-19.24963858406994 A 390.38810174164524 390.38810174164524 0 0 1 221.07171891828938,-7.364225172755393 L 220.33587972955004,-4.455868129970679 L 227.9805252162436,-6.1319932394944106 L 222.05283783660846,-11.242034563135011 L 221.31699864786913,-8.333677520350298 A 391.38810174164524 391.38810174164524 0 0 0 130.9219412680039,-20.249536053732584"/><text text-anchor="middle" pointer-events="none" font-size="8px" fill="#000000" x="122.58296384233721" y="-16.780100576055418" transform="rotate(180 122.58296384233721 -19.780100576055418)" font-family="Helvetica Neue, Helvetica, Arial, sans-serif">DF</text></g><g class="relationship" transform="translate(-25.405066784282436 54.36457476676305) rotate(391.6598066926795)"><path class="b-outline" fill="#A5ABB6" stroke="none" d="M 12.066987298107785,-21.900635094610966 L 12.933012701892222,-21.400635094610966 A 42.761503403405946 42.761503403405946 0 0 1 39.42568574865802,-41.4620986328175 L 39.17920528455537,-42.43124639287049 A 43.761503403405946 43.761503403405946 0 0 0 12.066987298107785,-21.900635094610966 Z M 55.90516052193776,-43.37643234563289 L 55.76943393334393,-42.38568601425 A 42.761503403405946 42.761503403405946 0 0 1 84.35357688490133,-25.436620665902595 L 81.941031965194,-23.65346980004902 L 88.91635305851091,-20.104540997561095 L 87.57030344451111,-27.814155153707365 L 85.15775852480378,-26.03100428785379 A 43.761503403405946 43.761503403405946 0 0 0 55.90516052193776,-43.37643234563289"/><text text-anchor="middle" pointer-events="none" font-size="8px" fill="#000000" x="47.52474179156912" y="-40.212476259542456" font-family="Helvetica Neue, Helvetica, Arial, sans-serif">DF</text></g><g class="relationship" transform="translate(-25.405066784282436 54.36457476676305) rotate(371.60164523708914)"><path class="b-outline" fill="#A5ABB6" stroke="none" d="M 17.324116139070416,-18.03122292025696 L 18.031222920256962,-17.324116139070412 A 107.53756435693491 107.53756435693491 0 0 1 83.07115964925707,-48.25700387757948 L 82.96886419254056,-49.251757937402886 A 108.53756435693491 108.53756435693491 0 0 0 17.324116139070416,-18.03122292025696 Z M 99.68808303704637,-49.675732781402374 L 99.63633764215943,-48.67707247173347 A 107.53756435693491 107.53756435693491 0 0 1 166.1604966427374,-21.08045704843597 L 164.14942079688322,-18.854345204385467 L 171.68993691983093,-16.75896538211799 L 168.8419311038763,-24.04860617383664 L 166.83085525802213,-21.822494329786135 A 108.53756435693491 108.53756435693491 0 0 0 99.68808303704637,-49.675732781402374"/><text text-anchor="middle" pointer-events="none" font-size="8px" fill="#000000" x="91.33297034596387" y="-46.28641919586509" font-family="Helvetica Neue, Helvetica, Arial, sans-serif">DF</text></g><g class="relationship" transform="translate(-25.405066784282436 54.36457476676305) rotate(343.2824980672285)"><path class="b-outline" fill="#A5ABB6" stroke="none" d="M 17.324116139070416,-18.03122292025696 L 18.031222920256962,-17.324116139070412 A 121.5432710201942 121.5432710201942 0 0 1 92.89254691922577,-52.41697921552294 L 92.80136336744228,-53.4128133181144 A 122.5432710201942 122.5432710201942 0 0 0 17.324116139070416,-18.03122292025696 Z M 109.51626475627197,-53.79798042798659 L 109.47104831440689,-52.79900321434003 A 121.5432710201942 121.5432710201942 0 0 1 185.86936749804602,-21.191667108682317 L 183.84801149673658,-18.974885676973184 L 191.3787501722522,-16.8446333442452 L 188.56450883312525,-24.1473756842945 L 186.5431528318158,-21.930594252585365 A 122.5432710201942 122.5432710201942 0 0 0 109.51626475627197,-53.79798042798659"/><text text-anchor="middle" pointer-events="none" font-size="8px" fill="#000000" x="101.16375617028442" y="-50.390926704394204" font-family="Helvetica Neue, Helvetica, Arial, sans-serif">DF</text></g></g><g class="layer nodes"><g class="node" aria-label="graph-node2560" transform="translate(23.584331133776086,-31.6195421674176)" style="touch-action: none; -webkit-tap-highlight-color: rgba(0, 0, 0, 0);"><circle class="b-outline" cx="0" cy="0" r="25" fill="#C990C0" stroke="#b261a5" stroke-width="2px"/><text class="caption" text-anchor="middle" pointer-events="none" x="0" y="5" font-size="10px" fill="#FFFFFF" font-family="Helvetica Neue, Helvetica, Arial, sans-serif"> Hospital…</text></g><g class="node" aria-label="graph-node2378" transform="translate(62.92689122063756,108.83393924442731)" style="touch-action: none; -webkit-tap-highlight-color: rgba(0, 0, 0, 0);"><circle class="b-outline" cx="0" cy="0" r="25" fill="#F79767" stroke="#f36924" stroke-width="2px"/><text class="caption" text-anchor="middle" pointer-events="none" x="0" y="5" font-size="10px" fill="#FFFFFF" font-family="Helvetica Neue, Helvetica, Arial, sans-serif"> 1112065</text></g><g class="node" aria-label="graph-node2383" transform="translate(19.450879876498608,-131.09339849780406)" style="touch-action: none; -webkit-tap-highlight-color: rgba(0, 0, 0, 0);"><circle class="b-outline" cx="0" cy="0" r="25" fill="#F79767" stroke="#f36924" stroke-width="2px"/><text class="caption" text-anchor="middle" pointer-events="none" x="0" y="5" font-size="10px" fill="#FFFFFF" font-family="Helvetica Neue, Helvetica, Arial, sans-serif"> 1112072</text></g><g class="node" aria-label="graph-node2391" transform="translate(160.94908139384188,92.62316435159737)" style="touch-action: none; -webkit-tap-highlight-color: rgba(0, 0, 0, 0);"><circle class="b-outline" cx="0" cy="0" r="25" fill="#F79767" stroke="#f36924" stroke-width="2px"/><text class="caption" text-anchor="middle" pointer-events="none" x="0" y="5" font-size="10px" fill="#FFFFFF" font-family="Helvetica Neue, Helvetica, Arial, sans-serif"> 1112064</text></g><g class="node" aria-label="graph-node2401" transform="translate(-84.45190870055663,-94.06551518666696)" style="touch-action: none; -webkit-tap-highlight-color: rgba(0, 0, 0, 0);"><circle class="b-outline" cx="0" cy="0" r="25" fill="#F79767" stroke="#f36924" stroke-width="2px"/><text class="caption" text-anchor="middle" pointer-events="none" x="0" y="5" font-size="10px" fill="#FFFFFF" font-family="Helvetica Neue, Helvetica, Arial, sans-serif"> 1112072</text></g><g class="node" aria-label="graph-node2392" transform="translate(175.5774012146383,-5.999980772724947)" style="touch-action: none; -webkit-tap-highlight-color: rgba(0, 0, 0, 0);"><circle class="b-outline" cx="0" cy="0" r="25" fill="#F79767" stroke="#f36924" stroke-width="2px"/><text class="caption" text-anchor="middle" pointer-events="none" x="0" y="5" font-size="10px" fill="#FFFFFF" font-family="Helvetica Neue, Helvetica, Arial, sans-serif"> 1112064</text></g><g class="node" aria-label="graph-node2382" transform="translate(-74.9238842055524,-192.94336693108121)" style="touch-action: none; -webkit-tap-highlight-color: rgba(0, 0, 0, 0);"><circle class="b-outline" cx="0" cy="0" r="25" fill="#F79767" stroke="#f36924" stroke-width="2px"/><text class="caption" text-anchor="middle" pointer-events="none" x="0" y="5" font-size="10px" fill="#FFFFFF" font-family="Helvetica Neue, Helvetica, Arial, sans-serif"> 1112071</text></g><g class="node" aria-label="graph-node2381" transform="translate(-183.29786229524692,-106.10889441309897)" style="touch-action: none; -webkit-tap-highlight-color: rgba(0, 0, 0, 0);"><circle class="b-outline" cx="0" cy="0" r="25" fill="#F79767" stroke="#f36924" stroke-width="2px"/><text class="caption" text-anchor="middle" pointer-events="none" x="0" y="5" font-size="10px" fill="#FFFFFF" font-family="Helvetica Neue, Helvetica, Arial, sans-serif"> 1112071</text></g><g class="node" aria-label="graph-node2377" transform="translate(-52.37827430748154,171.16267667633662)" style="touch-action: none; -webkit-tap-highlight-color: rgba(0, 0, 0, 0);"><circle class="b-outline" cx="0" cy="0" r="25" fill="#F79767" stroke="#f36924" stroke-width="2px"/><text class="caption" text-anchor="middle" pointer-events="none" x="0" y="5" font-size="10px" fill="#FFFFFF" font-family="Helvetica Neue, Helvetica, Arial, sans-serif"> 1112064</text></g><g class="node" aria-label="graph-node2400" transform="translate(-157.64448483918846,-7.749786769239025)" style="touch-action: none; -webkit-tap-highlight-color: rgba(0, 0, 0, 0);"><circle class="b-outline" cx="0" cy="0" r="25" fill="#F79767" stroke="#f36924" stroke-width="2px"/><text class="caption" text-anchor="middle" pointer-events="none" x="0" y="5" font-size="10px" fill="#FFFFFF" font-family="Helvetica Neue, Helvetica, Arial, sans-serif"> 1112071</text></g><g class="node" aria-label="graph-node2561" transform="translate(-25.405066784282436,54.36457476676305)" style="touch-action: none; -webkit-tap-highlight-color: rgba(0, 0, 0, 0);"><circle class="b-outline" cx="0" cy="0" r="25" fill="#C990C0" stroke="#b261a5" stroke-width="2px"/><text class="caption" text-anchor="middle" pointer-events="none" x="0" y="5" font-size="10px" fill="#FFFFFF" font-family="Helvetica Neue, Helvetica, Arial, sans-serif"> Hospital…</text></g><g class="node" aria-label="graph-node2393" transform="translate(126.54748869242704,185.56432003730055)" style="touch-action: none; -webkit-tap-highlight-color: rgba(0, 0, 0, 0);"><circle class="b-outline" cx="0" cy="0" r="25" fill="#F79767" stroke="#f36924" stroke-width="2px"/><text class="caption" text-anchor="middle" pointer-events="none" x="0" y="5" font-size="10px" fill="#FFFFFF" font-family="Helvetica Neue, Helvetica, Arial, sans-serif"> 1112065</text></g></g></svg>