<svg xmlns="http://www.w3.org/2000/svg" width="578.3280029296875" height="990.2354736328125" viewBox="-217.26776123046875 -532.7659912109375 578.3280029296875 990.2354736328125"><title>Neo4j Graph Visualization</title><desc>Created using Neo4j (http://www.neo4j.com/)</desc><g class="layer relationships"><g class="relationship" transform="translate(-105.09206781823455 332.77452371714065) rotate(267.5625661683725)"><path class="b-outline" fill="#A5ABB6" stroke="none" d="M 25 0.5 L 37.971519555136105 0.5 L 37.971519555136105 -0.5 L 25 -0.5 Z M 59.534019555136105 0.5 L 72.50553911027221 0.5 L 72.50553911027221 3.5 L 79.50553911027221 0 L 72.50553911027221 -3.5 L 72.50553911027221 -0.5 L 59.534019555136105 -0.5 Z"/><text text-anchor="middle" pointer-events="none" font-size="8px" fill="#000000" x="48.752769555136105" y="3" transform="rotate(180 48.752769555136105 0)" font-family="Helvetica Neue, Helvetica, Arial, sans-serif">REL</text></g><g class="relationship" transform="translate(-105.09206781823455 332.77452371714065) rotate(367.7061686629483)"><path class="b-outline" fill="#A5ABB6" stroke="none" d="M 25 0.5 L 91.77035305903881 0.5 L 91.77035305903881 -0.5 L 25 -0.5 Z M 113.33285305903881 0.5 L 180.10320611807762 0.5 L 180.10320611807762 3.5 L 187.10320611807762 0 L 180.10320611807762 -3.5 L 180.10320611807762 -0.5 L 113.33285305903881 -0.5 Z"/><text text-anchor="middle" pointer-events="none" font-size="8px" fill="#000000" x="102.55160305903881" y="3" font-family="Helvetica Neue, Helvetica, Arial, sans-serif">REL</text></g><g class="relationship" transform="translate(-66.52113944535854 423.00515677780595) rotate(340.1990302558677)"><path class="b-outline" fill="#A5ABB6" stroke="none" d="M 25 0.5 L 76.9193441841319 0.5 L 76.9193441841319 -0.5 L 25 -0.5 Z M 98.4818441841319 0.5 L 150.4011883682638 0.5 L 150.4011883682638 3.5 L 157.4011883682638 0 L 150.4011883682638 -3.5 L 150.4011883682638 -0.5 L 98.4818441841319 -0.5 Z"/><text text-anchor="middle" pointer-events="none" font-size="8px" fill="#000000" x="87.7005941841319" y="3" font-family="Helvetica Neue, Helvetica, Arial, sans-serif">REL</text></g><g class="relationship" transform="translate(-66.52113944535854 423.00515677780595) rotate(257.53805875082844)"><path class="b-outline" fill="#A5ABB6" stroke="none" d="M 25 0.5 L 85.3878074567104 0.5 L 85.3878074567104 -0.5 L 25 -0.5 Z M 106.9503074567104 0.5 L 167.3381149134208 0.5 L 167.3381149134208 3.5 L 174.3381149134208 0 L 167.3381149134208 -3.5 L 167.3381149134208 -0.5 L 106.9503074567104 -0.5 Z"/><text text-anchor="middle" pointer-events="none" font-size="8px" fill="#000000" x="96.1690574567104" y="3" transform="rotate(180 96.1690574567104 0)" font-family="Helvetica Neue, Helvetica, Arial, sans-serif">REL</text></g><g class="relationship" transform="translate(84.73430087564681 265.9464560007069) rotate(467.74976915171464)"><path class="b-outline" fill="#A5ABB6" stroke="none" d="M 25 0.5 L 71.04189622470587 0.5 L 71.04189622470587 -0.5 L 25 -0.5 Z M 92.60439622470587 0.5 L 138.64629244941173 0.5 L 138.64629244941173 3.5 L 145.64629244941173 0 L 138.64629244941173 -3.5 L 138.64629244941173 -0.5 L 92.60439622470587 -0.5 Z"/><text text-anchor="middle" pointer-events="none" font-size="8px" fill="#000000" x="81.82314622470587" y="3" transform="rotate(180 81.82314622470587 0)" font-family="Helvetica Neue, Helvetica, Arial, sans-serif">REL</text></g><g class="relationship" transform="translate(84.73430087564681 265.9464560007069) rotate(408.4500495405421)"><path class="b-outline" fill="#A5ABB6" stroke="none" d="M 25 0.5 L 71.7884454199685 0.5 L 71.7884454199685 -0.5 L 25 -0.5 Z M 93.3509454199685 0.5 L 140.139390839937 0.5 L 140.139390839937 3.5 L 147.139390839937 0 L 140.139390839937 -3.5 L 140.139390839937 -0.5 L 93.3509454199685 -0.5 Z"/><text text-anchor="middle" pointer-events="none" font-size="8px" fill="#000000" x="82.5696954199685" y="3" font-family="Helvetica Neue, Helvetica, Arial, sans-serif">REL</text></g><g class="relationship" transform="translate(174.04007665511776 -25.377529973397866) rotate(509.73292314798834)"><path class="b-outline" fill="#A5ABB6" stroke="none" d="M 25 0.5 L 83.85583509210534 0.5 L 83.85583509210534 -0.5 L 25 -0.5 Z M 105.41833509210534 0.5 L 164.27417018421067 0.5 L 164.27417018421067 3.5 L 171.27417018421067 0 L 164.27417018421067 -3.5 L 164.27417018421067 -0.5 L 105.41833509210534 -0.5 Z"/><text text-anchor="middle" pointer-events="none" font-size="8px" fill="#000000" x="94.63708509210534" y="3" transform="rotate(180 94.63708509210534 0)" font-family="Helvetica Neue, Helvetica, Arial, sans-serif">REL</text></g><g class="relationship" transform="translate(174.04007665511776 -25.377529973397866) rotate(430.70105924250004)"><path class="b-outline" fill="#A5ABB6" stroke="none" d="M 25 0.5 L 61.99410431193442 0.5 L 61.99410431193442 -0.5 L 25 -0.5 Z M 83.55660431193442 0.5 L 120.55070862386884 0.5 L 120.55070862386884 3.5 L 127.55070862386884 0 L 120.55070862386884 -3.5 L 120.55070862386884 -0.5 L 83.55660431193442 -0.5 Z"/><text text-anchor="middle" pointer-events="none" font-size="8px" fill="#000000" x="72.77535431193442" y="3" font-family="Helvetica Neue, Helvetica, Arial, sans-serif">REL</text></g><g class="relationship" transform="translate(97.16996703767408 37.10870088807635) rotate(438.7188239875842)"><path class="b-outline" fill="#A5ABB6" stroke="none" d="M 25 0.5 L 55.67470117366037 0.5 L 55.67470117366037 -0.5 L 25 -0.5 Z M 77.23720117366037 0.5 L 107.91190234732073 0.5 L 107.91190234732073 3.5 L 114.91190234732073 0 L 107.91190234732073 -3.5 L 107.91190234732073 -0.5 L 77.23720117366037 -0.5 Z"/><text text-anchor="middle" pointer-events="none" font-size="8px" fill="#000000" x="66.45595117366037" y="3" font-family="Helvetica Neue, Helvetica, Arial, sans-serif">REL</text></g><g class="relationship" transform="translate(97.16996703767408 37.10870088807635) rotate(392.6282177535746)"><path class="b-outline" fill="#A5ABB6" stroke="none" d="M 25 0.5 L 61.28846290454078 0.5 L 61.28846290454078 -0.5 L 25 -0.5 Z M 82.85096290454078 0.5 L 119.13942580908156 0.5 L 119.13942580908156 3.5 L 126.13942580908156 0 L 119.13942580908156 -3.5 L 119.13942580908156 -0.5 L 82.85096290454078 -0.5 Z"/><text text-anchor="middle" pointer-events="none" font-size="8px" fill="#000000" x="72.06971290454078" y="3" font-family="Helvetica Neue, Helvetica, Arial, sans-serif">REL</text></g><g class="relationship" transform="translate(-163.38660435915298 -56.563134526725555) rotate(406.21310916904935)"><path class="b-outline" fill="#A5ABB6" stroke="none" d="M 25 0.5 L 36.221506036098674 0.5 L 36.221506036098674 -0.5 L 25 -0.5 Z M 57.784006036098674 0.5 L 69.00551207219735 0.5 L 69.00551207219735 3.5 L 76.00551207219735 0 L 69.00551207219735 -3.5 L 69.00551207219735 -0.5 L 57.784006036098674 -0.5 Z"/><text text-anchor="middle" pointer-events="none" font-size="8px" fill="#000000" x="47.002756036098674" y="3" font-family="Helvetica Neue, Helvetica, Arial, sans-serif">REL</text></g><g class="relationship" transform="translate(-163.38660435915298 -56.563134526725555) rotate(397.7726126787668)"><path class="b-outline" fill="#A5ABB6" stroke="none" d="M 25 0.5 L 91.92914271577179 0.5 L 91.92914271577179 -0.5 L 25 -0.5 Z M 113.49164271577179 0.5 L 180.42078543154358 0.5 L 180.42078543154358 3.5 L 187.42078543154358 0 L 180.42078543154358 -3.5 L 180.42078543154358 -0.5 L 113.49164271577179 -0.5 Z"/><text text-anchor="middle" pointer-events="none" font-size="8px" fill="#000000" x="102.71039271577179" y="3" font-family="Helvetica Neue, Helvetica, Arial, sans-serif">REL</text></g><g class="relationship" transform="translate(10.739414918901195 332.1173265600002) rotate(378.41603933845073)"><path class="b-outline" fill="#A5ABB6" stroke="none" d="M 25 0.5 L 84.88227633373944 0.5 L 84.88227633373944 -0.5 L 25 -0.5 Z M 106.44477633373944 0.5 L 166.32705266747888 0.5 L 166.32705266747888 3.5 L 173.32705266747888 0 L 166.32705266747888 -3.5 L 166.32705266747888 -0.5 L 106.44477633373944 -0.5 Z"/><text text-anchor="middle" pointer-events="none" font-size="8px" fill="#000000" x="95.66352633373944" y="3" font-family="Helvetica Neue, Helvetica, Arial, sans-serif">REL</text></g><g class="relationship" transform="translate(10.739414918901195 332.1173265600002) rotate(437.1542585933049)"><path class="b-outline" fill="#A5ABB6" stroke="none" d="M 25 0.5 L 35.13151985824803 0.5 L 35.13151985824803 -0.5 L 25 -0.5 Z M 56.69401985824803 0.5 L 66.82553971649607 0.5 L 66.82553971649607 3.5 L 73.82553971649607 0 L 66.82553971649607 -3.5 L 66.82553971649607 -0.5 L 56.69401985824803 -0.5 Z"/><text text-anchor="middle" pointer-events="none" font-size="8px" fill="#000000" x="45.91276985824803" y="3" font-family="Helvetica Neue, Helvetica, Arial, sans-serif">REL</text></g><g class="relationship" transform="translate(-10.638283627561725 235.49774260239496) rotate(335.6489678296648)"><path class="b-outline" fill="#A5ABB6" stroke="none" d="M 25 0.5 L 59.908087077838644 0.5 L 59.908087077838644 -0.5 L 25 -0.5 Z M 81.47058707783864 0.5 L 116.37867415567729 0.5 L 116.37867415567729 3.5 L 123.37867415567729 0 L 116.37867415567729 -3.5 L 116.37867415567729 -0.5 L 81.47058707783864 -0.5 Z"/><text text-anchor="middle" pointer-events="none" font-size="8px" fill="#000000" x="70.68933707783864" y="3" font-family="Helvetica Neue, Helvetica, Arial, sans-serif">REL</text></g><g class="relationship" transform="translate(-10.638283627561725 235.49774260239496) rotate(437.339220527615)"><path class="b-outline" fill="#A5ABB6" stroke="none" d="M 25 0.5 L 84.60915699869669 0.5 L 84.60915699869669 -0.5 L 25 -0.5 Z M 106.17165699869669 0.5 L 165.78081399739338 0.5 L 165.78081399739338 3.5 L 172.78081399739338 0 L 165.78081399739338 -3.5 L 165.78081399739338 -0.5 L 106.17165699869669 -0.5 Z"/><text text-anchor="middle" pointer-events="none" font-size="8px" fill="#000000" x="95.39040699869669" y="3" font-family="Helvetica Neue, Helvetica, Arial, sans-serif">REL</text></g><g class="relationship" transform="translate(290.84479507401835 233.1949273800899) rotate(239.91521700807516)"><path class="b-outline" fill="#A5ABB6" stroke="none" d="M 25 0.5 L 51.93628311222078 0.5 L 51.93628311222078 -0.5 L 25 -0.5 Z M 73.49878311222078 0.5 L 100.43506622444156 0.5 L 100.43506622444156 3.5 L 107.43506622444156 0 L 100.43506622444156 -3.5 L 100.43506622444156 -0.5 L 73.49878311222078 -0.5 Z"/><text text-anchor="middle" pointer-events="none" font-size="8px" fill="#000000" x="62.71753311222078" y="3" transform="rotate(180 62.71753311222078 0)" font-family="Helvetica Neue, Helvetica, Arial, sans-serif">REL</text></g><g class="relationship" transform="translate(290.84479507401835 233.1949273800899) rotate(199.49570757463533)"><path class="b-outline" fill="#A5ABB6" stroke="none" d="M 25 0.5 L 73.928476363412 0.5 L 73.928476363412 -0.5 L 25 -0.5 Z M 95.490976363412 0.5 L 144.419452726824 0.5 L 144.419452726824 3.5 L 151.419452726824 0 L 144.419452726824 -3.5 L 144.419452726824 -0.5 L 95.490976363412 -0.5 Z"/><text text-anchor="middle" pointer-events="none" font-size="8px" fill="#000000" x="84.709726363412" y="3" transform="rotate(180 84.709726363412 0)" font-family="Helvetica Neue, Helvetica, Arial, sans-serif">REL</text></g><g class="relationship" transform="translate(-188.26776780570296 78.74112820792219) rotate(358.45784017543406)"><path class="b-outline" fill="#A5ABB6" stroke="none" d="M 25 0.5 L 82.14804004905767 0.5 L 82.14804004905767 -0.5 L 25 -0.5 Z M 103.71054004905767 0.5 L 160.85858009811534 0.5 L 160.85858009811534 3.5 L 167.85858009811534 0 L 160.85858009811534 -3.5 L 160.85858009811534 -0.5 L 103.71054004905767 -0.5 Z"/><text text-anchor="middle" pointer-events="none" font-size="8px" fill="#000000" x="92.92929004905767" y="3" font-family="Helvetica Neue, Helvetica, Arial, sans-serif">REL</text></g><g class="relationship" transform="translate(-188.26776780570296 78.74112820792219) rotate(326.6446569265509)"><path class="b-outline" fill="#A5ABB6" stroke="none" d="M 25 0.5 L 42.45130465158256 0.5 L 42.45130465158256 -0.5 L 25 -0.5 Z M 64.01380465158256 0.5 L 81.46510930316512 0.5 L 81.46510930316512 3.5 L 88.46510930316512 0 L 81.46510930316512 -3.5 L 81.46510930316512 -0.5 L 64.01380465158256 -0.5 Z"/><text text-anchor="middle" pointer-events="none" font-size="8px" fill="#000000" x="53.23255465158256" y="3" font-family="Helvetica Neue, Helvetica, Arial, sans-serif">REL</text></g><g class="relationship" transform="translate(274.4318549523061 -263.61299395583194) rotate(295.2180838606806)"><path class="b-outline" fill="#A5ABB6" stroke="none" d="M 25 0.5 L 53.34739327677099 0.5 L 53.34739327677099 -0.5 L 25 -0.5 Z M 74.90989327677099 0.5 L 103.25728655354197 0.5 L 103.25728655354197 3.5 L 110.25728655354197 0 L 103.25728655354197 -3.5 L 103.25728655354197 -0.5 L 74.90989327677099 -0.5 Z"/><text text-anchor="middle" pointer-events="none" font-size="8px" fill="#000000" x="64.12864327677099" y="3" font-family="Helvetica Neue, Helvetica, Arial, sans-serif">REL</text></g><g class="relationship" transform="translate(274.4318549523061 -263.61299395583194) rotate(231.06084202422687)"><path class="b-outline" fill="#A5ABB6" stroke="none" d="M 25 0.5 L 63.41558170533493 0.5 L 63.41558170533493 -0.5 L 25 -0.5 Z M 84.97808170533493 0.5 L 123.39366341066986 0.5 L 123.39366341066986 3.5 L 130.39366341066986 0 L 123.39366341066986 -3.5 L 123.39366341066986 -0.5 L 84.97808170533493 -0.5 Z"/><text text-anchor="middle" pointer-events="none" font-size="8px" fill="#000000" x="74.19683170533493" y="3" transform="rotate(180 74.19683170533493 0)" font-family="Helvetica Neue, Helvetica, Arial, sans-serif">REL</text></g><g class="relationship" transform="translate(14.567681837561269 -346.527526477463) rotate(299.7341060921648)"><path class="b-outline" fill="#A5ABB6" stroke="none" d="M 25 0.5 L 76.25883449637514 0.5 L 76.25883449637514 -0.5 L 25 -0.5 Z M 97.82133449637514 0.5 L 149.0801689927503 0.5 L 149.0801689927503 3.5 L 156.0801689927503 0 L 149.0801689927503 -3.5 L 149.0801689927503 -0.5 L 97.82133449637514 -0.5 Z"/><text text-anchor="middle" pointer-events="none" font-size="8px" fill="#000000" x="87.04008449637514" y="3" font-family="Helvetica Neue, Helvetica, Arial, sans-serif">REL</text></g><g class="relationship" transform="translate(14.567681837561269 -346.527526477463) rotate(346.8304322022535)"><path class="b-outline" fill="#A5ABB6" stroke="none" d="M 25 0.5 L 69.00932027031885 0.5 L 69.00932027031885 -0.5 L 25 -0.5 Z M 90.57182027031885 0.5 L 134.5811405406377 0.5 L 134.5811405406377 3.5 L 141.5811405406377 0 L 134.5811405406377 -3.5 L 134.5811405406377 -0.5 L 90.57182027031885 -0.5 Z"/><text text-anchor="middle" pointer-events="none" font-size="8px" fill="#000000" x="79.79057027031885" y="3" font-family="Helvetica Neue, Helvetica, Arial, sans-serif">REL</text></g><g class="relationship" transform="translate(87.71211409117252 -279.01886025201327) rotate(249.1516565905941)"><path class="b-outline" fill="#A5ABB6" stroke="none" d="M 25 0.5 L 74.49773492391991 0.5 L 74.49773492391991 -0.5 L 25 -0.5 Z M 96.06023492391991 0.5 L 145.55796984783981 0.5 L 145.55796984783981 3.5 L 152.55796984783981 0 L 145.55796984783981 -3.5 L 145.55796984783981 -0.5 L 96.06023492391991 -0.5 Z"/><text text-anchor="middle" pointer-events="none" font-size="8px" fill="#000000" x="85.27898492391991" y="3" transform="rotate(180 85.27898492391991 0)" font-family="Helvetica Neue, Helvetica, Arial, sans-serif">REL</text></g><g class="relationship" transform="translate(87.71211409117252 -279.01886025201327) rotate(310.1790061116111)"><path class="b-outline" fill="#A5ABB6" stroke="none" d="M 25 0.5 L 54.735101588252334 0.5 L 54.735101588252334 -0.5 L 25 -0.5 Z M 76.29760158825233 0.5 L 106.03270317650467 0.5 L 106.03270317650467 3.5 L 113.03270317650467 0 L 106.03270317650467 -3.5 L 106.03270317650467 -0.5 L 76.29760158825233 -0.5 Z"/><text text-anchor="middle" pointer-events="none" font-size="8px" fill="#000000" x="65.51635158825233" y="3" font-family="Helvetica Neue, Helvetica, Arial, sans-serif">REL</text></g><g class="relationship" transform="translate(-109.53652278305779 228.36353519201322) rotate(391.7565894427013)"><path class="b-outline" fill="#A5ABB6" stroke="none" d="M 24.018736134675446,6.953439040707552 L 24.277555179777966,5.987513214418485 A 390.78642460589543 390.78642460589543 0 0 0 111.924118685683,19.07010870403667 L 111.88958215907967,20.069512140257586 A 391.78642460589543 391.78642460589543 0 0 1 24.018736134675446,6.953439040707552 Z M 133.4763764092517,20.220407382174358 L 133.455814563644,19.22061879927037 A 390.78642460589543 390.78642460589543 0 0 0 221.2767032968654,7.364569657724758 L 220.54083193983274,4.456220753982482 L 228.18549596510283,6.13226130860558 L 222.25786510624232,11.242368196047792 L 221.52199374920966,8.334019292305516 A 391.78642460589543 391.78642460589543 0 0 1 133.4763764092517,20.220407382174358"/><text text-anchor="middle" pointer-events="none" font-size="8px" fill="#000000" x="122.68543479806493" y="22.793678483899214" font-family="Helvetica Neue, Helvetica, Arial, sans-serif">REL</text></g><g class="relationship" transform="translate(-109.53652278305779 228.36353519201322) rotate(274.32753927455775)"><path class="b-outline" fill="#A5ABB6" stroke="none" d="M 25 0.5 L 79.36027675836407 0.5 L 79.36027675836407 -0.5 L 25 -0.5 Z M 126.25480800836407 0.5 L 180.61508476672813 0.5 L 180.61508476672813 3.5 L 187.61508476672813 0 L 180.61508476672813 -3.5 L 180.61508476672813 -0.5 L 126.25480800836407 -0.5 Z"/><text text-anchor="middle" pointer-events="none" font-size="8px" fill="#000000" x="102.80754238336407" y="3" font-family="Helvetica Neue, Helvetica, Arial, sans-serif">INCLUDED</text></g><g class="relationship" transform="translate(-109.53652278305779 228.36353519201322) rotate(346.9987616815206)"><path class="b-outline" fill="#A5ABB6" stroke="none" d="M 25 0.5 L 93.17022719274522 0.5 L 93.17022719274522 -0.5 L 25 -0.5 Z M 140.06475844274522 0.5 L 208.23498563549043 0.5 L 208.23498563549043 3.5 L 215.23498563549043 0 L 208.23498563549043 -3.5 L 208.23498563549043 -0.5 L 140.06475844274522 -0.5 Z"/><text text-anchor="middle" pointer-events="none" font-size="8px" fill="#000000" x="116.61749281774522" y="3" font-family="Helvetica Neue, Helvetica, Arial, sans-serif">INCLUDED</text></g><g class="relationship" transform="translate(-109.53652278305779 228.36353519201322) rotate(414.592462270209)"><path class="b-outline" fill="#A5ABB6" stroke="none" d="M 25 0.5 L 95.80934733389313 0.5 L 95.80934733389313 -0.5 L 25 -0.5 Z M 142.70387858389313 0.5 L 213.51322591778626 0.5 L 213.51322591778626 3.5 L 220.51322591778626 0 L 213.51322591778626 -3.5 L 213.51322591778626 -0.5 L 142.70387858389313 -0.5 Z"/><text text-anchor="middle" pointer-events="none" font-size="8px" fill="#000000" x="119.25661295889313" y="3" font-family="Helvetica Neue, Helvetica, Arial, sans-serif">INCLUDED</text></g><g class="relationship" transform="translate(105.09558515464765 361.21605291862636) rotate(211.75658944270128)"><path class="b-outline" fill="#A5ABB6" stroke="none" d="M 24.018736134675446,6.953439040707552 L 24.277555179777966,5.987513214418485 A 390.78642460589543 390.78642460589543 0 0 0 111.924118685683,19.07010870403667 L 111.88958215907967,20.069512140257586 A 391.78642460589543 391.78642460589543 0 0 1 24.018736134675446,6.953439040707552 Z M 133.4763764092517,20.220407382174358 L 133.455814563644,19.22061879927037 A 390.78642460589543 390.78642460589543 0 0 0 221.2767032968654,7.364569657724758 L 220.54083193983274,4.456220753982482 L 228.18549596510283,6.13226130860558 L 222.25786510624232,11.242368196047792 L 221.52199374920966,8.334019292305516 A 391.78642460589543 391.78642460589543 0 0 1 133.4763764092517,20.220407382174358"/><text text-anchor="middle" pointer-events="none" font-size="8px" fill="#000000" x="122.68543479806493" y="22.793678483899214" transform="rotate(180 122.68543479806493 19.793678483899214)" font-family="Helvetica Neue, Helvetica, Arial, sans-serif">REL</text></g><g class="relationship" transform="translate(105.09558515464765 361.21605291862636) rotate(250.7291557057859)"><path class="b-outline" fill="#A5ABB6" stroke="none" d="M 25 0.5 L 125.42279611397947 0.5 L 125.42279611397947 -0.5 L 25 -0.5 Z M 172.31732736397947 0.5 L 272.74012347795895 0.5 L 272.74012347795895 3.5 L 279.74012347795895 0 L 272.74012347795895 -3.5 L 272.74012347795895 -0.5 L 172.31732736397947 -0.5 Z"/><text text-anchor="middle" pointer-events="none" font-size="8px" fill="#000000" x="148.87006173897947" y="3" transform="rotate(180 148.87006173897947 0)" font-family="Helvetica Neue, Helvetica, Arial, sans-serif">INCLUDED</text></g><g class="relationship" transform="translate(105.09558515464765 361.21605291862636) rotate(296.1963080726807)"><path class="b-outline" fill="#A5ABB6" stroke="none" d="M 25 0.5 L 108.2464886326747 0.5 L 108.2464886326747 -0.5 L 25 -0.5 Z M 155.1410198826747 0.5 L 238.3875085153494 0.5 L 238.3875085153494 3.5 L 245.3875085153494 0 L 238.3875085153494 -3.5 L 238.3875085153494 -0.5 L 155.1410198826747 -0.5 Z"/><text text-anchor="middle" pointer-events="none" font-size="8px" fill="#000000" x="131.6937542576747" y="3" font-family="Helvetica Neue, Helvetica, Arial, sans-serif">INCLUDED</text></g><g class="relationship" transform="translate(105.09558515464765 361.21605291862636) rotate(379.6812630037524)"><path class="b-outline" fill="#A5ABB6" stroke="none" d="M 25 0.5 L 27.315379175930538 0.5 L 27.315379175930538 -0.5 L 25 -0.5 Z M 65.31928542593053 0.5 L 67.63466460186108 0.5 L 67.63466460186108 3.5 L 74.63466460186108 0 L 67.63466460186108 -3.5 L 67.63466460186108 -0.5 L 65.31928542593053 -0.5 Z"/><text text-anchor="middle" pointer-events="none" font-size="8px" fill="#000000" x="46.31733230093054" y="3" font-family="Helvetica Neue, Helvetica, Arial, sans-serif">INCLU…</text></g><g class="relationship" transform="translate(32.71099336134286 428.46947776070965) rotate(289.8655725702823)"><path class="b-outline" fill="#A5ABB6" stroke="none" d="M 25 0.5 L 120.83525536576064 0.5 L 120.83525536576064 -0.5 L 25 -0.5 Z M 142.39775536576064 0.5 L 238.2330107315213 0.5 L 238.2330107315213 3.5 L 245.2330107315213 0 L 238.2330107315213 -3.5 L 238.2330107315213 -0.5 L 142.39775536576064 -0.5 Z"/><text text-anchor="middle" pointer-events="none" font-size="8px" fill="#000000" x="131.61650536576064" y="3" font-family="Helvetica Neue, Helvetica, Arial, sans-serif">REL</text></g><g class="relationship" transform="translate(32.71099336134286 428.46947776070965) rotate(348.5383306065394)"><path class="b-outline" fill="#A5ABB6" stroke="none" d="M 24.018736134675446,6.953439040707552 L 24.277555179777966,5.987513214418485 A 229.25765324309918 229.25765324309918 0 0 0 70.50785808351401,13.424358808858557 L 70.45069120683317,14.422723445757583 A 230.25765324309918 230.25765324309918 0 0 1 24.018736134675446,6.953439040707552 Z M 92.05104623388003,14.64464501793492 L 92.01440361184144,13.645316584310535 A 229.25765324309918 229.25765324309918 0 0 0 138.3877437488161,7.159878780492865 L 137.67098763316136,4.246760061547215 L 145.3044801122984,5.9729676304560995 L 139.34341856968905,11.044037072420398 L 138.62666245403432,8.130918353474748 A 230.25765324309918 230.25765324309918 0 0 1 92.05104623388003,14.64464501793492"/><text text-anchor="middle" pointer-events="none" font-size="8px" fill="#000000" x="81.25340157388779" y="17.287153284140345" font-family="Helvetica Neue, Helvetica, Arial, sans-serif">REL</text></g><g class="relationship" transform="translate(198.90966559567164 394.7717484311683) rotate(528.5383306065394)"><path class="b-outline" fill="#A5ABB6" stroke="none" d="M 24.018736134675446,6.953439040707552 L 24.277555179777966,5.987513214418485 A 229.25765324309918 229.25765324309918 0 0 0 70.50785808351401,13.424358808858557 L 70.45069120683317,14.422723445757583 A 230.25765324309918 230.25765324309918 0 0 1 24.018736134675446,6.953439040707552 Z M 92.05104623388003,14.64464501793492 L 92.01440361184144,13.645316584310535 A 229.25765324309918 229.25765324309918 0 0 0 138.3877437488161,7.159878780492865 L 137.67098763316136,4.246760061547215 L 145.3044801122984,5.9729676304560995 L 139.34341856968905,11.044037072420398 L 138.62666245403432,8.130918353474748 A 230.25765324309918 230.25765324309918 0 0 1 92.05104623388003,14.64464501793492"/><text text-anchor="middle" pointer-events="none" font-size="8px" fill="#000000" x="81.25340157388779" y="17.287153284140345" transform="rotate(180 81.25340157388779 14.287153284140345)" font-family="Helvetica Neue, Helvetica, Arial, sans-serif">REL</text></g><g class="relationship" transform="translate(4.520957492145707 73.55081843953471) rotate(210.26576280694087)"><path class="b-outline" fill="#A5ABB6" stroke="none" d="M 24.018736134675446,-6.953439040707552 L 24.277555179777966,-5.987513214418485 A 118.63658727716825 118.63658727716825 0 0 1 42.482818084643206,-9.369579966339984 L 42.377453073601295,-10.364013581242531 A 119.63658727716825 119.63658727716825 0 0 0 24.018736134675446,-6.953439040707552 Z M 63.99845208147575,-10.689781886009513 L 63.923094794264664,-9.692625288847282 A 118.63658727716825 118.63658727716825 0 0 1 82.22198716107923,-6.860574601191615 L 81.53318556016083,-3.9407197495641824 L 89.1497820816963,-5.740013340986604 L 83.14038929563708,-10.753714403361526 L 82.45158769471868,-7.833859551734093 A 119.63658727716825 119.63658727716825 0 0 0 63.99845208147575,-10.689781886009513"/><text text-anchor="middle" pointer-events="none" font-size="8px" fill="#000000" x="53.18811020762004" y="-7.5164359428798235" transform="rotate(180 53.18811020762004 -10.516435942879824)" font-family="Helvetica Neue, Helvetica, Arial, sans-serif">REL</text></g><g class="relationship" transform="translate(224.4576197144165 118.60090609780094) rotate(510.8548947539808)"><path class="b-outline" fill="#A5ABB6" stroke="none" d="M 24.018736134675446,-6.953439040707552 L 24.277555179777966,-5.987513214418485 A 120.46886774052693 120.46886774052693 0 0 1 42.94191552677156,-9.440532816221122 L 42.838027466719836,-10.435121812228374 A 121.46886774052693 121.46886774052693 0 0 0 24.018736134675446,-6.953439040707552 Z M 64.45858256141138,-10.75840942873866 L 64.38447805845612,-9.761158947344057 A 120.46886774052693 120.46886774052693 0 0 1 83.14373556409907,-6.867726838266881 L 82.4542659046655,-3.9480296641201225 L 90.07127391368043,-5.745580495279691 L 84.06302844334382,-10.760656403795892 L 83.37355878391025,-7.840959229649133 A 121.46886774052693 121.46886774052693 0 0 0 64.45858256141138,-10.75840942873866"/><text text-anchor="middle" pointer-events="none" font-size="8px" fill="#000000" x="53.648572616379234" y="-7.578869139858114" transform="rotate(180 53.648572616379234 -10.578869139858114)" font-family="Helvetica Neue, Helvetica, Arial, sans-serif">REL</text></g><g class="relationship" transform="translate(224.4576197144165 118.60090609780094) rotate(191.57589374991534)"><path class="b-outline" fill="#A5ABB6" stroke="none" d="M 25 0.5 L 97.97030431829297 0.5 L 97.97030431829297 -0.5 L 25 -0.5 Z M 119.53280431829297 0.5 L 192.50310863658595 0.5 L 192.50310863658595 3.5 L 199.50310863658595 0 L 192.50310863658595 -3.5 L 192.50310863658595 -0.5 L 119.53280431829297 -0.5 Z"/><text text-anchor="middle" pointer-events="none" font-size="8px" fill="#000000" x="108.75155431829297" y="3" transform="rotate(180 108.75155431829297 0)" font-family="Helvetica Neue, Helvetica, Arial, sans-serif">REL</text></g><g class="relationship" transform="translate(124.54008770336272 174.31736283473285) rotate(330.8548947539808)"><path class="b-outline" fill="#A5ABB6" stroke="none" d="M 24.018736134675446,-6.953439040707552 L 24.277555179777966,-5.987513214418485 A 120.46886774052693 120.46886774052693 0 0 1 42.94191552677156,-9.440532816221122 L 42.838027466719836,-10.435121812228374 A 121.46886774052693 121.46886774052693 0 0 0 24.018736134675446,-6.953439040707552 Z M 64.45858256141138,-10.75840942873866 L 64.38447805845612,-9.761158947344057 A 120.46886774052693 120.46886774052693 0 0 1 83.14373556409907,-6.867726838266881 L 82.4542659046655,-3.9480296641201225 L 90.07127391368043,-5.745580495279691 L 84.06302844334382,-10.760656403795892 L 83.37355878391025,-7.840959229649133 A 121.46886774052693 121.46886774052693 0 0 0 64.45858256141138,-10.75840942873866"/><text text-anchor="middle" pointer-events="none" font-size="8px" fill="#000000" x="53.648572616379234" y="-7.578869139858114" font-family="Helvetica Neue, Helvetica, Arial, sans-serif">REL</text></g><g class="relationship" transform="translate(-93.49301027383403 16.35462033999722) rotate(390.26576280694087)"><path class="b-outline" fill="#A5ABB6" stroke="none" d="M 24.018736134675446,-6.953439040707552 L 24.277555179777966,-5.987513214418485 A 118.63658727716825 118.63658727716825 0 0 1 42.482818084643206,-9.369579966339984 L 42.377453073601295,-10.364013581242531 A 119.63658727716825 119.63658727716825 0 0 0 24.018736134675446,-6.953439040707552 Z M 63.99845208147575,-10.689781886009513 L 63.923094794264664,-9.692625288847282 A 118.63658727716825 118.63658727716825 0 0 1 82.22198716107923,-6.860574601191615 L 81.53318556016083,-3.9407197495641824 L 89.1497820816963,-5.740013340986604 L 83.14038929563708,-10.753714403361526 L 82.45158769471868,-7.833859551734093 A 119.63658727716825 119.63658727716825 0 0 0 63.99845208147575,-10.689781886009513"/><text text-anchor="middle" pointer-events="none" font-size="8px" fill="#000000" x="53.18811020762004" y="-7.5164359428798235" font-family="Helvetica Neue, Helvetica, Arial, sans-serif">REL</text></g><g class="relationship" transform="translate(176.76774709507436 -384.48032893364785) rotate(201.66239793694047)"><path class="b-outline" fill="#A5ABB6" stroke="none" d="M 24.018736134675446,6.953439040707552 L 24.277555179777966,5.987513214418485 A 217.96420815850593 217.96420815850593 0 0 0 67.62717137831572,13.0226260920696 L 67.56723643700613,14.020828377586042 A 218.96420815850593 218.96420815850593 0 0 1 24.018736134675446,6.953439040707552 Z M 89.16909690330628,14.250263738803795 L 89.13037708890046,13.25101363198749 A 217.96420815850593 217.96420815850593 0 0 0 132.61963837253032,7.1382245168636125 L 131.90490458101428,4.224608961018077 L 139.53719696808923,5.95611492930042 L 133.57261676121837,11.023045257990994 L 132.85788296970233,8.109429702145459 A 218.96420815850593 218.96420815850593 0 0 1 89.16909690330628,14.250263738803795"/><text text-anchor="middle" pointer-events="none" font-size="8px" fill="#000000" x="78.37064567271294" y="16.90214233593491" transform="rotate(180 78.37064567271294 13.902142335934911)" font-family="Helvetica Neue, Helvetica, Arial, sans-serif">REL</text></g><g class="relationship" transform="translate(176.76774709507436 -384.48032893364785) rotate(238.74846639046507)"><path class="b-outline" fill="#A5ABB6" stroke="none" d="M 25 0.5 L 55.4847966804178 0.5 L 55.4847966804178 -0.5 L 25 -0.5 Z M 77.0472966804178 0.5 L 107.5320933608356 0.5 L 107.5320933608356 3.5 L 114.5320933608356 0 L 107.5320933608356 -3.5 L 107.5320933608356 -0.5 L 77.0472966804178 -0.5 Z"/><text text-anchor="middle" pointer-events="none" font-size="8px" fill="#000000" x="66.2660466804178" y="3" transform="rotate(180 66.2660466804178 0)" font-family="Helvetica Neue, Helvetica, Arial, sans-serif">REL</text></g><g class="relationship" transform="translate(176.76774709507436 -384.48032893364785) rotate(359.44697944076415)"><path class="b-outline" fill="#A5ABB6" stroke="none" d="M 25 0.5 L 63.36860895378145 0.5 L 63.36860895378145 -0.5 L 25 -0.5 Z M 84.93110895378145 0.5 L 123.2997179075629 0.5 L 123.2997179075629 3.5 L 130.2997179075629 0 L 123.2997179075629 -3.5 L 123.2997179075629 -0.5 L 84.93110895378145 -0.5 Z"/><text text-anchor="middle" pointer-events="none" font-size="8px" fill="#000000" x="74.14985895378145" y="3" font-family="Helvetica Neue, Helvetica, Arial, sans-serif">REL</text></g><g class="relationship" transform="translate(24.52001447524853 -444.9513501466012) rotate(381.66239793694047)"><path class="b-outline" fill="#A5ABB6" stroke="none" d="M 24.018736134675446,6.953439040707552 L 24.277555179777966,5.987513214418485 A 217.96420815850593 217.96420815850593 0 0 0 67.62717137831572,13.0226260920696 L 67.56723643700613,14.020828377586042 A 218.96420815850593 218.96420815850593 0 0 1 24.018736134675446,6.953439040707552 Z M 89.16909690330628,14.250263738803795 L 89.13037708890046,13.25101363198749 A 217.96420815850593 217.96420815850593 0 0 0 132.61963837253032,7.1382245168636125 L 131.90490458101428,4.224608961018077 L 139.53719696808923,5.95611492930042 L 133.57261676121837,11.023045257990994 L 132.85788296970233,8.109429702145459 A 218.96420815850593 218.96420815850593 0 0 1 89.16909690330628,14.250263738803795"/><text text-anchor="middle" pointer-events="none" font-size="8px" fill="#000000" x="78.37064567271294" y="16.90214233593491" font-family="Helvetica Neue, Helvetica, Arial, sans-serif">REL</text></g></g><g class="layer nodes"><g class="node" aria-label="graph-node2413" transform="translate(-109.53652278305779,228.36353519201322)" style="touch-action: none; -webkit-tap-highlight-color: rgba(0, 0, 0, 0);"><circle class="b-outline" cx="0" cy="0" r="25" fill="#C990C0" stroke="#b261a5" stroke-width="2px"/><text class="caption" text-anchor="middle" pointer-events="none" x="0" y="5" font-size="10px" fill="#FFFFFF" font-family="Helvetica Neue, Helvetica, Arial, sans-serif"> Entity1_ID</text></g><g class="node" aria-label="graph-node2412" transform="translate(105.09558515464765,361.21605291862636)" style="touch-action: none; -webkit-tap-highlight-color: rgba(0, 0, 0, 0);"><circle class="b-outline" cx="0" cy="0" r="25" fill="#C990C0" stroke="#b261a5" stroke-width="2px"/><text class="caption" text-anchor="middle" pointer-events="none" x="0" y="5" font-size="10px" fill="#FFFFFF" font-family="Helvetica Neue, Helvetica, Arial, sans-serif"> Entity1_ID</text></g><g class="node" aria-label="graph-node2417" transform="translate(32.71099336134286,428.46947776070965)" style="touch-action: none; -webkit-tap-highlight-color: rgba(0, 0, 0, 0);"><circle class="b-outline" cx="0" cy="0" r="25" fill="#F79767" stroke="#f36924" stroke-width="2px"/><text class="caption" text-anchor="middle" pointer-events="none" x="0" y="5" font-size="10px" fill="#FFFFFF" font-family="Helvetica Neue, Helvetica, Arial, sans-serif"> Entity2_ID</text></g><g class="node" aria-label="graph-node2414" transform="translate(198.90966559567164,394.7717484311683)" style="touch-action: none; -webkit-tap-highlight-color: rgba(0, 0, 0, 0);"><circle class="b-outline" cx="0" cy="0" r="25" fill="#F79767" stroke="#f36924" stroke-width="2px"/><text class="caption" text-anchor="middle" pointer-events="none" x="0" y="5" font-size="10px" fill="#FFFFFF" font-family="Helvetica Neue, Helvetica, Arial, sans-serif"> Entity2_ID</text></g><g class="node" aria-label="graph-node2416" transform="translate(4.520957492145707,73.55081843953471)" style="touch-action: none; -webkit-tap-highlight-color: rgba(0, 0, 0, 0);"><circle class="b-outline" cx="0" cy="0" r="25" fill="#F79767" stroke="#f36924" stroke-width="2px"/><text class="caption" text-anchor="middle" pointer-events="none" x="0" y="5" font-size="10px" fill="#FFFFFF" font-family="Helvetica Neue, Helvetica, Arial, sans-serif"> Entity2_ID</text></g><g class="node" aria-label="graph-node2415" transform="translate(224.4576197144165,118.60090609780094)" style="touch-action: none; -webkit-tap-highlight-color: rgba(0, 0, 0, 0);"><circle class="b-outline" cx="0" cy="0" r="25" fill="#F79767" stroke="#f36924" stroke-width="2px"/><text class="caption" text-anchor="middle" pointer-events="none" x="0" y="5" font-size="10px" fill="#FFFFFF" font-family="Helvetica Neue, Helvetica, Arial, sans-serif"> Entity2_ID</text></g><g class="node" aria-label="graph-node2418" transform="translate(124.54008770336272,174.31736283473285)" style="touch-action: none; -webkit-tap-highlight-color: rgba(0, 0, 0, 0);"><circle class="b-outline" cx="0" cy="0" r="25" fill="#F79767" stroke="#f36924" stroke-width="2px"/><text class="caption" text-anchor="middle" pointer-events="none" x="0" y="5" font-size="10px" fill="#FFFFFF" font-family="Helvetica Neue, Helvetica, Arial, sans-serif"> Entity2_ID</text></g><g class="node" aria-label="graph-node2419" transform="translate(-93.49301027383403,16.35462033999722)" style="touch-action: none; -webkit-tap-highlight-color: rgba(0, 0, 0, 0);"><circle class="b-outline" cx="0" cy="0" r="25" fill="#F79767" stroke="#f36924" stroke-width="2px"/><text class="caption" text-anchor="middle" pointer-events="none" x="0" y="5" font-size="10px" fill="#FFFFFF" font-family="Helvetica Neue, Helvetica, Arial, sans-serif"> Entity2_ID</text></g><g class="node" aria-label="graph-node3068" transform="translate(332.06023106785847,-385.9792631320694)" style="touch-action: none; -webkit-tap-highlight-color: rgba(0, 0, 0, 0);"><circle class="b-outline" cx="0" cy="0" r="25" fill="#57C7E3" stroke="#23b3d7" stroke-width="2px"/><text class="caption" text-anchor="middle" pointer-events="none" x="0" y="5" font-size="10px" fill="#2A2C34" font-family="Helvetica Neue, Helvetica, Arial, sans-serif"> Absolute</text></g><g class="node" aria-label="graph-node3102" transform="translate(176.76774709507436,-384.48032893364785)" style="touch-action: none; -webkit-tap-highlight-color: rgba(0, 0, 0, 0);"><circle class="b-outline" cx="0" cy="0" r="25" fill="#57C7E3" stroke="#23b3d7" stroke-width="2px"/><text class="caption" text-anchor="middle" pointer-events="none" x="0" y="5" font-size="10px" fill="#2A2C34" font-family="Helvetica Neue, Helvetica, Arial, sans-serif"> Absolute</text></g><g class="node" aria-label="graph-node3079" transform="translate(104.37903551327771,-503.76603433536144)" style="touch-action: none; -webkit-tap-highlight-color: rgba(0, 0, 0, 0);"><circle class="b-outline" cx="0" cy="0" r="25" fill="#57C7E3" stroke="#23b3d7" stroke-width="2px"/><text class="caption" text-anchor="middle" pointer-events="none" x="0" y="5" font-size="10px" fill="#2A2C34" font-family="Helvetica Neue, Helvetica, Arial, sans-serif"> Absolute</text></g><g class="node" aria-label="graph-node3086" transform="translate(24.52001447524853,-444.9513501466012)" style="touch-action: none; -webkit-tap-highlight-color: rgba(0, 0, 0, 0);"><circle class="b-outline" cx="0" cy="0" r="25" fill="#57C7E3" stroke="#23b3d7" stroke-width="2px"/><text class="caption" text-anchor="middle" pointer-events="none" x="0" y="5" font-size="10px" fill="#2A2C34" font-family="Helvetica Neue, Helvetica, Arial, sans-serif"> Absolute</text></g><g class="node" aria-label="graph-node2335" transform="translate(-105.09206781823455,332.77452371714065)" style="touch-action: none; -webkit-tap-highlight-color: rgba(0, 0, 0, 0);"><circle class="b-outline" cx="0" cy="0" r="25" fill="#C990C0" stroke="#b261a5" stroke-width="2px"/><text class="caption" text-anchor="middle" pointer-events="none" x="0" y="5" font-size="10px" fill="#FFFFFF" font-family="Helvetica Neue, Helvetica, Arial, sans-serif"> </text></g><g class="node" aria-label="graph-node2826" transform="translate(-66.52113944535854,423.00515677780595)" style="touch-action: none; -webkit-tap-highlight-color: rgba(0, 0, 0, 0);"><circle class="b-outline" cx="0" cy="0" r="25" fill="#C990C0" stroke="#b261a5" stroke-width="2px"/><text class="caption" text-anchor="middle" pointer-events="none" x="0" y="5" font-size="10px" fill="#FFFFFF" font-family="Helvetica Neue, Helvetica, Arial, sans-serif"> </text></g><g class="node" aria-label="graph-node2827" transform="translate(84.73430087564681,265.9464560007069)" style="touch-action: none; -webkit-tap-highlight-color: rgba(0, 0, 0, 0);"><circle class="b-outline" cx="0" cy="0" r="25" fill="#F79767" stroke="#f36924" stroke-width="2px"/><text class="caption" text-anchor="middle" pointer-events="none" x="0" y="5" font-size="10px" fill="#FFFFFF" font-family="Helvetica Neue, Helvetica, Arial, sans-serif"> </text></g><g class="node" aria-label="graph-node2828" transform="translate(174.04007665511776,-25.377529973397866)" style="touch-action: none; -webkit-tap-highlight-color: rgba(0, 0, 0, 0);"><circle class="b-outline" cx="0" cy="0" r="25" fill="#F79767" stroke="#f36924" stroke-width="2px"/><text class="caption" text-anchor="middle" pointer-events="none" x="0" y="5" font-size="10px" fill="#FFFFFF" font-family="Helvetica Neue, Helvetica, Arial, sans-serif"> </text></g><g class="node" aria-label="graph-node2829" transform="translate(97.16996703767408,37.10870088807635)" style="touch-action: none; -webkit-tap-highlight-color: rgba(0, 0, 0, 0);"><circle class="b-outline" cx="0" cy="0" r="25" fill="#F79767" stroke="#f36924" stroke-width="2px"/><text class="caption" text-anchor="middle" pointer-events="none" x="0" y="5" font-size="10px" fill="#FFFFFF" font-family="Helvetica Neue, Helvetica, Arial, sans-serif"> </text></g><g class="node" aria-label="graph-node2830" transform="translate(-163.38660435915298,-56.563134526725555)" style="touch-action: none; -webkit-tap-highlight-color: rgba(0, 0, 0, 0);"><circle class="b-outline" cx="0" cy="0" r="25" fill="#F79767" stroke="#f36924" stroke-width="2px"/><text class="caption" text-anchor="middle" pointer-events="none" x="0" y="5" font-size="10px" fill="#FFFFFF" font-family="Helvetica Neue, Helvetica, Arial, sans-serif"> </text></g><g class="node" aria-label="graph-node2831" transform="translate(10.739414918901195,332.1173265600002)" style="touch-action: none; -webkit-tap-highlight-color: rgba(0, 0, 0, 0);"><circle class="b-outline" cx="0" cy="0" r="25" fill="#F79767" stroke="#f36924" stroke-width="2px"/><text class="caption" text-anchor="middle" pointer-events="none" x="0" y="5" font-size="10px" fill="#FFFFFF" font-family="Helvetica Neue, Helvetica, Arial, sans-serif"> </text></g><g class="node" aria-label="graph-node2832" transform="translate(-10.638283627561725,235.49774260239496)" style="touch-action: none; -webkit-tap-highlight-color: rgba(0, 0, 0, 0);"><circle class="b-outline" cx="0" cy="0" r="25" fill="#F79767" stroke="#f36924" stroke-width="2px"/><text class="caption" text-anchor="middle" pointer-events="none" x="0" y="5" font-size="10px" fill="#FFFFFF" font-family="Helvetica Neue, Helvetica, Arial, sans-serif"> </text></g><g class="node" aria-label="graph-node2833" transform="translate(290.84479507401835,233.1949273800899)" style="touch-action: none; -webkit-tap-highlight-color: rgba(0, 0, 0, 0);"><circle class="b-outline" cx="0" cy="0" r="25" fill="#F79767" stroke="#f36924" stroke-width="2px"/><text class="caption" text-anchor="middle" pointer-events="none" x="0" y="5" font-size="10px" fill="#FFFFFF" font-family="Helvetica Neue, Helvetica, Arial, sans-serif"> </text></g><g class="node" aria-label="graph-node2834" transform="translate(-188.26776780570296,78.74112820792219)" style="touch-action: none; -webkit-tap-highlight-color: rgba(0, 0, 0, 0);"><circle class="b-outline" cx="0" cy="0" r="25" fill="#F79767" stroke="#f36924" stroke-width="2px"/><text class="caption" text-anchor="middle" pointer-events="none" x="0" y="5" font-size="10px" fill="#FFFFFF" font-family="Helvetica Neue, Helvetica, Arial, sans-serif"> </text></g><g class="node" aria-label="graph-node2835" transform="translate(274.4318549523061,-263.61299395583194)" style="touch-action: none; -webkit-tap-highlight-color: rgba(0, 0, 0, 0);"><circle class="b-outline" cx="0" cy="0" r="25" fill="#57C7E3" stroke="#23b3d7" stroke-width="2px"/><text class="caption" text-anchor="middle" pointer-events="none" x="0" y="5" font-size="10px" fill="#2A2C34" font-family="Helvetica Neue, Helvetica, Arial, sans-serif"> Relative</text></g><g class="node" aria-label="graph-node2836" transform="translate(14.567681837561269,-346.527526477463)" style="touch-action: none; -webkit-tap-highlight-color: rgba(0, 0, 0, 0);"><circle class="b-outline" cx="0" cy="0" r="25" fill="#57C7E3" stroke="#23b3d7" stroke-width="2px"/><text class="caption" text-anchor="middle" pointer-events="none" x="0" y="5" font-size="10px" fill="#2A2C34" font-family="Helvetica Neue, Helvetica, Arial, sans-serif"> Relative</text></g><g class="node" aria-label="graph-node2837" transform="translate(87.71211409117252,-279.01886025201327)" style="touch-action: none; -webkit-tap-highlight-color: rgba(0, 0, 0, 0);"><circle class="b-outline" cx="0" cy="0" r="25" fill="#57C7E3" stroke="#23b3d7" stroke-width="2px"/><text class="caption" text-anchor="middle" pointer-events="none" x="0" y="5" font-size="10px" fill="#2A2C34" font-family="Helvetica Neue, Helvetica, Arial, sans-serif"> Relative</text></g></g></svg>